<svg width="58" height="58" viewBox="0 0 58 58" fill="none" xmlns="http://www.w3.org/2000/svg">
<path d="M35.107 32.5044C35.3855 32.1794 35.3479 31.6901 35.0229 31.4116C34.6979 31.133 34.2087 31.1707 33.9301 31.4956L35.107 32.5044ZM28.5186 39L27.9301 39.5044C28.0774 39.6761 28.2923 39.775 28.5186 39.775C28.7448 39.775 28.9597 39.6761 29.107 39.5044L28.5186 39ZM23.107 31.4956C22.8284 31.1707 22.3392 31.133 22.0142 31.4116C21.6892 31.6901 21.6516 32.1794 21.9301 32.5044L23.107 31.4956ZM29.5342 18.9605C29.5342 18.5324 29.1872 18.1855 28.7592 18.1855C28.3312 18.1855 27.9842 18.5324 27.9842 18.9605H29.5342ZM27.9842 38.5589C27.9842 38.9869 28.3312 39.3339 28.7592 39.3339C29.1872 39.3339 29.5342 38.9869 29.5342 38.5589H27.9842ZM56.225 29C56.225 44.036 44.036 56.225 29 56.225V57.775C44.892 57.775 57.775 44.892 57.775 29H56.225ZM29 56.225C13.964 56.225 1.775 44.036 1.775 29H0.225C0.225 44.892 13.108 57.775 29 57.775V56.225ZM1.775 29C1.775 13.964 13.964 1.775 29 1.775V0.225C13.108 0.225 0.225 13.108 0.225 29H1.775ZM29 1.775C44.036 1.775 56.225 13.964 56.225 29H57.775C57.775 13.108 44.892 0.225 29 0.225V1.775ZM33.9301 31.4956L27.9301 38.4956L29.107 39.5044L35.107 32.5044L33.9301 31.4956ZM29.107 38.4956L23.107 31.4956L21.9301 32.5044L27.9301 39.5044L29.107 38.4956ZM27.9842 18.9605V38.5589H29.5342V18.9605H27.9842Z" fill="#8095F7"/>
</svg>
