<svg width="370" height="274" viewBox="0 0 370 274" fill="none" xmlns="http://www.w3.org/2000/svg">
<path d="M158.95 119.5C158.95 126 155.5 129.25 148.6 129.25H139.15V109.75H148.6C155.5 109.75 158.95 113 158.95 119.5Z" fill="url(#paint0_linear_844_637)"/>
<path d="M158.95 119.5C158.95 126 155.5 129.25 148.6 129.25H139.15V109.75H148.6C155.5 109.75 158.95 113 158.95 119.5Z" fill="url(#paint1_linear_844_637)"/>
<path d="M21.86 49.84H24.54C25.5267 49.84 26.2667 49.6 26.76 49.12C27.2533 48.6267 27.5 47.9733 27.5 47.16C27.5 46.3333 27.2533 45.6933 26.76 45.24C26.28 44.7867 25.54 44.56 24.54 44.56H21.86V49.84Z" fill="url(#paint2_linear_844_637)"/>
<path d="M21.86 49.84H24.54C25.5267 49.84 26.2667 49.6 26.76 49.12C27.2533 48.6267 27.5 47.9733 27.5 47.16C27.5 46.3333 27.2533 45.6933 26.76 45.24C26.28 44.7867 25.54 44.56 24.54 44.56H21.86V49.84Z" fill="url(#paint3_linear_844_637)"/>
<path d="M40.328 50.72C40.328 50.0267 40.1746 49.4333 39.868 48.94C39.5613 48.4333 39.1413 48.0533 38.608 47.8C38.088 47.5333 37.508 47.4 36.868 47.4C35.948 47.4 35.1613 47.6933 34.508 48.28C33.868 48.8667 33.5013 49.68 33.408 50.72H40.328Z" fill="url(#paint4_linear_844_637)"/>
<path d="M40.328 50.72C40.328 50.0267 40.1746 49.4333 39.868 48.94C39.5613 48.4333 39.1413 48.0533 38.608 47.8C38.088 47.5333 37.508 47.4 36.868 47.4C35.948 47.4 35.1613 47.6933 34.508 48.28C33.868 48.8667 33.5013 49.68 33.408 50.72H40.328Z" fill="url(#paint5_linear_844_637)"/>
<path d="M53.2103 51.5C53.2103 50.6733 53.0436 49.9533 52.7103 49.34C52.377 48.7267 51.9236 48.26 51.3503 47.94C50.7903 47.6067 50.1703 47.44 49.4903 47.44C48.8103 47.44 48.1903 47.6 47.6303 47.92C47.0703 48.24 46.6236 48.7067 46.2903 49.32C45.957 49.9333 45.7903 50.6533 45.7903 51.48C45.7903 52.32 45.957 53.0533 46.2903 53.68C46.6236 54.2933 47.0703 54.7667 47.6303 55.1C48.1903 55.42 48.8103 55.58 49.4903 55.58C50.1703 55.58 50.7903 55.42 51.3503 55.1C51.9236 54.7667 52.377 54.2933 52.7103 53.68C53.0436 53.0533 53.2103 52.3267 53.2103 51.5Z" fill="url(#paint6_linear_844_637)"/>
<path d="M53.2103 51.5C53.2103 50.6733 53.0436 49.9533 52.7103 49.34C52.377 48.7267 51.9236 48.26 51.3503 47.94C50.7903 47.6067 50.1703 47.44 49.4903 47.44C48.8103 47.44 48.1903 47.6 47.6303 47.92C47.0703 48.24 46.6236 48.7067 46.2903 49.32C45.957 49.9333 45.7903 50.6533 45.7903 51.48C45.7903 52.32 45.957 53.0533 46.2903 53.68C46.6236 54.2933 47.0703 54.7667 47.6303 55.1C48.1903 55.42 48.8103 55.58 49.4903 55.58C50.1703 55.58 50.7903 55.42 51.3503 55.1C51.9236 54.7667 52.377 54.2933 52.7103 53.68C53.0436 53.0533 53.2103 52.3267 53.2103 51.5Z" fill="url(#paint7_linear_844_637)"/>
<path d="M66.7259 51.5C66.7259 50.6733 66.5593 49.9533 66.2259 49.34C65.8926 48.7267 65.4393 48.26 64.8659 47.94C64.3059 47.6067 63.6859 47.44 63.0059 47.44C62.3259 47.44 61.7059 47.6 61.1459 47.92C60.5859 48.24 60.1393 48.7067 59.8059 49.32C59.4726 49.9333 59.3059 50.6533 59.3059 51.48C59.3059 52.32 59.4726 53.0533 59.8059 53.68C60.1393 54.2933 60.5859 54.7667 61.1459 55.1C61.7059 55.42 62.3259 55.58 63.0059 55.58C63.6859 55.58 64.3059 55.42 64.8659 55.1C65.4393 54.7667 65.8926 54.2933 66.2259 53.68C66.5593 53.0533 66.7259 52.3267 66.7259 51.5Z" fill="url(#paint8_linear_844_637)"/>
<path d="M66.7259 51.5C66.7259 50.6733 66.5593 49.9533 66.2259 49.34C65.8926 48.7267 65.4393 48.26 64.8659 47.94C64.3059 47.6067 63.6859 47.44 63.0059 47.44C62.3259 47.44 61.7059 47.6 61.1459 47.92C60.5859 48.24 60.1393 48.7067 59.8059 49.32C59.4726 49.9333 59.3059 50.6533 59.3059 51.48C59.3059 52.32 59.4726 53.0533 59.8059 53.68C60.1393 54.2933 60.5859 54.7667 61.1459 55.1C61.7059 55.42 62.3259 55.58 63.0059 55.58C63.6859 55.58 64.3059 55.42 64.8659 55.1C65.4393 54.7667 65.8926 54.2933 66.2259 53.68C66.5593 53.0533 66.7259 52.3267 66.7259 51.5Z" fill="url(#paint9_linear_844_637)"/>
<path d="M100.308 55.58C100.962 55.58 101.575 55.4267 102.148 55.12C102.722 54.8133 103.182 54.3533 103.528 53.74C103.888 53.1267 104.068 52.38 104.068 51.5C104.068 50.62 103.895 49.8733 103.548 49.26C103.202 48.6467 102.748 48.1933 102.188 47.9C101.628 47.5933 101.022 47.44 100.368 47.44C99.7016 47.44 99.0883 47.5933 98.5283 47.9C97.9816 48.1933 97.5416 48.6467 97.2083 49.26C96.8749 49.8733 96.7083 50.62 96.7083 51.5C96.7083 52.3933 96.8683 53.1467 97.1883 53.76C97.5216 54.3733 97.9616 54.8333 98.5083 55.14C99.0549 55.4333 99.6549 55.58 100.308 55.58Z" fill="url(#paint10_linear_844_637)"/>
<path d="M100.308 55.58C100.962 55.58 101.575 55.4267 102.148 55.12C102.722 54.8133 103.182 54.3533 103.528 53.74C103.888 53.1267 104.068 52.38 104.068 51.5C104.068 50.62 103.895 49.8733 103.548 49.26C103.202 48.6467 102.748 48.1933 102.188 47.9C101.628 47.5933 101.022 47.44 100.368 47.44C99.7016 47.44 99.0883 47.5933 98.5283 47.9C97.9816 48.1933 97.5416 48.6467 97.2083 49.26C96.8749 49.8733 96.7083 50.62 96.7083 51.5C96.7083 52.3933 96.8683 53.1467 97.1883 53.76C97.5216 54.3733 97.9616 54.8333 98.5083 55.14C99.0549 55.4333 99.6549 55.58 100.308 55.58Z" fill="url(#paint11_linear_844_637)"/>
<path d="M141.383 50.72C141.383 50.0267 141.229 49.4333 140.923 48.94C140.616 48.4333 140.196 48.0533 139.663 47.8C139.143 47.5333 138.563 47.4 137.923 47.4C137.003 47.4 136.216 47.6933 135.563 48.28C134.923 48.8667 134.556 49.68 134.463 50.72H141.383Z" fill="url(#paint12_linear_844_637)"/>
<path d="M141.383 50.72C141.383 50.0267 141.229 49.4333 140.923 48.94C140.616 48.4333 140.196 48.0533 139.663 47.8C139.143 47.5333 138.563 47.4 137.923 47.4C137.003 47.4 136.216 47.6933 135.563 48.28C134.923 48.8667 134.556 49.68 134.463 50.72H141.383Z" fill="url(#paint13_linear_844_637)"/>
<path d="M154.265 51.5C154.265 50.6733 154.098 49.9533 153.765 49.34C153.432 48.7267 152.978 48.26 152.405 47.94C151.845 47.6067 151.225 47.44 150.545 47.44C149.865 47.44 149.245 47.6 148.685 47.92C148.125 48.24 147.678 48.7067 147.345 49.32C147.012 49.9333 146.845 50.6533 146.845 51.48C146.845 52.32 147.012 53.0533 147.345 53.68C147.678 54.2933 148.125 54.7667 148.685 55.1C149.245 55.42 149.865 55.58 150.545 55.58C151.225 55.58 151.845 55.42 152.405 55.1C152.978 54.7667 153.432 54.2933 153.765 53.68C154.098 53.0533 154.265 52.3267 154.265 51.5Z" fill="url(#paint14_linear_844_637)"/>
<path d="M154.265 51.5C154.265 50.6733 154.098 49.9533 153.765 49.34C153.432 48.7267 152.978 48.26 152.405 47.94C151.845 47.6067 151.225 47.44 150.545 47.44C149.865 47.44 149.245 47.6 148.685 47.92C148.125 48.24 147.678 48.7067 147.345 49.32C147.012 49.9333 146.845 50.6533 146.845 51.48C146.845 52.32 147.012 53.0533 147.345 53.68C147.678 54.2933 148.125 54.7667 148.685 55.1C149.245 55.42 149.865 55.58 150.545 55.58C151.225 55.58 151.845 55.42 152.405 55.1C152.978 54.7667 153.432 54.2933 153.765 53.68C154.098 53.0533 154.265 52.3267 154.265 51.5Z" fill="url(#paint15_linear_844_637)"/>
<path d="M174.586 50.72C174.586 50.0267 174.432 49.4333 174.126 48.94C173.819 48.4333 173.399 48.0533 172.866 47.8C172.346 47.5333 171.766 47.4 171.126 47.4C170.206 47.4 169.419 47.6933 168.766 48.28C168.126 48.8667 167.759 49.68 167.666 50.72H174.586Z" fill="url(#paint16_linear_844_637)"/>
<path d="M174.586 50.72C174.586 50.0267 174.432 49.4333 174.126 48.94C173.819 48.4333 173.399 48.0533 172.866 47.8C172.346 47.5333 171.766 47.4 171.126 47.4C170.206 47.4 169.419 47.6933 168.766 48.28C168.126 48.8667 167.759 49.68 167.666 50.72H174.586Z" fill="url(#paint17_linear_844_637)"/>
<path d="M199.429 55.58C200.083 55.58 200.696 55.4267 201.269 55.12C201.843 54.8133 202.303 54.3533 202.649 53.74C203.009 53.1267 203.189 52.38 203.189 51.5C203.189 50.62 203.016 49.8733 202.669 49.26C202.323 48.6467 201.869 48.1933 201.309 47.9C200.749 47.5933 200.143 47.44 199.489 47.44C198.823 47.44 198.209 47.5933 197.649 47.9C197.103 48.1933 196.663 48.6467 196.329 49.26C195.996 49.8733 195.829 50.62 195.829 51.5C195.829 52.3933 195.989 53.1467 196.309 53.76C196.643 54.3733 197.083 54.8333 197.629 55.14C198.176 55.4333 198.776 55.58 199.429 55.58Z" fill="url(#paint18_linear_844_637)"/>
<path d="M199.429 55.58C200.083 55.58 200.696 55.4267 201.269 55.12C201.843 54.8133 202.303 54.3533 202.649 53.74C203.009 53.1267 203.189 52.38 203.189 51.5C203.189 50.62 203.016 49.8733 202.669 49.26C202.323 48.6467 201.869 48.1933 201.309 47.9C200.749 47.5933 200.143 47.44 199.489 47.44C198.823 47.44 198.209 47.5933 197.649 47.9C197.103 48.1933 196.663 48.6467 196.329 49.26C195.996 49.8733 195.829 50.62 195.829 51.5C195.829 52.3933 195.989 53.1467 196.309 53.76C196.643 54.3733 197.083 54.8333 197.629 55.14C198.176 55.4333 198.776 55.58 199.429 55.58Z" fill="url(#paint19_linear_844_637)"/>
<path d="M236.168 50.72C236.168 50.0267 236.014 49.4333 235.708 48.94C235.401 48.4333 234.981 48.0533 234.448 47.8C233.928 47.5333 233.348 47.4 232.708 47.4C231.788 47.4 231.001 47.6933 230.348 48.28C229.708 48.8667 229.341 49.68 229.248 50.72H236.168Z" fill="url(#paint20_linear_844_637)"/>
<path d="M236.168 50.72C236.168 50.0267 236.014 49.4333 235.708 48.94C235.401 48.4333 234.981 48.0533 234.448 47.8C233.928 47.5333 233.348 47.4 232.708 47.4C231.788 47.4 231.001 47.6933 230.348 48.28C229.708 48.8667 229.341 49.68 229.248 50.72H236.168Z" fill="url(#paint21_linear_844_637)"/>
<path d="M286.843 51.5C286.843 50.6733 286.676 49.9533 286.343 49.34C286.01 48.7267 285.556 48.26 284.983 47.94C284.423 47.6067 283.803 47.44 283.123 47.44C282.443 47.44 281.823 47.6 281.263 47.92C280.703 48.24 280.256 48.7067 279.923 49.32C279.59 49.9333 279.423 50.6533 279.423 51.48C279.423 52.32 279.59 53.0533 279.923 53.68C280.256 54.2933 280.703 54.7667 281.263 55.1C281.823 55.42 282.443 55.58 283.123 55.58C283.803 55.58 284.423 55.42 284.983 55.1C285.556 54.7667 286.01 54.2933 286.343 53.68C286.676 53.0533 286.843 52.3267 286.843 51.5Z" fill="url(#paint22_linear_844_637)"/>
<path d="M286.843 51.5C286.843 50.6733 286.676 49.9533 286.343 49.34C286.01 48.7267 285.556 48.26 284.983 47.94C284.423 47.6067 283.803 47.44 283.123 47.44C282.443 47.44 281.823 47.6 281.263 47.92C280.703 48.24 280.256 48.7067 279.923 49.32C279.59 49.9333 279.423 50.6533 279.423 51.48C279.423 52.32 279.59 53.0533 279.923 53.68C280.256 54.2933 280.703 54.7667 281.263 55.1C281.823 55.42 282.443 55.58 283.123 55.58C283.803 55.58 284.423 55.42 284.983 55.1C285.556 54.7667 286.01 54.2933 286.343 53.68C286.676 53.0533 286.843 52.3267 286.843 51.5Z" fill="url(#paint23_linear_844_637)"/>
<path d="M73.4803 227.12C72.907 227.427 72.2936 227.58 71.6403 227.58C70.987 227.58 70.387 227.433 69.8403 227.14C69.2936 226.833 68.8536 226.373 68.5203 225.76C68.2003 225.147 68.0403 224.393 68.0403 223.5C68.0403 222.62 68.207 221.873 68.5403 221.26C68.8736 220.647 69.3136 220.193 69.8603 219.9C70.4203 219.593 71.0336 219.44 71.7003 219.44C72.3536 219.44 72.9603 219.593 73.5203 219.9C74.0803 220.193 74.5336 220.647 74.8803 221.26C75.227 221.873 75.4003 222.62 75.4003 223.5C75.4003 224.38 75.2203 225.127 74.8603 225.74C74.5136 226.353 74.0536 226.813 73.4803 227.12Z" fill="url(#paint24_linear_844_637)"/>
<path d="M73.4803 227.12C72.907 227.427 72.2936 227.58 71.6403 227.58C70.987 227.58 70.387 227.433 69.8403 227.14C69.2936 226.833 68.8536 226.373 68.5203 225.76C68.2003 225.147 68.0403 224.393 68.0403 223.5C68.0403 222.62 68.207 221.873 68.5403 221.26C68.8736 220.647 69.3136 220.193 69.8603 219.9C70.4203 219.593 71.0336 219.44 71.7003 219.44C72.3536 219.44 72.9603 219.593 73.5203 219.9C74.0803 220.193 74.5336 220.647 74.8803 221.26C75.227 221.873 75.4003 222.62 75.4003 223.5C75.4003 224.38 75.2203 225.127 74.8603 225.74C74.5136 226.353 74.0536 226.813 73.4803 227.12Z" fill="url(#paint25_linear_844_637)"/>
<path d="M87.7533 221.34C88.0866 221.953 88.2533 222.673 88.2533 223.5C88.2533 224.327 88.0866 225.053 87.7533 225.68C87.4199 226.293 86.9666 226.767 86.3933 227.1C85.8333 227.42 85.2133 227.58 84.5333 227.58C83.8533 227.58 83.2333 227.42 82.6733 227.1C82.1133 226.767 81.6666 226.293 81.3333 225.68C80.9999 225.053 80.8333 224.32 80.8333 223.48C80.8333 222.653 80.9999 221.933 81.3333 221.32C81.6666 220.707 82.1133 220.24 82.6733 219.92C83.2333 219.6 83.8533 219.44 84.5333 219.44C85.2133 219.44 85.8333 219.607 86.3933 219.94C86.9666 220.26 87.4199 220.727 87.7533 221.34Z" fill="url(#paint26_linear_844_637)"/>
<path d="M87.7533 221.34C88.0866 221.953 88.2533 222.673 88.2533 223.5C88.2533 224.327 88.0866 225.053 87.7533 225.68C87.4199 226.293 86.9666 226.767 86.3933 227.1C85.8333 227.42 85.2133 227.58 84.5333 227.58C83.8533 227.58 83.2333 227.42 82.6733 227.1C82.1133 226.767 81.6666 226.293 81.3333 225.68C80.9999 225.053 80.8333 224.32 80.8333 223.48C80.8333 222.653 80.9999 221.933 81.3333 221.32C81.6666 220.707 82.1133 220.24 82.6733 219.92C83.2333 219.6 83.8533 219.44 84.5333 219.44C85.2133 219.44 85.8333 219.607 86.3933 219.94C86.9666 220.26 87.4199 220.727 87.7533 221.34Z" fill="url(#paint27_linear_844_637)"/>
<path d="M100.829 220.94C101.136 221.433 101.289 222.027 101.289 222.72H94.3689C94.4622 221.68 94.8289 220.867 95.4689 220.28C96.1222 219.693 96.9089 219.4 97.8289 219.4C98.4689 219.4 99.0489 219.533 99.5689 219.8C100.102 220.053 100.522 220.433 100.829 220.94Z" fill="url(#paint28_linear_844_637)"/>
<path d="M100.829 220.94C101.136 221.433 101.289 222.027 101.289 222.72H94.3689C94.4622 221.68 94.8289 220.867 95.4689 220.28C96.1222 219.693 96.9089 219.4 97.8289 219.4C98.4689 219.4 99.0489 219.533 99.5689 219.8C100.102 220.053 100.522 220.433 100.829 220.94Z" fill="url(#paint29_linear_844_637)"/>
<path d="M133.309 220.94C133.616 221.433 133.769 222.027 133.769 222.72H126.849C126.943 221.68 127.309 220.867 127.949 220.28C128.603 219.693 129.389 219.4 130.309 219.4C130.949 219.4 131.529 219.533 132.049 219.8C132.583 220.053 133.003 220.433 133.309 220.94Z" fill="url(#paint30_linear_844_637)"/>
<path d="M133.309 220.94C133.616 221.433 133.769 222.027 133.769 222.72H126.849C126.943 221.68 127.309 220.867 127.949 220.28C128.603 219.693 129.389 219.4 130.309 219.4C130.949 219.4 131.529 219.533 132.049 219.8C132.583 220.053 133.003 220.433 133.309 220.94Z" fill="url(#paint31_linear_844_637)"/>
<path fill-rule="evenodd" clip-rule="evenodd" d="M370 78.9251C370 72.159 361.625 67.9731 355.168 69.9956C351.011 71.298 346.587 72 342 72C317.699 72 298 52.3005 298 28C298 23.4127 298.702 18.9894 300.004 14.8317C302.027 8.3749 297.841 0 291.075 0H60C26.8629 0 0 26.8629 0 60V82.1284L93.3 83.05V109.6H55.8V122.65H88.8V147.7H55.8V162.7H93.3V189.25L0 189.908V258C0 266.837 7.16344 274 16 274H310C343.137 274 370 247.137 370 214V189.604C346.146 190 301.102 190 301.102 190C301.102 190 281.102 187.75 273.202 183.25C265.302 178.65 259.202 172.25 254.902 164.05C250.702 155.85 248.602 146.5 248.602 136C248.602 125.5 250.702 116.15 254.902 107.95C259.202 99.75 265.302 93.4 273.202 88.9C281.102 84.3 290.402 82 301.102 82C305.728 82 324.006 82.2655 342.182 82.5295L342.203 82.5298C352.284 82.6762 362.332 82.8222 370 82.9221V78.9251ZM188.05 137.8C191.15 132.3 192.7 126.2 192.7 119.5C192.7 108.4 189.2 99.55 182.2 92.95C175.3 86.35 165.35 83.05 152.35 83.05H105.85V189.25H139.15V155.5H152.35C160.95 155.5 168.25 153.9 174.25 150.7C180.35 147.5 184.95 143.2 188.05 137.8ZM236.562 83.05V189.25H203.262V83.05H236.562ZM27.38 57L24.06 51.3H21.86V57H20.04V43.06H24.54C25.5933 43.06 26.48 43.24 27.2 43.6C27.9333 43.96 28.48 44.4467 28.84 45.06C29.2 45.6733 29.38 46.3733 29.38 47.16C29.38 48.12 29.1 48.9667 28.54 49.7C27.9933 50.4333 27.1667 50.92 26.06 51.16L29.56 57H27.38ZM42.208 51.1C42.208 51.4467 42.188 51.8133 42.148 52.2H33.388C33.4546 53.28 33.8213 54.1267 34.488 54.74C35.168 55.34 35.988 55.64 36.948 55.64C37.7346 55.64 38.388 55.46 38.908 55.1C39.4413 54.7267 39.8146 54.2333 40.028 53.62H41.988C41.6946 54.6733 41.108 55.5333 40.228 56.2C39.348 56.8533 38.2546 57.18 36.948 57.18C35.908 57.18 34.9746 56.9467 34.148 56.48C33.3346 56.0133 32.6946 55.3533 32.228 54.5C31.7613 53.6333 31.528 52.6333 31.528 51.5C31.528 50.3667 31.7546 49.3733 32.208 48.52C32.6613 47.6667 33.2946 47.0133 34.108 46.56C34.9346 46.0933 35.8813 45.86 36.948 45.86C37.988 45.86 38.908 46.0867 39.708 46.54C40.508 46.9933 41.1213 47.62 41.548 48.42C41.988 49.2067 42.208 50.1 42.208 51.1ZM43.9303 51.48C43.9303 50.36 44.157 49.38 44.6103 48.54C45.0636 47.6867 45.6836 47.0267 46.4703 46.56C47.2703 46.0933 48.157 45.86 49.1303 45.86C50.0903 45.86 50.9236 46.0667 51.6303 46.48C52.337 46.8933 52.8636 47.4133 53.2103 48.04V46.04H55.0503V57H53.2103V54.96C52.8503 55.6 52.3103 56.1333 51.5903 56.56C50.8836 56.9733 50.057 57.18 49.1103 57.18C48.137 57.18 47.257 56.94 46.4703 56.46C45.6836 55.98 45.0636 55.3067 44.6103 54.44C44.157 53.5733 43.9303 52.5867 43.9303 51.48ZM57.4459 51.48C57.4459 50.36 57.6726 49.38 58.1259 48.54C58.5793 47.6867 59.1993 47.0267 59.9859 46.56C60.7859 46.0933 61.6793 45.86 62.6659 45.86C63.5193 45.86 64.3126 46.06 65.0459 46.46C65.7793 46.8467 66.3393 47.36 66.7259 48V42.2H68.5659V57H66.7259V54.94C66.3659 55.5933 65.8326 56.1333 65.1259 56.56C64.4193 56.9733 63.5926 57.18 62.6459 57.18C61.6726 57.18 60.7859 56.94 59.9859 56.46C59.1993 55.98 58.5793 55.3067 58.1259 54.44C57.6726 53.5733 57.4459 52.5867 57.4459 51.48ZM81.0816 46.04L74.4816 62.16H72.6016L74.7616 56.88L70.3416 46.04H72.3616L75.8016 54.92L79.2016 46.04H81.0816ZM90.4631 47.54V54C90.4631 54.5333 90.5765 54.9133 90.8031 55.14C91.0298 55.3533 91.4231 55.46 91.9831 55.46H93.3231V57H91.6831C90.6698 57 89.9098 56.7667 89.4031 56.3C88.8965 55.8333 88.6431 55.0667 88.6431 54V47.54H87.2231V46.04H88.6431V43.28H90.4631V46.04H93.3231V47.54H90.4631ZM100.308 57.18C99.2816 57.18 98.3483 56.9467 97.5083 56.48C96.6816 56.0133 96.0283 55.3533 95.5483 54.5C95.0816 53.6333 94.8483 52.6333 94.8483 51.5C94.8483 50.38 95.0883 49.3933 95.5683 48.54C96.0616 47.6733 96.7283 47.0133 97.5683 46.56C98.4083 46.0933 99.3483 45.86 100.388 45.86C101.428 45.86 102.368 46.0933 103.208 46.56C104.048 47.0133 104.708 47.6667 105.188 48.52C105.682 49.3733 105.928 50.3667 105.928 51.5C105.928 52.6333 105.675 53.6333 105.168 54.5C104.675 55.3533 104.002 56.0133 103.148 56.48C102.295 56.9467 101.348 57.18 100.308 57.18ZM112.973 51.5C112.973 50.3667 113.2 49.38 113.653 48.54C114.107 47.6867 114.733 47.0267 115.533 46.56C116.347 46.0933 117.273 45.86 118.313 45.86C119.66 45.86 120.767 46.1867 121.633 46.84C122.513 47.4933 123.093 48.4 123.373 49.56H121.413C121.227 48.8933 120.86 48.3667 120.313 47.98C119.78 47.5933 119.113 47.4 118.313 47.4C117.273 47.4 116.433 47.76 115.793 48.48C115.153 49.1867 114.833 50.1933 114.833 51.5C114.833 52.82 115.153 53.84 115.793 54.56C116.433 55.28 117.273 55.64 118.313 55.64C119.113 55.64 119.78 55.4533 120.313 55.08C120.847 54.7067 121.213 54.1733 121.413 53.48H123.373C123.08 54.6 122.493 55.5 121.613 56.18C120.733 56.8467 119.633 57.18 118.313 57.18C117.273 57.18 116.347 56.9467 115.533 56.48C114.733 56.0133 114.107 55.3533 113.653 54.5C113.2 53.6467 112.973 52.6467 112.973 51.5ZM127.622 47.82C127.942 47.1933 128.395 46.7067 128.982 46.36C129.582 46.0133 130.308 45.84 131.162 45.84V47.72H130.682C128.642 47.72 127.622 48.8267 127.622 51.04V57H125.802V46.04H127.622V47.82ZM143.263 51.1C143.263 51.4467 143.243 51.8133 143.203 52.2H134.443C134.509 53.28 134.876 54.1267 135.543 54.74C136.223 55.34 137.043 55.64 138.003 55.64C138.789 55.64 139.443 55.46 139.963 55.1C140.496 54.7267 140.869 54.2333 141.083 53.62H143.043C142.749 54.6733 142.163 55.5333 141.283 56.2C140.403 56.8533 139.309 57.18 138.003 57.18C136.963 57.18 136.029 56.9467 135.203 56.48C134.389 56.0133 133.749 55.3533 133.283 54.5C132.816 53.6333 132.583 52.6333 132.583 51.5C132.583 50.3667 132.809 49.3733 133.263 48.52C133.716 47.6667 134.349 47.0133 135.163 46.56C135.989 46.0933 136.936 45.86 138.003 45.86C139.043 45.86 139.963 46.0867 140.763 46.54C141.563 46.9933 142.176 47.62 142.603 48.42C143.043 49.2067 143.263 50.1 143.263 51.1ZM144.985 51.48C144.985 50.36 145.212 49.38 145.665 48.54C146.118 47.6867 146.738 47.0267 147.525 46.56C148.325 46.0933 149.212 45.86 150.185 45.86C151.145 45.86 151.978 46.0667 152.685 46.48C153.392 46.8933 153.918 47.4133 154.265 48.04V46.04H156.105V57H154.265V54.96C153.905 55.6 153.365 56.1333 152.645 56.56C151.938 56.9733 151.112 57.18 150.165 57.18C149.192 57.18 148.312 56.94 147.525 56.46C146.738 55.98 146.118 55.3067 145.665 54.44C145.212 53.5733 144.985 52.5867 144.985 51.48ZM161.401 47.54V54C161.401 54.5333 161.514 54.9133 161.741 55.14C161.967 55.3533 162.361 55.46 162.921 55.46H164.261V57H162.621C161.607 57 160.847 56.7667 160.341 56.3C159.834 55.8333 159.581 55.0667 159.581 54V47.54H158.161V46.04H159.581V43.28H161.401V46.04H164.261V47.54H161.401ZM176.466 51.1C176.466 51.4467 176.446 51.8133 176.406 52.2H167.646C167.712 53.28 168.079 54.1267 168.746 54.74C169.426 55.34 170.246 55.64 171.206 55.64C171.992 55.64 172.646 55.46 173.166 55.1C173.699 54.7267 174.072 54.2333 174.286 53.62H176.246C175.952 54.6733 175.366 55.5333 174.486 56.2C173.606 56.8533 172.512 57.18 171.206 57.18C170.166 57.18 169.232 56.9467 168.406 56.48C167.592 56.0133 166.952 55.3533 166.486 54.5C166.019 53.6333 165.786 52.6333 165.786 51.5C165.786 50.3667 166.012 49.3733 166.466 48.52C166.919 47.6667 167.552 47.0133 168.366 46.56C169.192 46.0933 170.139 45.86 171.206 45.86C172.246 45.86 173.166 46.0867 173.966 46.54C174.766 46.9933 175.379 47.62 175.806 48.42C176.246 49.2067 176.466 50.1 176.466 51.1ZM188.08 57.18C187.24 57.18 186.487 57.04 185.82 56.76C185.153 56.4667 184.627 56.0667 184.24 55.56C183.853 55.04 183.64 54.4467 183.6 53.78H185.48C185.533 54.3267 185.787 54.7733 186.24 55.12C186.707 55.4667 187.313 55.64 188.06 55.64C188.753 55.64 189.3 55.4867 189.7 55.18C190.1 54.8733 190.3 54.4867 190.3 54.02C190.3 53.54 190.087 53.1867 189.66 52.96C189.233 52.72 188.573 52.4867 187.68 52.26C186.867 52.0467 186.2 51.8333 185.68 51.62C185.173 51.3933 184.733 51.0667 184.36 50.64C184 50.2 183.82 49.6267 183.82 48.92C183.82 48.36 183.987 47.8467 184.32 47.38C184.653 46.9133 185.127 46.5467 185.74 46.28C186.353 46 187.053 45.86 187.84 45.86C189.053 45.86 190.033 46.1667 190.78 46.78C191.527 47.3933 191.927 48.2333 191.98 49.3H190.16C190.12 48.7267 189.887 48.2667 189.46 47.92C189.047 47.5733 188.487 47.4 187.78 47.4C187.127 47.4 186.607 47.54 186.22 47.82C185.833 48.1 185.64 48.4667 185.64 48.92C185.64 49.28 185.753 49.58 185.98 49.82C186.22 50.0467 186.513 50.2333 186.86 50.38C187.22 50.5133 187.713 50.6667 188.34 50.84C189.127 51.0533 189.767 51.2667 190.26 51.48C190.753 51.68 191.173 51.9867 191.52 52.4C191.88 52.8133 192.067 53.3533 192.08 54.02C192.08 54.62 191.913 55.16 191.58 55.64C191.247 56.12 190.773 56.5 190.16 56.78C189.56 57.0467 188.867 57.18 188.08 57.18ZM199.429 57.18C198.403 57.18 197.469 56.9467 196.629 56.48C195.803 56.0133 195.149 55.3533 194.669 54.5C194.203 53.6333 193.969 52.6333 193.969 51.5C193.969 50.38 194.209 49.3933 194.689 48.54C195.183 47.6733 195.849 47.0133 196.689 46.56C197.529 46.0933 198.469 45.86 199.509 45.86C200.549 45.86 201.489 46.0933 202.329 46.56C203.169 47.0133 203.829 47.6667 204.309 48.52C204.803 49.3733 205.049 50.3667 205.049 51.5C205.049 52.6333 204.796 53.6333 204.289 54.5C203.796 55.3533 203.123 56.0133 202.269 56.48C201.416 56.9467 200.469 57.18 199.429 57.18ZM220.622 45.84C221.476 45.84 222.236 46.02 222.902 46.38C223.569 46.7267 224.096 47.2533 224.482 47.96C224.869 48.6667 225.062 49.5267 225.062 50.54V57H223.262V50.8C223.262 49.7067 222.989 48.8733 222.442 48.3C221.909 47.7133 221.182 47.42 220.262 47.42C219.316 47.42 218.562 47.7267 218.002 48.34C217.442 48.94 217.162 49.8133 217.162 50.96V57H215.362V50.8C215.362 49.7067 215.089 48.8733 214.542 48.3C214.009 47.7133 213.282 47.42 212.362 47.42C211.416 47.42 210.662 47.7267 210.102 48.34C209.542 48.94 209.262 49.8133 209.262 50.96V57H207.442V46.04H209.262V47.62C209.622 47.0467 210.102 46.6067 210.702 46.3C211.316 45.9933 211.989 45.84 212.722 45.84C213.642 45.84 214.456 46.0467 215.162 46.46C215.869 46.8733 216.396 47.48 216.742 48.28C217.049 47.5067 217.556 46.9067 218.262 46.48C218.969 46.0533 219.756 45.84 220.622 45.84ZM238.048 51.1C238.048 51.4467 238.028 51.8133 237.988 52.2H229.228C229.294 53.28 229.661 54.1267 230.328 54.74C231.008 55.34 231.828 55.64 232.788 55.64C233.574 55.64 234.228 55.46 234.748 55.1C235.281 54.7267 235.654 54.2333 235.868 53.62H237.828C237.534 54.6733 236.948 55.5333 236.068 56.2C235.188 56.8533 234.094 57.18 232.788 57.18C231.748 57.18 230.814 56.9467 229.988 56.48C229.174 56.0133 228.534 55.3533 228.068 54.5C227.601 53.6333 227.368 52.6333 227.368 51.5C227.368 50.3667 227.594 49.3733 228.048 48.52C228.501 47.6667 229.134 47.0133 229.948 46.56C230.774 46.0933 231.721 45.86 232.788 45.86C233.828 45.86 234.748 46.0867 235.548 46.54C236.348 46.9933 236.961 47.62 237.388 48.42C237.828 49.2067 238.048 50.1 238.048 51.1ZM242.67 47.54V54C242.67 54.5333 242.783 54.9133 243.01 55.14C243.237 55.3533 243.63 55.46 244.19 55.46H245.53V57H243.89C242.877 57 242.117 56.7667 241.61 56.3C241.103 55.8333 240.85 55.0667 240.85 54V47.54H239.43V46.04H240.85V43.28H242.67V46.04H245.53V47.54H242.67ZM253.175 45.84C254.002 45.84 254.749 46.02 255.415 46.38C256.082 46.7267 256.602 47.2533 256.975 47.96C257.362 48.6667 257.555 49.5267 257.555 50.54V57H255.755V50.8C255.755 49.7067 255.482 48.8733 254.935 48.3C254.389 47.7133 253.642 47.42 252.695 47.42C251.735 47.42 250.969 47.72 250.395 48.32C249.835 48.92 249.555 49.7933 249.555 50.94V57H247.735V42.2H249.555V47.6C249.915 47.04 250.409 46.6067 251.035 46.3C251.675 45.9933 252.389 45.84 253.175 45.84ZM261.468 44.26C261.122 44.26 260.828 44.14 260.588 43.9C260.348 43.66 260.228 43.3667 260.228 43.02C260.228 42.6733 260.348 42.38 260.588 42.14C260.828 41.9 261.122 41.78 261.468 41.78C261.802 41.78 262.082 41.9 262.308 42.14C262.548 42.38 262.668 42.6733 262.668 43.02C262.668 43.3667 262.548 43.66 262.308 43.9C262.082 44.14 261.802 44.26 261.468 44.26ZM262.348 46.04V57H260.528V46.04H262.348ZM270.79 45.84C272.124 45.84 273.203 46.2467 274.03 47.06C274.857 47.86 275.27 49.02 275.27 50.54V57H273.47V50.8C273.47 49.7067 273.197 48.8733 272.65 48.3C272.103 47.7133 271.357 47.42 270.41 47.42C269.45 47.42 268.684 47.72 268.11 48.32C267.55 48.92 267.27 49.7933 267.27 50.94V57H265.45V46.04H267.27V47.6C267.63 47.04 268.117 46.6067 268.73 46.3C269.357 45.9933 270.043 45.84 270.79 45.84ZM282.763 45.86C283.71 45.86 284.536 46.0667 285.243 46.48C285.963 46.8933 286.496 47.4133 286.843 48.04V46.04H288.683V57.24C288.683 58.24 288.47 59.1267 288.043 59.9C287.616 60.6867 287.003 61.3 286.203 61.74C285.416 62.18 284.496 62.4 283.443 62.4C282.003 62.4 280.803 62.06 279.843 61.38C278.883 60.7 278.316 59.7733 278.143 58.6H279.943C280.143 59.2667 280.556 59.8 281.183 60.2C281.81 60.6133 282.563 60.82 283.443 60.82C284.443 60.82 285.256 60.5067 285.883 59.88C286.523 59.2533 286.843 58.3733 286.843 57.24V54.94C286.483 55.58 285.95 56.1133 285.243 56.54C284.536 56.9667 283.71 57.18 282.763 57.18C281.79 57.18 280.903 56.94 280.103 56.46C279.316 55.98 278.696 55.3067 278.243 54.44C277.79 53.5733 277.563 52.5867 277.563 51.48C277.563 50.36 277.79 49.38 278.243 48.54C278.696 47.6867 279.316 47.0267 280.103 46.56C280.903 46.0933 281.79 45.86 282.763 45.86ZM64.62 216.54V215.06H55.18V216.54H59V229H60.82V216.54H64.62ZM68.8403 228.48C69.6803 228.947 70.6136 229.18 71.6403 229.18C72.6803 229.18 73.627 228.947 74.4803 228.48C75.3336 228.013 76.007 227.353 76.5003 226.5C77.007 225.633 77.2603 224.633 77.2603 223.5C77.2603 222.367 77.0136 221.373 76.5203 220.52C76.0403 219.667 75.3803 219.013 74.5403 218.56C73.7003 218.093 72.7603 217.86 71.7203 217.86C70.6803 217.86 69.7403 218.093 68.9003 218.56C68.0603 219.013 67.3936 219.673 66.9003 220.54C66.4203 221.393 66.1803 222.38 66.1803 223.5C66.1803 224.633 66.4136 225.633 66.8803 226.5C67.3603 227.353 68.0136 228.013 68.8403 228.48ZM86.6533 218.48C85.9466 218.067 85.1199 217.86 84.1733 217.86C83.2 217.86 82.3133 218.093 81.5133 218.56C80.7266 219.027 80.1066 219.687 79.6533 220.54C79.2 221.38 78.9733 222.36 78.9733 223.48C78.9733 224.587 79.2 225.573 79.6533 226.44C80.1066 227.307 80.7266 227.98 81.5133 228.46C82.3133 228.94 83.2 229.18 84.1733 229.18C85.1199 229.18 85.9466 228.967 86.6533 228.54C87.3599 228.113 87.8933 227.58 88.2533 226.94V229.24C88.2533 230.373 87.9333 231.253 87.2933 231.88C86.6666 232.507 85.8533 232.82 84.8533 232.82C83.9733 232.82 83.2199 232.613 82.5933 232.2C81.9666 231.8 81.5533 231.267 81.3533 230.6H79.5533C79.7266 231.773 80.2933 232.7 81.2533 233.38C82.2133 234.06 83.4133 234.4 84.8533 234.4C85.9066 234.4 86.8266 234.18 87.6133 233.74C88.4133 233.3 89.0266 232.687 89.4533 231.9C89.88 231.127 90.0933 230.24 90.0933 229.24V218.04H88.2533V220.04C87.9066 219.413 87.3733 218.893 86.6533 218.48ZM103.109 224.2C103.149 223.813 103.169 223.447 103.169 223.1C103.169 222.1 102.949 221.207 102.509 220.42C102.082 219.62 101.469 218.993 100.669 218.54C99.8689 218.087 98.9489 217.86 97.9089 217.86C96.8422 217.86 95.8956 218.093 95.0689 218.56C94.2556 219.013 93.6222 219.667 93.1689 220.52C92.7156 221.373 92.4889 222.367 92.4889 223.5C92.4889 224.633 92.7222 225.633 93.1889 226.5C93.6556 227.353 94.2956 228.013 95.1089 228.48C95.9356 228.947 96.8689 229.18 97.9089 229.18C99.2156 229.18 100.309 228.853 101.189 228.2C102.069 227.533 102.656 226.673 102.949 225.62H100.989C100.776 226.233 100.402 226.727 99.8689 227.1C99.3489 227.46 98.6956 227.64 97.9089 227.64C96.9489 227.64 96.1289 227.34 95.4489 226.74C94.7822 226.127 94.4156 225.28 94.3489 224.2H103.109ZM107.791 226V219.54H110.651V218.04H107.791V215.28H105.971V218.04H104.551V219.54H105.971V226C105.971 227.067 106.225 227.833 106.731 228.3C107.238 228.767 107.998 229 109.011 229H110.651V227.46H109.311C108.751 227.46 108.358 227.353 108.131 227.14C107.905 226.913 107.791 226.533 107.791 226ZM120.536 218.38C119.87 218.02 119.123 217.84 118.296 217.84C117.51 217.84 116.796 217.993 116.156 218.3C115.53 218.607 115.036 219.04 114.676 219.6V214.2H112.856V229H114.676V222.94C114.676 221.793 114.956 220.92 115.516 220.32C116.09 219.72 116.856 219.42 117.816 219.42C118.763 219.42 119.51 219.713 120.056 220.3C120.603 220.873 120.876 221.707 120.876 222.8V229H122.676V222.54C122.676 221.527 122.483 220.667 122.096 219.96C121.723 219.253 121.203 218.727 120.536 218.38ZM135.589 224.2C135.629 223.813 135.649 223.447 135.649 223.1C135.649 222.1 135.429 221.207 134.989 220.42C134.563 219.62 133.949 218.993 133.149 218.54C132.349 218.087 131.429 217.86 130.389 217.86C129.323 217.86 128.376 218.093 127.549 218.56C126.736 219.013 126.103 219.667 125.649 220.52C125.196 221.373 124.969 222.367 124.969 223.5C124.969 224.633 125.203 225.633 125.669 226.5C126.136 227.353 126.776 228.013 127.589 228.48C128.416 228.947 129.349 229.18 130.389 229.18C131.696 229.18 132.789 228.853 133.669 228.2C134.549 227.533 135.136 226.673 135.429 225.62H133.469C133.256 226.233 132.883 226.727 132.349 227.1C131.829 227.46 131.176 227.64 130.389 227.64C129.429 227.64 128.609 227.34 127.929 226.74C127.263 226.127 126.896 225.28 126.829 224.2H135.589ZM141.232 218.36C140.645 218.707 140.192 219.193 139.872 219.82V218.04H138.052V229H139.872V223.04C139.872 220.827 140.892 219.72 142.932 219.72H143.412V217.84C142.558 217.84 141.832 218.013 141.232 218.36ZM152.273 216C151.459 215.253 150.393 214.88 149.073 214.88C148.206 214.88 147.439 215.047 146.773 215.38C146.119 215.713 145.613 216.187 145.253 216.8C144.893 217.4 144.713 218.1 144.713 218.9H146.433C146.433 218.127 146.666 217.52 147.133 217.08C147.613 216.627 148.266 216.4 149.093 216.4C149.906 216.4 150.553 216.633 151.033 217.1C151.513 217.567 151.753 218.2 151.753 219C151.753 220.107 151.379 220.86 150.633 221.26C149.886 221.66 148.853 221.86 147.533 221.86H146.953L147.033 225.02H148.613L148.673 223.12C150.153 223.12 151.326 222.787 152.193 222.12C153.059 221.44 153.493 220.4 153.493 219C153.493 217.747 153.086 216.747 152.273 216ZM146.933 228.76C147.173 229 147.466 229.12 147.813 229.12C148.146 229.12 148.426 229 148.653 228.76C148.893 228.52 149.013 228.227 149.013 227.88C149.013 227.533 148.893 227.24 148.653 227C148.426 226.76 148.146 226.64 147.813 226.64C147.466 226.64 147.173 226.76 146.933 227C146.693 227.24 146.573 227.533 146.573 227.88C146.573 228.227 146.693 228.52 146.933 228.76Z" fill="url(#paint32_linear_844_637)"/>
<path fill-rule="evenodd" clip-rule="evenodd" d="M370 78.9251C370 72.159 361.625 67.9731 355.168 69.9956C351.011 71.298 346.587 72 342 72C317.699 72 298 52.3005 298 28C298 23.4127 298.702 18.9894 300.004 14.8317C302.027 8.3749 297.841 0 291.075 0H60C26.8629 0 0 26.8629 0 60V82.1284L93.3 83.05V109.6H55.8V122.65H88.8V147.7H55.8V162.7H93.3V189.25L0 189.908V258C0 266.837 7.16344 274 16 274H310C343.137 274 370 247.137 370 214V189.604C346.146 190 301.102 190 301.102 190C301.102 190 281.102 187.75 273.202 183.25C265.302 178.65 259.202 172.25 254.902 164.05C250.702 155.85 248.602 146.5 248.602 136C248.602 125.5 250.702 116.15 254.902 107.95C259.202 99.75 265.302 93.4 273.202 88.9C281.102 84.3 290.402 82 301.102 82C305.728 82 324.006 82.2655 342.182 82.5295L342.203 82.5298C352.284 82.6762 362.332 82.8222 370 82.9221V78.9251ZM188.05 137.8C191.15 132.3 192.7 126.2 192.7 119.5C192.7 108.4 189.2 99.55 182.2 92.95C175.3 86.35 165.35 83.05 152.35 83.05H105.85V189.25H139.15V155.5H152.35C160.95 155.5 168.25 153.9 174.25 150.7C180.35 147.5 184.95 143.2 188.05 137.8ZM236.562 83.05V189.25H203.262V83.05H236.562ZM27.38 57L24.06 51.3H21.86V57H20.04V43.06H24.54C25.5933 43.06 26.48 43.24 27.2 43.6C27.9333 43.96 28.48 44.4467 28.84 45.06C29.2 45.6733 29.38 46.3733 29.38 47.16C29.38 48.12 29.1 48.9667 28.54 49.7C27.9933 50.4333 27.1667 50.92 26.06 51.16L29.56 57H27.38ZM42.208 51.1C42.208 51.4467 42.188 51.8133 42.148 52.2H33.388C33.4546 53.28 33.8213 54.1267 34.488 54.74C35.168 55.34 35.988 55.64 36.948 55.64C37.7346 55.64 38.388 55.46 38.908 55.1C39.4413 54.7267 39.8146 54.2333 40.028 53.62H41.988C41.6946 54.6733 41.108 55.5333 40.228 56.2C39.348 56.8533 38.2546 57.18 36.948 57.18C35.908 57.18 34.9746 56.9467 34.148 56.48C33.3346 56.0133 32.6946 55.3533 32.228 54.5C31.7613 53.6333 31.528 52.6333 31.528 51.5C31.528 50.3667 31.7546 49.3733 32.208 48.52C32.6613 47.6667 33.2946 47.0133 34.108 46.56C34.9346 46.0933 35.8813 45.86 36.948 45.86C37.988 45.86 38.908 46.0867 39.708 46.54C40.508 46.9933 41.1213 47.62 41.548 48.42C41.988 49.2067 42.208 50.1 42.208 51.1ZM43.9303 51.48C43.9303 50.36 44.157 49.38 44.6103 48.54C45.0636 47.6867 45.6836 47.0267 46.4703 46.56C47.2703 46.0933 48.157 45.86 49.1303 45.86C50.0903 45.86 50.9236 46.0667 51.6303 46.48C52.337 46.8933 52.8636 47.4133 53.2103 48.04V46.04H55.0503V57H53.2103V54.96C52.8503 55.6 52.3103 56.1333 51.5903 56.56C50.8836 56.9733 50.057 57.18 49.1103 57.18C48.137 57.18 47.257 56.94 46.4703 56.46C45.6836 55.98 45.0636 55.3067 44.6103 54.44C44.157 53.5733 43.9303 52.5867 43.9303 51.48ZM57.4459 51.48C57.4459 50.36 57.6726 49.38 58.1259 48.54C58.5793 47.6867 59.1993 47.0267 59.9859 46.56C60.7859 46.0933 61.6793 45.86 62.6659 45.86C63.5193 45.86 64.3126 46.06 65.0459 46.46C65.7793 46.8467 66.3393 47.36 66.7259 48V42.2H68.5659V57H66.7259V54.94C66.3659 55.5933 65.8326 56.1333 65.1259 56.56C64.4193 56.9733 63.5926 57.18 62.6459 57.18C61.6726 57.18 60.7859 56.94 59.9859 56.46C59.1993 55.98 58.5793 55.3067 58.1259 54.44C57.6726 53.5733 57.4459 52.5867 57.4459 51.48ZM81.0816 46.04L74.4816 62.16H72.6016L74.7616 56.88L70.3416 46.04H72.3616L75.8016 54.92L79.2016 46.04H81.0816ZM90.4631 47.54V54C90.4631 54.5333 90.5765 54.9133 90.8031 55.14C91.0298 55.3533 91.4231 55.46 91.9831 55.46H93.3231V57H91.6831C90.6698 57 89.9098 56.7667 89.4031 56.3C88.8965 55.8333 88.6431 55.0667 88.6431 54V47.54H87.2231V46.04H88.6431V43.28H90.4631V46.04H93.3231V47.54H90.4631ZM100.308 57.18C99.2816 57.18 98.3483 56.9467 97.5083 56.48C96.6816 56.0133 96.0283 55.3533 95.5483 54.5C95.0816 53.6333 94.8483 52.6333 94.8483 51.5C94.8483 50.38 95.0883 49.3933 95.5683 48.54C96.0616 47.6733 96.7283 47.0133 97.5683 46.56C98.4083 46.0933 99.3483 45.86 100.388 45.86C101.428 45.86 102.368 46.0933 103.208 46.56C104.048 47.0133 104.708 47.6667 105.188 48.52C105.682 49.3733 105.928 50.3667 105.928 51.5C105.928 52.6333 105.675 53.6333 105.168 54.5C104.675 55.3533 104.002 56.0133 103.148 56.48C102.295 56.9467 101.348 57.18 100.308 57.18ZM112.973 51.5C112.973 50.3667 113.2 49.38 113.653 48.54C114.107 47.6867 114.733 47.0267 115.533 46.56C116.347 46.0933 117.273 45.86 118.313 45.86C119.66 45.86 120.767 46.1867 121.633 46.84C122.513 47.4933 123.093 48.4 123.373 49.56H121.413C121.227 48.8933 120.86 48.3667 120.313 47.98C119.78 47.5933 119.113 47.4 118.313 47.4C117.273 47.4 116.433 47.76 115.793 48.48C115.153 49.1867 114.833 50.1933 114.833 51.5C114.833 52.82 115.153 53.84 115.793 54.56C116.433 55.28 117.273 55.64 118.313 55.64C119.113 55.64 119.78 55.4533 120.313 55.08C120.847 54.7067 121.213 54.1733 121.413 53.48H123.373C123.08 54.6 122.493 55.5 121.613 56.18C120.733 56.8467 119.633 57.18 118.313 57.18C117.273 57.18 116.347 56.9467 115.533 56.48C114.733 56.0133 114.107 55.3533 113.653 54.5C113.2 53.6467 112.973 52.6467 112.973 51.5ZM127.622 47.82C127.942 47.1933 128.395 46.7067 128.982 46.36C129.582 46.0133 130.308 45.84 131.162 45.84V47.72H130.682C128.642 47.72 127.622 48.8267 127.622 51.04V57H125.802V46.04H127.622V47.82ZM143.263 51.1C143.263 51.4467 143.243 51.8133 143.203 52.2H134.443C134.509 53.28 134.876 54.1267 135.543 54.74C136.223 55.34 137.043 55.64 138.003 55.64C138.789 55.64 139.443 55.46 139.963 55.1C140.496 54.7267 140.869 54.2333 141.083 53.62H143.043C142.749 54.6733 142.163 55.5333 141.283 56.2C140.403 56.8533 139.309 57.18 138.003 57.18C136.963 57.18 136.029 56.9467 135.203 56.48C134.389 56.0133 133.749 55.3533 133.283 54.5C132.816 53.6333 132.583 52.6333 132.583 51.5C132.583 50.3667 132.809 49.3733 133.263 48.52C133.716 47.6667 134.349 47.0133 135.163 46.56C135.989 46.0933 136.936 45.86 138.003 45.86C139.043 45.86 139.963 46.0867 140.763 46.54C141.563 46.9933 142.176 47.62 142.603 48.42C143.043 49.2067 143.263 50.1 143.263 51.1ZM144.985 51.48C144.985 50.36 145.212 49.38 145.665 48.54C146.118 47.6867 146.738 47.0267 147.525 46.56C148.325 46.0933 149.212 45.86 150.185 45.86C151.145 45.86 151.978 46.0667 152.685 46.48C153.392 46.8933 153.918 47.4133 154.265 48.04V46.04H156.105V57H154.265V54.96C153.905 55.6 153.365 56.1333 152.645 56.56C151.938 56.9733 151.112 57.18 150.165 57.18C149.192 57.18 148.312 56.94 147.525 56.46C146.738 55.98 146.118 55.3067 145.665 54.44C145.212 53.5733 144.985 52.5867 144.985 51.48ZM161.401 47.54V54C161.401 54.5333 161.514 54.9133 161.741 55.14C161.967 55.3533 162.361 55.46 162.921 55.46H164.261V57H162.621C161.607 57 160.847 56.7667 160.341 56.3C159.834 55.8333 159.581 55.0667 159.581 54V47.54H158.161V46.04H159.581V43.28H161.401V46.04H164.261V47.54H161.401ZM176.466 51.1C176.466 51.4467 176.446 51.8133 176.406 52.2H167.646C167.712 53.28 168.079 54.1267 168.746 54.74C169.426 55.34 170.246 55.64 171.206 55.64C171.992 55.64 172.646 55.46 173.166 55.1C173.699 54.7267 174.072 54.2333 174.286 53.62H176.246C175.952 54.6733 175.366 55.5333 174.486 56.2C173.606 56.8533 172.512 57.18 171.206 57.18C170.166 57.18 169.232 56.9467 168.406 56.48C167.592 56.0133 166.952 55.3533 166.486 54.5C166.019 53.6333 165.786 52.6333 165.786 51.5C165.786 50.3667 166.012 49.3733 166.466 48.52C166.919 47.6667 167.552 47.0133 168.366 46.56C169.192 46.0933 170.139 45.86 171.206 45.86C172.246 45.86 173.166 46.0867 173.966 46.54C174.766 46.9933 175.379 47.62 175.806 48.42C176.246 49.2067 176.466 50.1 176.466 51.1ZM188.08 57.18C187.24 57.18 186.487 57.04 185.82 56.76C185.153 56.4667 184.627 56.0667 184.24 55.56C183.853 55.04 183.64 54.4467 183.6 53.78H185.48C185.533 54.3267 185.787 54.7733 186.24 55.12C186.707 55.4667 187.313 55.64 188.06 55.64C188.753 55.64 189.3 55.4867 189.7 55.18C190.1 54.8733 190.3 54.4867 190.3 54.02C190.3 53.54 190.087 53.1867 189.66 52.96C189.233 52.72 188.573 52.4867 187.68 52.26C186.867 52.0467 186.2 51.8333 185.68 51.62C185.173 51.3933 184.733 51.0667 184.36 50.64C184 50.2 183.82 49.6267 183.82 48.92C183.82 48.36 183.987 47.8467 184.32 47.38C184.653 46.9133 185.127 46.5467 185.74 46.28C186.353 46 187.053 45.86 187.84 45.86C189.053 45.86 190.033 46.1667 190.78 46.78C191.527 47.3933 191.927 48.2333 191.98 49.3H190.16C190.12 48.7267 189.887 48.2667 189.46 47.92C189.047 47.5733 188.487 47.4 187.78 47.4C187.127 47.4 186.607 47.54 186.22 47.82C185.833 48.1 185.64 48.4667 185.64 48.92C185.64 49.28 185.753 49.58 185.98 49.82C186.22 50.0467 186.513 50.2333 186.86 50.38C187.22 50.5133 187.713 50.6667 188.34 50.84C189.127 51.0533 189.767 51.2667 190.26 51.48C190.753 51.68 191.173 51.9867 191.52 52.4C191.88 52.8133 192.067 53.3533 192.08 54.02C192.08 54.62 191.913 55.16 191.58 55.64C191.247 56.12 190.773 56.5 190.16 56.78C189.56 57.0467 188.867 57.18 188.08 57.18ZM199.429 57.18C198.403 57.18 197.469 56.9467 196.629 56.48C195.803 56.0133 195.149 55.3533 194.669 54.5C194.203 53.6333 193.969 52.6333 193.969 51.5C193.969 50.38 194.209 49.3933 194.689 48.54C195.183 47.6733 195.849 47.0133 196.689 46.56C197.529 46.0933 198.469 45.86 199.509 45.86C200.549 45.86 201.489 46.0933 202.329 46.56C203.169 47.0133 203.829 47.6667 204.309 48.52C204.803 49.3733 205.049 50.3667 205.049 51.5C205.049 52.6333 204.796 53.6333 204.289 54.5C203.796 55.3533 203.123 56.0133 202.269 56.48C201.416 56.9467 200.469 57.18 199.429 57.18ZM220.622 45.84C221.476 45.84 222.236 46.02 222.902 46.38C223.569 46.7267 224.096 47.2533 224.482 47.96C224.869 48.6667 225.062 49.5267 225.062 50.54V57H223.262V50.8C223.262 49.7067 222.989 48.8733 222.442 48.3C221.909 47.7133 221.182 47.42 220.262 47.42C219.316 47.42 218.562 47.7267 218.002 48.34C217.442 48.94 217.162 49.8133 217.162 50.96V57H215.362V50.8C215.362 49.7067 215.089 48.8733 214.542 48.3C214.009 47.7133 213.282 47.42 212.362 47.42C211.416 47.42 210.662 47.7267 210.102 48.34C209.542 48.94 209.262 49.8133 209.262 50.96V57H207.442V46.04H209.262V47.62C209.622 47.0467 210.102 46.6067 210.702 46.3C211.316 45.9933 211.989 45.84 212.722 45.84C213.642 45.84 214.456 46.0467 215.162 46.46C215.869 46.8733 216.396 47.48 216.742 48.28C217.049 47.5067 217.556 46.9067 218.262 46.48C218.969 46.0533 219.756 45.84 220.622 45.84ZM238.048 51.1C238.048 51.4467 238.028 51.8133 237.988 52.2H229.228C229.294 53.28 229.661 54.1267 230.328 54.74C231.008 55.34 231.828 55.64 232.788 55.64C233.574 55.64 234.228 55.46 234.748 55.1C235.281 54.7267 235.654 54.2333 235.868 53.62H237.828C237.534 54.6733 236.948 55.5333 236.068 56.2C235.188 56.8533 234.094 57.18 232.788 57.18C231.748 57.18 230.814 56.9467 229.988 56.48C229.174 56.0133 228.534 55.3533 228.068 54.5C227.601 53.6333 227.368 52.6333 227.368 51.5C227.368 50.3667 227.594 49.3733 228.048 48.52C228.501 47.6667 229.134 47.0133 229.948 46.56C230.774 46.0933 231.721 45.86 232.788 45.86C233.828 45.86 234.748 46.0867 235.548 46.54C236.348 46.9933 236.961 47.62 237.388 48.42C237.828 49.2067 238.048 50.1 238.048 51.1ZM242.67 47.54V54C242.67 54.5333 242.783 54.9133 243.01 55.14C243.237 55.3533 243.63 55.46 244.19 55.46H245.53V57H243.89C242.877 57 242.117 56.7667 241.61 56.3C241.103 55.8333 240.85 55.0667 240.85 54V47.54H239.43V46.04H240.85V43.28H242.67V46.04H245.53V47.54H242.67ZM253.175 45.84C254.002 45.84 254.749 46.02 255.415 46.38C256.082 46.7267 256.602 47.2533 256.975 47.96C257.362 48.6667 257.555 49.5267 257.555 50.54V57H255.755V50.8C255.755 49.7067 255.482 48.8733 254.935 48.3C254.389 47.7133 253.642 47.42 252.695 47.42C251.735 47.42 250.969 47.72 250.395 48.32C249.835 48.92 249.555 49.7933 249.555 50.94V57H247.735V42.2H249.555V47.6C249.915 47.04 250.409 46.6067 251.035 46.3C251.675 45.9933 252.389 45.84 253.175 45.84ZM261.468 44.26C261.122 44.26 260.828 44.14 260.588 43.9C260.348 43.66 260.228 43.3667 260.228 43.02C260.228 42.6733 260.348 42.38 260.588 42.14C260.828 41.9 261.122 41.78 261.468 41.78C261.802 41.78 262.082 41.9 262.308 42.14C262.548 42.38 262.668 42.6733 262.668 43.02C262.668 43.3667 262.548 43.66 262.308 43.9C262.082 44.14 261.802 44.26 261.468 44.26ZM262.348 46.04V57H260.528V46.04H262.348ZM270.79 45.84C272.124 45.84 273.203 46.2467 274.03 47.06C274.857 47.86 275.27 49.02 275.27 50.54V57H273.47V50.8C273.47 49.7067 273.197 48.8733 272.65 48.3C272.103 47.7133 271.357 47.42 270.41 47.42C269.45 47.42 268.684 47.72 268.11 48.32C267.55 48.92 267.27 49.7933 267.27 50.94V57H265.45V46.04H267.27V47.6C267.63 47.04 268.117 46.6067 268.73 46.3C269.357 45.9933 270.043 45.84 270.79 45.84ZM282.763 45.86C283.71 45.86 284.536 46.0667 285.243 46.48C285.963 46.8933 286.496 47.4133 286.843 48.04V46.04H288.683V57.24C288.683 58.24 288.47 59.1267 288.043 59.9C287.616 60.6867 287.003 61.3 286.203 61.74C285.416 62.18 284.496 62.4 283.443 62.4C282.003 62.4 280.803 62.06 279.843 61.38C278.883 60.7 278.316 59.7733 278.143 58.6H279.943C280.143 59.2667 280.556 59.8 281.183 60.2C281.81 60.6133 282.563 60.82 283.443 60.82C284.443 60.82 285.256 60.5067 285.883 59.88C286.523 59.2533 286.843 58.3733 286.843 57.24V54.94C286.483 55.58 285.95 56.1133 285.243 56.54C284.536 56.9667 283.71 57.18 282.763 57.18C281.79 57.18 280.903 56.94 280.103 56.46C279.316 55.98 278.696 55.3067 278.243 54.44C277.79 53.5733 277.563 52.5867 277.563 51.48C277.563 50.36 277.79 49.38 278.243 48.54C278.696 47.6867 279.316 47.0267 280.103 46.56C280.903 46.0933 281.79 45.86 282.763 45.86ZM64.62 216.54V215.06H55.18V216.54H59V229H60.82V216.54H64.62ZM68.8403 228.48C69.6803 228.947 70.6136 229.18 71.6403 229.18C72.6803 229.18 73.627 228.947 74.4803 228.48C75.3336 228.013 76.007 227.353 76.5003 226.5C77.007 225.633 77.2603 224.633 77.2603 223.5C77.2603 222.367 77.0136 221.373 76.5203 220.52C76.0403 219.667 75.3803 219.013 74.5403 218.56C73.7003 218.093 72.7603 217.86 71.7203 217.86C70.6803 217.86 69.7403 218.093 68.9003 218.56C68.0603 219.013 67.3936 219.673 66.9003 220.54C66.4203 221.393 66.1803 222.38 66.1803 223.5C66.1803 224.633 66.4136 225.633 66.8803 226.5C67.3603 227.353 68.0136 228.013 68.8403 228.48ZM86.6533 218.48C85.9466 218.067 85.1199 217.86 84.1733 217.86C83.2 217.86 82.3133 218.093 81.5133 218.56C80.7266 219.027 80.1066 219.687 79.6533 220.54C79.2 221.38 78.9733 222.36 78.9733 223.48C78.9733 224.587 79.2 225.573 79.6533 226.44C80.1066 227.307 80.7266 227.98 81.5133 228.46C82.3133 228.94 83.2 229.18 84.1733 229.18C85.1199 229.18 85.9466 228.967 86.6533 228.54C87.3599 228.113 87.8933 227.58 88.2533 226.94V229.24C88.2533 230.373 87.9333 231.253 87.2933 231.88C86.6666 232.507 85.8533 232.82 84.8533 232.82C83.9733 232.82 83.2199 232.613 82.5933 232.2C81.9666 231.8 81.5533 231.267 81.3533 230.6H79.5533C79.7266 231.773 80.2933 232.7 81.2533 233.38C82.2133 234.06 83.4133 234.4 84.8533 234.4C85.9066 234.4 86.8266 234.18 87.6133 233.74C88.4133 233.3 89.0266 232.687 89.4533 231.9C89.88 231.127 90.0933 230.24 90.0933 229.24V218.04H88.2533V220.04C87.9066 219.413 87.3733 218.893 86.6533 218.48ZM103.109 224.2C103.149 223.813 103.169 223.447 103.169 223.1C103.169 222.1 102.949 221.207 102.509 220.42C102.082 219.62 101.469 218.993 100.669 218.54C99.8689 218.087 98.9489 217.86 97.9089 217.86C96.8422 217.86 95.8956 218.093 95.0689 218.56C94.2556 219.013 93.6222 219.667 93.1689 220.52C92.7156 221.373 92.4889 222.367 92.4889 223.5C92.4889 224.633 92.7222 225.633 93.1889 226.5C93.6556 227.353 94.2956 228.013 95.1089 228.48C95.9356 228.947 96.8689 229.18 97.9089 229.18C99.2156 229.18 100.309 228.853 101.189 228.2C102.069 227.533 102.656 226.673 102.949 225.62H100.989C100.776 226.233 100.402 226.727 99.8689 227.1C99.3489 227.46 98.6956 227.64 97.9089 227.64C96.9489 227.64 96.1289 227.34 95.4489 226.74C94.7822 226.127 94.4156 225.28 94.3489 224.2H103.109ZM107.791 226V219.54H110.651V218.04H107.791V215.28H105.971V218.04H104.551V219.54H105.971V226C105.971 227.067 106.225 227.833 106.731 228.3C107.238 228.767 107.998 229 109.011 229H110.651V227.46H109.311C108.751 227.46 108.358 227.353 108.131 227.14C107.905 226.913 107.791 226.533 107.791 226ZM120.536 218.38C119.87 218.02 119.123 217.84 118.296 217.84C117.51 217.84 116.796 217.993 116.156 218.3C115.53 218.607 115.036 219.04 114.676 219.6V214.2H112.856V229H114.676V222.94C114.676 221.793 114.956 220.92 115.516 220.32C116.09 219.72 116.856 219.42 117.816 219.42C118.763 219.42 119.51 219.713 120.056 220.3C120.603 220.873 120.876 221.707 120.876 222.8V229H122.676V222.54C122.676 221.527 122.483 220.667 122.096 219.96C121.723 219.253 121.203 218.727 120.536 218.38ZM135.589 224.2C135.629 223.813 135.649 223.447 135.649 223.1C135.649 222.1 135.429 221.207 134.989 220.42C134.563 219.62 133.949 218.993 133.149 218.54C132.349 218.087 131.429 217.86 130.389 217.86C129.323 217.86 128.376 218.093 127.549 218.56C126.736 219.013 126.103 219.667 125.649 220.52C125.196 221.373 124.969 222.367 124.969 223.5C124.969 224.633 125.203 225.633 125.669 226.5C126.136 227.353 126.776 228.013 127.589 228.48C128.416 228.947 129.349 229.18 130.389 229.18C131.696 229.18 132.789 228.853 133.669 228.2C134.549 227.533 135.136 226.673 135.429 225.62H133.469C133.256 226.233 132.883 226.727 132.349 227.1C131.829 227.46 131.176 227.64 130.389 227.64C129.429 227.64 128.609 227.34 127.929 226.74C127.263 226.127 126.896 225.28 126.829 224.2H135.589ZM141.232 218.36C140.645 218.707 140.192 219.193 139.872 219.82V218.04H138.052V229H139.872V223.04C139.872 220.827 140.892 219.72 142.932 219.72H143.412V217.84C142.558 217.84 141.832 218.013 141.232 218.36ZM152.273 216C151.459 215.253 150.393 214.88 149.073 214.88C148.206 214.88 147.439 215.047 146.773 215.38C146.119 215.713 145.613 216.187 145.253 216.8C144.893 217.4 144.713 218.1 144.713 218.9H146.433C146.433 218.127 146.666 217.52 147.133 217.08C147.613 216.627 148.266 216.4 149.093 216.4C149.906 216.4 150.553 216.633 151.033 217.1C151.513 217.567 151.753 218.2 151.753 219C151.753 220.107 151.379 220.86 150.633 221.26C149.886 221.66 148.853 221.86 147.533 221.86H146.953L147.033 225.02H148.613L148.673 223.12C150.153 223.12 151.326 222.787 152.193 222.12C153.059 221.44 153.493 220.4 153.493 219C153.493 217.747 153.086 216.747 152.273 216ZM146.933 228.76C147.173 229 147.466 229.12 147.813 229.12C148.146 229.12 148.426 229 148.653 228.76C148.893 228.52 149.013 228.227 149.013 227.88C149.013 227.533 148.893 227.24 148.653 227C148.426 226.76 148.146 226.64 147.813 226.64C147.466 226.64 147.173 226.76 146.933 227C146.693 227.24 146.573 227.533 146.573 227.88C146.573 228.227 146.693 228.52 146.933 228.76Z" fill="url(#paint33_linear_844_637)"/>
<path d="M370 123.85H317.452C315.852 120.35 313.552 117.65 310.552 115.75C307.652 113.75 304.302 112.75 300.502 112.75C294.902 112.75 290.452 114.85 287.152 119.05C283.952 123.25 282.352 128.9 282.352 136C282.352 143.1 283.952 148.75 287.152 152.95C290.452 157.15 294.902 159.25 300.502 159.25C304.302 159.25 307.652 158.3 310.552 156.4C313.552 154.4 315.852 151.65 317.452 148.15L370 150.327V123.85Z" fill="url(#paint34_linear_844_637)"/>
<path d="M370 123.85H317.452C315.852 120.35 313.552 117.65 310.552 115.75C307.652 113.75 304.302 112.75 300.502 112.75C294.902 112.75 290.452 114.85 287.152 119.05C283.952 123.25 282.352 128.9 282.352 136C282.352 143.1 283.952 148.75 287.152 152.95C290.452 157.15 294.902 159.25 300.502 159.25C304.302 159.25 307.652 158.3 310.552 156.4C313.552 154.4 315.852 151.65 317.452 148.15L370 150.327V123.85Z" fill="url(#paint35_linear_844_637)"/>
<defs>
<linearGradient id="paint0_linear_844_637" x1="19" y1="232" x2="332.5" y2="65.5001" gradientUnits="userSpaceOnUse">
<stop stop-color="#B36CFE"/>
<stop offset="0.396393" stop-color="#8372FC"/>
<stop offset="0.597427" stop-color="#6A75FB"/>
<stop offset="0.842172" stop-color="#DAD1FF"/>
<stop offset="1" stop-color="#96FFB6"/>
</linearGradient>
<linearGradient id="paint1_linear_844_637" x1="37.5" y1="247.5" x2="335.5" y2="31.5" gradientUnits="userSpaceOnUse">
<stop stop-color="#BF82FF"/>
<stop offset="0.288364" stop-color="#8372FC"/>
<stop offset="0.746608" stop-color="#6A75FB"/>
<stop offset="0.897516" stop-color="#B9B3D2"/>
<stop offset="0.974095" stop-color="#8BE2D7"/>
</linearGradient>
<linearGradient id="paint2_linear_844_637" x1="19" y1="232" x2="332.5" y2="65.5001" gradientUnits="userSpaceOnUse">
<stop stop-color="#B36CFE"/>
<stop offset="0.396393" stop-color="#8372FC"/>
<stop offset="0.597427" stop-color="#6A75FB"/>
<stop offset="0.842172" stop-color="#DAD1FF"/>
<stop offset="1" stop-color="#96FFB6"/>
</linearGradient>
<linearGradient id="paint3_linear_844_637" x1="37.5" y1="247.5" x2="335.5" y2="31.5" gradientUnits="userSpaceOnUse">
<stop stop-color="#BF82FF"/>
<stop offset="0.288364" stop-color="#8372FC"/>
<stop offset="0.746608" stop-color="#6A75FB"/>
<stop offset="0.897516" stop-color="#B9B3D2"/>
<stop offset="0.974095" stop-color="#8BE2D7"/>
</linearGradient>
<linearGradient id="paint4_linear_844_637" x1="19" y1="232" x2="332.5" y2="65.5001" gradientUnits="userSpaceOnUse">
<stop stop-color="#B36CFE"/>
<stop offset="0.396393" stop-color="#8372FC"/>
<stop offset="0.597427" stop-color="#6A75FB"/>
<stop offset="0.842172" stop-color="#DAD1FF"/>
<stop offset="1" stop-color="#96FFB6"/>
</linearGradient>
<linearGradient id="paint5_linear_844_637" x1="37.5" y1="247.5" x2="335.5" y2="31.5" gradientUnits="userSpaceOnUse">
<stop stop-color="#BF82FF"/>
<stop offset="0.288364" stop-color="#8372FC"/>
<stop offset="0.746608" stop-color="#6A75FB"/>
<stop offset="0.897516" stop-color="#B9B3D2"/>
<stop offset="0.974095" stop-color="#8BE2D7"/>
</linearGradient>
<linearGradient id="paint6_linear_844_637" x1="19" y1="232" x2="332.5" y2="65.5001" gradientUnits="userSpaceOnUse">
<stop stop-color="#B36CFE"/>
<stop offset="0.396393" stop-color="#8372FC"/>
<stop offset="0.597427" stop-color="#6A75FB"/>
<stop offset="0.842172" stop-color="#DAD1FF"/>
<stop offset="1" stop-color="#96FFB6"/>
</linearGradient>
<linearGradient id="paint7_linear_844_637" x1="37.5" y1="247.5" x2="335.5" y2="31.5" gradientUnits="userSpaceOnUse">
<stop stop-color="#BF82FF"/>
<stop offset="0.288364" stop-color="#8372FC"/>
<stop offset="0.746608" stop-color="#6A75FB"/>
<stop offset="0.897516" stop-color="#B9B3D2"/>
<stop offset="0.974095" stop-color="#8BE2D7"/>
</linearGradient>
<linearGradient id="paint8_linear_844_637" x1="19" y1="232" x2="332.5" y2="65.5001" gradientUnits="userSpaceOnUse">
<stop stop-color="#B36CFE"/>
<stop offset="0.396393" stop-color="#8372FC"/>
<stop offset="0.597427" stop-color="#6A75FB"/>
<stop offset="0.842172" stop-color="#DAD1FF"/>
<stop offset="1" stop-color="#96FFB6"/>
</linearGradient>
<linearGradient id="paint9_linear_844_637" x1="37.5" y1="247.5" x2="335.5" y2="31.5" gradientUnits="userSpaceOnUse">
<stop stop-color="#BF82FF"/>
<stop offset="0.288364" stop-color="#8372FC"/>
<stop offset="0.746608" stop-color="#6A75FB"/>
<stop offset="0.897516" stop-color="#B9B3D2"/>
<stop offset="0.974095" stop-color="#8BE2D7"/>
</linearGradient>
<linearGradient id="paint10_linear_844_637" x1="19" y1="232" x2="332.5" y2="65.5001" gradientUnits="userSpaceOnUse">
<stop stop-color="#B36CFE"/>
<stop offset="0.396393" stop-color="#8372FC"/>
<stop offset="0.597427" stop-color="#6A75FB"/>
<stop offset="0.842172" stop-color="#DAD1FF"/>
<stop offset="1" stop-color="#96FFB6"/>
</linearGradient>
<linearGradient id="paint11_linear_844_637" x1="37.5" y1="247.5" x2="335.5" y2="31.5" gradientUnits="userSpaceOnUse">
<stop stop-color="#BF82FF"/>
<stop offset="0.288364" stop-color="#8372FC"/>
<stop offset="0.746608" stop-color="#6A75FB"/>
<stop offset="0.897516" stop-color="#B9B3D2"/>
<stop offset="0.974095" stop-color="#8BE2D7"/>
</linearGradient>
<linearGradient id="paint12_linear_844_637" x1="19" y1="232" x2="332.5" y2="65.5001" gradientUnits="userSpaceOnUse">
<stop stop-color="#B36CFE"/>
<stop offset="0.396393" stop-color="#8372FC"/>
<stop offset="0.597427" stop-color="#6A75FB"/>
<stop offset="0.842172" stop-color="#DAD1FF"/>
<stop offset="1" stop-color="#96FFB6"/>
</linearGradient>
<linearGradient id="paint13_linear_844_637" x1="37.5" y1="247.5" x2="335.5" y2="31.5" gradientUnits="userSpaceOnUse">
<stop stop-color="#BF82FF"/>
<stop offset="0.288364" stop-color="#8372FC"/>
<stop offset="0.746608" stop-color="#6A75FB"/>
<stop offset="0.897516" stop-color="#B9B3D2"/>
<stop offset="0.974095" stop-color="#8BE2D7"/>
</linearGradient>
<linearGradient id="paint14_linear_844_637" x1="19" y1="232" x2="332.5" y2="65.5001" gradientUnits="userSpaceOnUse">
<stop stop-color="#B36CFE"/>
<stop offset="0.396393" stop-color="#8372FC"/>
<stop offset="0.597427" stop-color="#6A75FB"/>
<stop offset="0.842172" stop-color="#DAD1FF"/>
<stop offset="1" stop-color="#96FFB6"/>
</linearGradient>
<linearGradient id="paint15_linear_844_637" x1="37.5" y1="247.5" x2="335.5" y2="31.5" gradientUnits="userSpaceOnUse">
<stop stop-color="#BF82FF"/>
<stop offset="0.288364" stop-color="#8372FC"/>
<stop offset="0.746608" stop-color="#6A75FB"/>
<stop offset="0.897516" stop-color="#B9B3D2"/>
<stop offset="0.974095" stop-color="#8BE2D7"/>
</linearGradient>
<linearGradient id="paint16_linear_844_637" x1="19" y1="232" x2="332.5" y2="65.5001" gradientUnits="userSpaceOnUse">
<stop stop-color="#B36CFE"/>
<stop offset="0.396393" stop-color="#8372FC"/>
<stop offset="0.597427" stop-color="#6A75FB"/>
<stop offset="0.842172" stop-color="#DAD1FF"/>
<stop offset="1" stop-color="#96FFB6"/>
</linearGradient>
<linearGradient id="paint17_linear_844_637" x1="37.5" y1="247.5" x2="335.5" y2="31.5" gradientUnits="userSpaceOnUse">
<stop stop-color="#BF82FF"/>
<stop offset="0.288364" stop-color="#8372FC"/>
<stop offset="0.746608" stop-color="#6A75FB"/>
<stop offset="0.897516" stop-color="#B9B3D2"/>
<stop offset="0.974095" stop-color="#8BE2D7"/>
</linearGradient>
<linearGradient id="paint18_linear_844_637" x1="19" y1="232" x2="332.5" y2="65.5001" gradientUnits="userSpaceOnUse">
<stop stop-color="#B36CFE"/>
<stop offset="0.396393" stop-color="#8372FC"/>
<stop offset="0.597427" stop-color="#6A75FB"/>
<stop offset="0.842172" stop-color="#DAD1FF"/>
<stop offset="1" stop-color="#96FFB6"/>
</linearGradient>
<linearGradient id="paint19_linear_844_637" x1="37.5" y1="247.5" x2="335.5" y2="31.5" gradientUnits="userSpaceOnUse">
<stop stop-color="#BF82FF"/>
<stop offset="0.288364" stop-color="#8372FC"/>
<stop offset="0.746608" stop-color="#6A75FB"/>
<stop offset="0.897516" stop-color="#B9B3D2"/>
<stop offset="0.974095" stop-color="#8BE2D7"/>
</linearGradient>
<linearGradient id="paint20_linear_844_637" x1="19" y1="232" x2="332.5" y2="65.5001" gradientUnits="userSpaceOnUse">
<stop stop-color="#B36CFE"/>
<stop offset="0.396393" stop-color="#8372FC"/>
<stop offset="0.597427" stop-color="#6A75FB"/>
<stop offset="0.842172" stop-color="#DAD1FF"/>
<stop offset="1" stop-color="#96FFB6"/>
</linearGradient>
<linearGradient id="paint21_linear_844_637" x1="37.5" y1="247.5" x2="335.5" y2="31.5" gradientUnits="userSpaceOnUse">
<stop stop-color="#BF82FF"/>
<stop offset="0.288364" stop-color="#8372FC"/>
<stop offset="0.746608" stop-color="#6A75FB"/>
<stop offset="0.897516" stop-color="#B9B3D2"/>
<stop offset="0.974095" stop-color="#8BE2D7"/>
</linearGradient>
<linearGradient id="paint22_linear_844_637" x1="19" y1="232" x2="332.5" y2="65.5001" gradientUnits="userSpaceOnUse">
<stop stop-color="#B36CFE"/>
<stop offset="0.396393" stop-color="#8372FC"/>
<stop offset="0.597427" stop-color="#6A75FB"/>
<stop offset="0.842172" stop-color="#DAD1FF"/>
<stop offset="1" stop-color="#96FFB6"/>
</linearGradient>
<linearGradient id="paint23_linear_844_637" x1="37.5" y1="247.5" x2="335.5" y2="31.5" gradientUnits="userSpaceOnUse">
<stop stop-color="#BF82FF"/>
<stop offset="0.288364" stop-color="#8372FC"/>
<stop offset="0.746608" stop-color="#6A75FB"/>
<stop offset="0.897516" stop-color="#B9B3D2"/>
<stop offset="0.974095" stop-color="#8BE2D7"/>
</linearGradient>
<linearGradient id="paint24_linear_844_637" x1="19" y1="232" x2="332.5" y2="65.5001" gradientUnits="userSpaceOnUse">
<stop stop-color="#B36CFE"/>
<stop offset="0.396393" stop-color="#8372FC"/>
<stop offset="0.597427" stop-color="#6A75FB"/>
<stop offset="0.842172" stop-color="#DAD1FF"/>
<stop offset="1" stop-color="#96FFB6"/>
</linearGradient>
<linearGradient id="paint25_linear_844_637" x1="37.5" y1="247.5" x2="335.5" y2="31.5" gradientUnits="userSpaceOnUse">
<stop stop-color="#BF82FF"/>
<stop offset="0.288364" stop-color="#8372FC"/>
<stop offset="0.746608" stop-color="#6A75FB"/>
<stop offset="0.897516" stop-color="#B9B3D2"/>
<stop offset="0.974095" stop-color="#8BE2D7"/>
</linearGradient>
<linearGradient id="paint26_linear_844_637" x1="19" y1="232" x2="332.5" y2="65.5001" gradientUnits="userSpaceOnUse">
<stop stop-color="#B36CFE"/>
<stop offset="0.396393" stop-color="#8372FC"/>
<stop offset="0.597427" stop-color="#6A75FB"/>
<stop offset="0.842172" stop-color="#DAD1FF"/>
<stop offset="1" stop-color="#96FFB6"/>
</linearGradient>
<linearGradient id="paint27_linear_844_637" x1="37.5" y1="247.5" x2="335.5" y2="31.5" gradientUnits="userSpaceOnUse">
<stop stop-color="#BF82FF"/>
<stop offset="0.288364" stop-color="#8372FC"/>
<stop offset="0.746608" stop-color="#6A75FB"/>
<stop offset="0.897516" stop-color="#B9B3D2"/>
<stop offset="0.974095" stop-color="#8BE2D7"/>
</linearGradient>
<linearGradient id="paint28_linear_844_637" x1="19" y1="232" x2="332.5" y2="65.5001" gradientUnits="userSpaceOnUse">
<stop stop-color="#B36CFE"/>
<stop offset="0.396393" stop-color="#8372FC"/>
<stop offset="0.597427" stop-color="#6A75FB"/>
<stop offset="0.842172" stop-color="#DAD1FF"/>
<stop offset="1" stop-color="#96FFB6"/>
</linearGradient>
<linearGradient id="paint29_linear_844_637" x1="37.5" y1="247.5" x2="335.5" y2="31.5" gradientUnits="userSpaceOnUse">
<stop stop-color="#BF82FF"/>
<stop offset="0.288364" stop-color="#8372FC"/>
<stop offset="0.746608" stop-color="#6A75FB"/>
<stop offset="0.897516" stop-color="#B9B3D2"/>
<stop offset="0.974095" stop-color="#8BE2D7"/>
</linearGradient>
<linearGradient id="paint30_linear_844_637" x1="19" y1="232" x2="332.5" y2="65.5001" gradientUnits="userSpaceOnUse">
<stop stop-color="#B36CFE"/>
<stop offset="0.396393" stop-color="#8372FC"/>
<stop offset="0.597427" stop-color="#6A75FB"/>
<stop offset="0.842172" stop-color="#DAD1FF"/>
<stop offset="1" stop-color="#96FFB6"/>
</linearGradient>
<linearGradient id="paint31_linear_844_637" x1="37.5" y1="247.5" x2="335.5" y2="31.5" gradientUnits="userSpaceOnUse">
<stop stop-color="#BF82FF"/>
<stop offset="0.288364" stop-color="#8372FC"/>
<stop offset="0.746608" stop-color="#6A75FB"/>
<stop offset="0.897516" stop-color="#B9B3D2"/>
<stop offset="0.974095" stop-color="#8BE2D7"/>
</linearGradient>
<linearGradient id="paint32_linear_844_637" x1="19" y1="232" x2="332.5" y2="65.5001" gradientUnits="userSpaceOnUse">
<stop stop-color="#B36CFE"/>
<stop offset="0.396393" stop-color="#8372FC"/>
<stop offset="0.597427" stop-color="#6A75FB"/>
<stop offset="0.842172" stop-color="#DAD1FF"/>
<stop offset="1" stop-color="#96FFB6"/>
</linearGradient>
<linearGradient id="paint33_linear_844_637" x1="37.5" y1="247.5" x2="335.5" y2="31.5" gradientUnits="userSpaceOnUse">
<stop stop-color="#BF82FF"/>
<stop offset="0.288364" stop-color="#8372FC"/>
<stop offset="0.746608" stop-color="#6A75FB"/>
<stop offset="0.897516" stop-color="#B9B3D2"/>
<stop offset="0.974095" stop-color="#8BE2D7"/>
</linearGradient>
<linearGradient id="paint34_linear_844_637" x1="19" y1="232" x2="332.5" y2="65.5001" gradientUnits="userSpaceOnUse">
<stop stop-color="#B36CFE"/>
<stop offset="0.396393" stop-color="#8372FC"/>
<stop offset="0.597427" stop-color="#6A75FB"/>
<stop offset="0.842172" stop-color="#DAD1FF"/>
<stop offset="1" stop-color="#96FFB6"/>
</linearGradient>
<linearGradient id="paint35_linear_844_637" x1="37.5" y1="247.5" x2="335.5" y2="31.5" gradientUnits="userSpaceOnUse">
<stop stop-color="#BF82FF"/>
<stop offset="0.288364" stop-color="#8372FC"/>
<stop offset="0.746608" stop-color="#6A75FB"/>
<stop offset="0.897516" stop-color="#B9B3D2"/>
<stop offset="0.974095" stop-color="#8BE2D7"/>
</linearGradient>
</defs>
</svg>
