<svg width="371" height="239" viewBox="0 0 371 239" fill="none" xmlns="http://www.w3.org/2000/svg">
<path d="M156.95 102.5C156.95 109 153.5 112.25 146.6 112.25H137.15V92.7498H146.6C153.5 92.7498 156.95 95.9998 156.95 102.5Z" fill="url(#paint0_linear_1046_555)"/>
<path d="M25.86 32.84H28.54C29.5267 32.84 30.2667 32.6 30.76 32.12C31.2533 31.6267 31.5 30.9733 31.5 30.16C31.5 29.3333 31.2533 28.6933 30.76 28.24C30.28 27.7867 29.54 27.56 28.54 27.56H25.86V32.84Z" fill="url(#paint1_linear_1046_555)"/>
<path d="M44.328 33.72C44.328 33.0267 44.1746 32.4333 43.868 31.94C43.5613 31.4333 43.1413 31.0533 42.608 30.8C42.088 30.5333 41.508 30.4 40.868 30.4C39.948 30.4 39.1613 30.6933 38.508 31.28C37.868 31.8667 37.5013 32.68 37.408 33.72H44.328Z" fill="url(#paint2_linear_1046_555)"/>
<path d="M57.2103 34.5C57.2103 33.6733 57.0436 32.9533 56.7103 32.34C56.377 31.7267 55.9236 31.26 55.3503 30.94C54.7903 30.6067 54.1703 30.44 53.4903 30.44C52.8103 30.44 52.1903 30.6 51.6303 30.92C51.0703 31.24 50.6236 31.7067 50.2903 32.32C49.957 32.9333 49.7903 33.6533 49.7903 34.48C49.7903 35.32 49.957 36.0533 50.2903 36.68C50.6236 37.2933 51.0703 37.7667 51.6303 38.1C52.1903 38.42 52.8103 38.58 53.4903 38.58C54.1703 38.58 54.7903 38.42 55.3503 38.1C55.9236 37.7667 56.377 37.2933 56.7103 36.68C57.0436 36.0533 57.2103 35.3267 57.2103 34.5Z" fill="url(#paint3_linear_1046_555)"/>
<path d="M70.7259 34.5C70.7259 33.6733 70.5593 32.9533 70.2259 32.34C69.8926 31.7267 69.4393 31.26 68.8659 30.94C68.3059 30.6067 67.6859 30.44 67.0059 30.44C66.3259 30.44 65.7059 30.6 65.1459 30.92C64.5859 31.24 64.1393 31.7067 63.8059 32.32C63.4726 32.9333 63.3059 33.6533 63.3059 34.48C63.3059 35.32 63.4726 36.0533 63.8059 36.68C64.1393 37.2933 64.5859 37.7667 65.1459 38.1C65.7059 38.42 66.3259 38.58 67.0059 38.58C67.6859 38.58 68.3059 38.42 68.8659 38.1C69.4393 37.7667 69.8926 37.2933 70.2259 36.68C70.5593 36.0533 70.7259 35.3267 70.7259 34.5Z" fill="url(#paint4_linear_1046_555)"/>
<path d="M104.308 38.58C104.962 38.58 105.575 38.4267 106.148 38.12C106.722 37.8133 107.182 37.3533 107.528 36.74C107.888 36.1267 108.068 35.38 108.068 34.5C108.068 33.62 107.895 32.8733 107.548 32.26C107.202 31.6467 106.748 31.1933 106.188 30.9C105.628 30.5933 105.022 30.44 104.368 30.44C103.702 30.44 103.088 30.5933 102.528 30.9C101.982 31.1933 101.542 31.6467 101.208 32.26C100.875 32.8733 100.708 33.62 100.708 34.5C100.708 35.3933 100.868 36.1467 101.188 36.76C101.522 37.3733 101.962 37.8333 102.508 38.14C103.055 38.4333 103.655 38.58 104.308 38.58Z" fill="url(#paint5_linear_1046_555)"/>
<path d="M145.383 33.72C145.383 33.0267 145.229 32.4333 144.923 31.94C144.616 31.4333 144.196 31.0533 143.663 30.8C143.143 30.5333 142.563 30.4 141.923 30.4C141.003 30.4 140.216 30.6933 139.563 31.28C138.923 31.8667 138.556 32.68 138.463 33.72H145.383Z" fill="url(#paint6_linear_1046_555)"/>
<path d="M158.265 34.5C158.265 33.6733 158.098 32.9533 157.765 32.34C157.432 31.7267 156.978 31.26 156.405 30.94C155.845 30.6067 155.225 30.44 154.545 30.44C153.865 30.44 153.245 30.6 152.685 30.92C152.125 31.24 151.678 31.7067 151.345 32.32C151.012 32.9333 150.845 33.6533 150.845 34.48C150.845 35.32 151.012 36.0533 151.345 36.68C151.678 37.2933 152.125 37.7667 152.685 38.1C153.245 38.42 153.865 38.58 154.545 38.58C155.225 38.58 155.845 38.42 156.405 38.1C156.978 37.7667 157.432 37.2933 157.765 36.68C158.098 36.0533 158.265 35.3267 158.265 34.5Z" fill="url(#paint7_linear_1046_555)"/>
<path d="M178.586 33.72C178.586 33.0267 178.432 32.4333 178.126 31.94C177.819 31.4333 177.399 31.0533 176.866 30.8C176.346 30.5333 175.766 30.4 175.126 30.4C174.206 30.4 173.419 30.6933 172.766 31.28C172.126 31.8667 171.759 32.68 171.666 33.72H178.586Z" fill="url(#paint8_linear_1046_555)"/>
<path d="M203.429 38.58C204.083 38.58 204.696 38.4267 205.269 38.12C205.843 37.8133 206.303 37.3533 206.649 36.74C207.009 36.1267 207.189 35.38 207.189 34.5C207.189 33.62 207.016 32.8733 206.669 32.26C206.323 31.6467 205.869 31.1933 205.309 30.9C204.749 30.5933 204.143 30.44 203.489 30.44C202.823 30.44 202.209 30.5933 201.649 30.9C201.103 31.1933 200.663 31.6467 200.329 32.26C199.996 32.8733 199.829 33.62 199.829 34.5C199.829 35.3933 199.989 36.1467 200.309 36.76C200.643 37.3733 201.083 37.8333 201.629 38.14C202.176 38.4333 202.776 38.58 203.429 38.58Z" fill="url(#paint9_linear_1046_555)"/>
<path d="M240.168 33.72C240.168 33.0267 240.014 32.4333 239.708 31.94C239.401 31.4333 238.981 31.0533 238.448 30.8C237.928 30.5333 237.348 30.4 236.708 30.4C235.788 30.4 235.001 30.6933 234.348 31.28C233.708 31.8667 233.341 32.68 233.248 33.72H240.168Z" fill="url(#paint10_linear_1046_555)"/>
<path d="M290.843 34.5C290.843 33.6733 290.676 32.9533 290.343 32.34C290.01 31.7267 289.556 31.26 288.983 30.94C288.423 30.6067 287.803 30.44 287.123 30.44C286.443 30.44 285.823 30.6 285.263 30.92C284.703 31.24 284.256 31.7067 283.923 32.32C283.59 32.9333 283.423 33.6533 283.423 34.48C283.423 35.32 283.59 36.0533 283.923 36.68C284.256 37.2933 284.703 37.7667 285.263 38.1C285.823 38.42 286.443 38.58 287.123 38.58C287.803 38.58 288.423 38.42 288.983 38.1C289.556 37.7667 290.01 37.2933 290.343 36.68C290.676 36.0533 290.843 35.3267 290.843 34.5Z" fill="url(#paint11_linear_1046_555)"/>
<path d="M77.4803 210.12C76.907 210.427 76.2936 210.58 75.6403 210.58C74.987 210.58 74.387 210.433 73.8403 210.14C73.2936 209.833 72.8536 209.373 72.5203 208.76C72.2003 208.147 72.0403 207.393 72.0403 206.5C72.0403 205.62 72.207 204.873 72.5403 204.26C72.8736 203.647 73.3136 203.193 73.8603 202.9C74.4203 202.593 75.0336 202.44 75.7003 202.44C76.3536 202.44 76.9603 202.593 77.5203 202.9C78.0803 203.193 78.5336 203.647 78.8803 204.26C79.227 204.873 79.4003 205.62 79.4003 206.5C79.4003 207.38 79.2203 208.127 78.8603 208.74C78.5136 209.353 78.0536 209.813 77.4803 210.12Z" fill="url(#paint12_linear_1046_555)"/>
<path d="M91.7533 204.34C92.0866 204.953 92.2533 205.673 92.2533 206.5C92.2533 207.327 92.0866 208.053 91.7533 208.68C91.4199 209.293 90.9666 209.767 90.3933 210.1C89.8333 210.42 89.2133 210.58 88.5333 210.58C87.8533 210.58 87.2333 210.42 86.6733 210.1C86.1133 209.767 85.6666 209.293 85.3333 208.68C84.9999 208.053 84.8333 207.32 84.8333 206.48C84.8333 205.653 84.9999 204.933 85.3333 204.32C85.6666 203.707 86.1133 203.24 86.6733 202.92C87.2333 202.6 87.8533 202.44 88.5333 202.44C89.2133 202.44 89.8333 202.607 90.3933 202.94C90.9666 203.26 91.4199 203.727 91.7533 204.34Z" fill="url(#paint13_linear_1046_555)"/>
<path d="M104.829 203.94C105.136 204.433 105.289 205.027 105.289 205.72H98.3689C98.4622 204.68 98.8289 203.867 99.4689 203.28C100.122 202.693 100.909 202.4 101.829 202.4C102.469 202.4 103.049 202.533 103.569 202.8C104.102 203.053 104.522 203.433 104.829 203.94Z" fill="url(#paint14_linear_1046_555)"/>
<path d="M137.309 203.94C137.616 204.433 137.769 205.027 137.769 205.72H130.849C130.943 204.68 131.309 203.867 131.949 203.28C132.603 202.693 133.389 202.4 134.309 202.4C134.949 202.4 135.529 202.533 136.049 202.8C136.583 203.053 137.003 203.433 137.309 203.94Z" fill="url(#paint15_linear_1046_555)"/>
<path fill-rule="evenodd" clip-rule="evenodd" d="M0.5 16C0.5 7.16345 7.66344 0 16.5 0H310.5C343.637 0 370.5 26.8629 370.5 60V65.9538C362.593 65.8548 351.407 65.6923 340.182 65.5293C322.006 65.2653 303.728 64.9998 299.102 64.9998C288.402 64.9998 279.102 67.2998 271.202 71.8998C263.302 76.3998 257.202 82.7498 252.902 90.9498C248.702 99.1498 246.602 108.5 246.602 119C246.602 129.5 248.702 138.85 252.902 147.05C257.202 155.25 263.302 161.65 271.202 166.25C279.102 170.75 299.102 173 299.102 173C299.102 173 347.461 173 370.5 172.559V181.36C370.5 184.55 366.852 186.56 363.832 185.534C360.903 184.539 357.765 184 354.5 184H242.5C226.484 184 213.5 196.984 213.5 213C213.5 218.272 214.907 223.215 217.365 227.475C219.479 231.138 216.789 239 212.56 239H60.5C27.3629 239 0.5 212.137 0.5 179V172.89L91.3 172.25V145.7H53.8V130.7H86.8V105.65H53.8V92.5998H91.3V66.0498L0.5 65.1529V16ZM186.05 120.8C189.15 115.3 190.7 109.2 190.7 102.5C190.7 91.3998 187.2 82.5498 180.2 75.9498C173.3 69.3498 163.35 66.0498 150.35 66.0498H103.85V172.25H137.15V138.5H150.35C158.95 138.5 166.25 136.9 172.25 133.7C178.35 130.5 182.95 126.2 186.05 120.8ZM234.562 66.0498V172.25H201.262V66.0498H234.562ZM31.38 40L28.06 34.3H25.86V40H24.04V26.06H28.54C29.5933 26.06 30.48 26.24 31.2 26.6C31.9333 26.96 32.48 27.4467 32.84 28.06C33.2 28.6733 33.38 29.3733 33.38 30.16C33.38 31.12 33.1 31.9667 32.54 32.7C31.9933 33.4333 31.1667 33.92 30.06 34.16L33.56 40H31.38ZM46.208 34.1C46.208 34.4467 46.188 34.8133 46.148 35.2H37.388C37.4546 36.28 37.8213 37.1267 38.488 37.74C39.168 38.34 39.988 38.64 40.948 38.64C41.7346 38.64 42.388 38.46 42.908 38.1C43.4413 37.7267 43.8146 37.2333 44.028 36.62H45.988C45.6946 37.6733 45.108 38.5333 44.228 39.2C43.348 39.8533 42.2546 40.18 40.948 40.18C39.908 40.18 38.9746 39.9467 38.148 39.48C37.3346 39.0133 36.6946 38.3533 36.228 37.5C35.7613 36.6333 35.528 35.6333 35.528 34.5C35.528 33.3667 35.7546 32.3733 36.208 31.52C36.6613 30.6667 37.2946 30.0133 38.108 29.56C38.9346 29.0933 39.8813 28.86 40.948 28.86C41.988 28.86 42.908 29.0867 43.708 29.54C44.508 29.9933 45.1213 30.62 45.548 31.42C45.988 32.2067 46.208 33.1 46.208 34.1ZM47.9303 34.48C47.9303 33.36 48.157 32.38 48.6103 31.54C49.0636 30.6867 49.6836 30.0267 50.4703 29.56C51.2703 29.0933 52.157 28.86 53.1303 28.86C54.0903 28.86 54.9236 29.0667 55.6303 29.48C56.337 29.8933 56.8636 30.4133 57.2103 31.04V29.04H59.0503V40H57.2103V37.96C56.8503 38.6 56.3103 39.1333 55.5903 39.56C54.8836 39.9733 54.057 40.18 53.1103 40.18C52.137 40.18 51.257 39.94 50.4703 39.46C49.6836 38.98 49.0636 38.3067 48.6103 37.44C48.157 36.5733 47.9303 35.5867 47.9303 34.48ZM61.4459 34.48C61.4459 33.36 61.6726 32.38 62.1259 31.54C62.5793 30.6867 63.1993 30.0267 63.9859 29.56C64.7859 29.0933 65.6793 28.86 66.6659 28.86C67.5193 28.86 68.3126 29.06 69.0459 29.46C69.7793 29.8467 70.3393 30.36 70.7259 31V25.2H72.5659V40H70.7259V37.94C70.3659 38.5933 69.8326 39.1333 69.1259 39.56C68.4193 39.9733 67.5926 40.18 66.6459 40.18C65.6726 40.18 64.7859 39.94 63.9859 39.46C63.1993 38.98 62.5793 38.3067 62.1259 37.44C61.6726 36.5733 61.4459 35.5867 61.4459 34.48ZM85.0816 29.04L78.4816 45.16H76.6016L78.7616 39.88L74.3416 29.04H76.3616L79.8016 37.92L83.2016 29.04H85.0816ZM94.4631 30.54V37C94.4631 37.5333 94.5765 37.9133 94.8031 38.14C95.0298 38.3533 95.4231 38.46 95.9831 38.46H97.3231V40H95.6831C94.6698 40 93.9098 39.7667 93.4031 39.3C92.8965 38.8333 92.6431 38.0667 92.6431 37V30.54H91.2231V29.04H92.6431V26.28H94.4631V29.04H97.3231V30.54H94.4631ZM104.308 40.18C103.282 40.18 102.348 39.9467 101.508 39.48C100.682 39.0133 100.028 38.3533 99.5483 37.5C99.0816 36.6333 98.8483 35.6333 98.8483 34.5C98.8483 33.38 99.0883 32.3933 99.5683 31.54C100.062 30.6733 100.728 30.0133 101.568 29.56C102.408 29.0933 103.348 28.86 104.388 28.86C105.428 28.86 106.368 29.0933 107.208 29.56C108.048 30.0133 108.708 30.6667 109.188 31.52C109.682 32.3733 109.928 33.3667 109.928 34.5C109.928 35.6333 109.675 36.6333 109.168 37.5C108.675 38.3533 108.002 39.0133 107.148 39.48C106.295 39.9467 105.348 40.18 104.308 40.18ZM116.973 34.5C116.973 33.3667 117.2 32.38 117.653 31.54C118.107 30.6867 118.733 30.0267 119.533 29.56C120.347 29.0933 121.273 28.86 122.313 28.86C123.66 28.86 124.767 29.1867 125.633 29.84C126.513 30.4933 127.093 31.4 127.373 32.56H125.413C125.227 31.8933 124.86 31.3667 124.313 30.98C123.78 30.5933 123.113 30.4 122.313 30.4C121.273 30.4 120.433 30.76 119.793 31.48C119.153 32.1867 118.833 33.1933 118.833 34.5C118.833 35.82 119.153 36.84 119.793 37.56C120.433 38.28 121.273 38.64 122.313 38.64C123.113 38.64 123.78 38.4533 124.313 38.08C124.847 37.7067 125.213 37.1733 125.413 36.48H127.373C127.08 37.6 126.493 38.5 125.613 39.18C124.733 39.8467 123.633 40.18 122.313 40.18C121.273 40.18 120.347 39.9467 119.533 39.48C118.733 39.0133 118.107 38.3533 117.653 37.5C117.2 36.6467 116.973 35.6467 116.973 34.5ZM131.622 30.82C131.942 30.1933 132.395 29.7067 132.982 29.36C133.582 29.0133 134.308 28.84 135.162 28.84V30.72H134.682C132.642 30.72 131.622 31.8267 131.622 34.04V40H129.802V29.04H131.622V30.82ZM147.263 34.1C147.263 34.4467 147.243 34.8133 147.203 35.2H138.443C138.509 36.28 138.876 37.1267 139.543 37.74C140.223 38.34 141.043 38.64 142.003 38.64C142.789 38.64 143.443 38.46 143.963 38.1C144.496 37.7267 144.869 37.2333 145.083 36.62H147.043C146.749 37.6733 146.163 38.5333 145.283 39.2C144.403 39.8533 143.309 40.18 142.003 40.18C140.963 40.18 140.029 39.9467 139.203 39.48C138.389 39.0133 137.749 38.3533 137.283 37.5C136.816 36.6333 136.583 35.6333 136.583 34.5C136.583 33.3667 136.809 32.3733 137.263 31.52C137.716 30.6667 138.349 30.0133 139.163 29.56C139.989 29.0933 140.936 28.86 142.003 28.86C143.043 28.86 143.963 29.0867 144.763 29.54C145.563 29.9933 146.176 30.62 146.603 31.42C147.043 32.2067 147.263 33.1 147.263 34.1ZM148.985 34.48C148.985 33.36 149.212 32.38 149.665 31.54C150.118 30.6867 150.738 30.0267 151.525 29.56C152.325 29.0933 153.212 28.86 154.185 28.86C155.145 28.86 155.978 29.0667 156.685 29.48C157.392 29.8933 157.918 30.4133 158.265 31.04V29.04H160.105V40H158.265V37.96C157.905 38.6 157.365 39.1333 156.645 39.56C155.938 39.9733 155.112 40.18 154.165 40.18C153.192 40.18 152.312 39.94 151.525 39.46C150.738 38.98 150.118 38.3067 149.665 37.44C149.212 36.5733 148.985 35.5867 148.985 34.48ZM165.401 30.54V37C165.401 37.5333 165.514 37.9133 165.741 38.14C165.967 38.3533 166.361 38.46 166.921 38.46H168.261V40H166.621C165.607 40 164.847 39.7667 164.341 39.3C163.834 38.8333 163.581 38.0667 163.581 37V30.54H162.161V29.04H163.581V26.28H165.401V29.04H168.261V30.54H165.401ZM180.466 34.1C180.466 34.4467 180.446 34.8133 180.406 35.2H171.646C171.712 36.28 172.079 37.1267 172.746 37.74C173.426 38.34 174.246 38.64 175.206 38.64C175.992 38.64 176.646 38.46 177.166 38.1C177.699 37.7267 178.072 37.2333 178.286 36.62H180.246C179.952 37.6733 179.366 38.5333 178.486 39.2C177.606 39.8533 176.512 40.18 175.206 40.18C174.166 40.18 173.232 39.9467 172.406 39.48C171.592 39.0133 170.952 38.3533 170.486 37.5C170.019 36.6333 169.786 35.6333 169.786 34.5C169.786 33.3667 170.012 32.3733 170.466 31.52C170.919 30.6667 171.552 30.0133 172.366 29.56C173.192 29.0933 174.139 28.86 175.206 28.86C176.246 28.86 177.166 29.0867 177.966 29.54C178.766 29.9933 179.379 30.62 179.806 31.42C180.246 32.2067 180.466 33.1 180.466 34.1ZM192.08 40.18C191.24 40.18 190.487 40.04 189.82 39.76C189.153 39.4667 188.627 39.0667 188.24 38.56C187.853 38.04 187.64 37.4467 187.6 36.78H189.48C189.533 37.3267 189.787 37.7733 190.24 38.12C190.707 38.4667 191.313 38.64 192.06 38.64C192.753 38.64 193.3 38.4867 193.7 38.18C194.1 37.8733 194.3 37.4867 194.3 37.02C194.3 36.54 194.087 36.1867 193.66 35.96C193.233 35.72 192.573 35.4867 191.68 35.26C190.867 35.0467 190.2 34.8333 189.68 34.62C189.173 34.3933 188.733 34.0667 188.36 33.64C188 33.2 187.82 32.6267 187.82 31.92C187.82 31.36 187.987 30.8467 188.32 30.38C188.653 29.9133 189.127 29.5467 189.74 29.28C190.353 29 191.053 28.86 191.84 28.86C193.053 28.86 194.033 29.1667 194.78 29.78C195.527 30.3933 195.927 31.2333 195.98 32.3H194.16C194.12 31.7267 193.887 31.2667 193.46 30.92C193.047 30.5733 192.487 30.4 191.78 30.4C191.127 30.4 190.607 30.54 190.22 30.82C189.833 31.1 189.64 31.4667 189.64 31.92C189.64 32.28 189.753 32.58 189.98 32.82C190.22 33.0467 190.513 33.2333 190.86 33.38C191.22 33.5133 191.713 33.6667 192.34 33.84C193.127 34.0533 193.767 34.2667 194.26 34.48C194.753 34.68 195.173 34.9867 195.52 35.4C195.88 35.8133 196.067 36.3533 196.08 37.02C196.08 37.62 195.913 38.16 195.58 38.64C195.247 39.12 194.773 39.5 194.16 39.78C193.56 40.0467 192.867 40.18 192.08 40.18ZM203.429 40.18C202.403 40.18 201.469 39.9467 200.629 39.48C199.803 39.0133 199.149 38.3533 198.669 37.5C198.203 36.6333 197.969 35.6333 197.969 34.5C197.969 33.38 198.209 32.3933 198.689 31.54C199.183 30.6733 199.849 30.0133 200.689 29.56C201.529 29.0933 202.469 28.86 203.509 28.86C204.549 28.86 205.489 29.0933 206.329 29.56C207.169 30.0133 207.829 30.6667 208.309 31.52C208.803 32.3733 209.049 33.3667 209.049 34.5C209.049 35.6333 208.796 36.6333 208.289 37.5C207.796 38.3533 207.123 39.0133 206.269 39.48C205.416 39.9467 204.469 40.18 203.429 40.18ZM224.622 28.84C225.476 28.84 226.236 29.02 226.902 29.38C227.569 29.7267 228.096 30.2533 228.482 30.96C228.869 31.6667 229.062 32.5267 229.062 33.54V40H227.262V33.8C227.262 32.7067 226.989 31.8733 226.442 31.3C225.909 30.7133 225.182 30.42 224.262 30.42C223.316 30.42 222.562 30.7267 222.002 31.34C221.442 31.94 221.162 32.8133 221.162 33.96V40H219.362V33.8C219.362 32.7067 219.089 31.8733 218.542 31.3C218.009 30.7133 217.282 30.42 216.362 30.42C215.416 30.42 214.662 30.7267 214.102 31.34C213.542 31.94 213.262 32.8133 213.262 33.96V40H211.442V29.04H213.262V30.62C213.622 30.0467 214.102 29.6067 214.702 29.3C215.316 28.9933 215.989 28.84 216.722 28.84C217.642 28.84 218.456 29.0467 219.162 29.46C219.869 29.8733 220.396 30.48 220.742 31.28C221.049 30.5067 221.556 29.9067 222.262 29.48C222.969 29.0533 223.756 28.84 224.622 28.84ZM242.048 34.1C242.048 34.4467 242.028 34.8133 241.988 35.2H233.228C233.294 36.28 233.661 37.1267 234.328 37.74C235.008 38.34 235.828 38.64 236.788 38.64C237.574 38.64 238.228 38.46 238.748 38.1C239.281 37.7267 239.654 37.2333 239.868 36.62H241.828C241.534 37.6733 240.948 38.5333 240.068 39.2C239.188 39.8533 238.094 40.18 236.788 40.18C235.748 40.18 234.814 39.9467 233.988 39.48C233.174 39.0133 232.534 38.3533 232.068 37.5C231.601 36.6333 231.368 35.6333 231.368 34.5C231.368 33.3667 231.594 32.3733 232.048 31.52C232.501 30.6667 233.134 30.0133 233.948 29.56C234.774 29.0933 235.721 28.86 236.788 28.86C237.828 28.86 238.748 29.0867 239.548 29.54C240.348 29.9933 240.961 30.62 241.388 31.42C241.828 32.2067 242.048 33.1 242.048 34.1ZM246.67 30.54V37C246.67 37.5333 246.783 37.9133 247.01 38.14C247.237 38.3533 247.63 38.46 248.19 38.46H249.53V40H247.89C246.877 40 246.117 39.7667 245.61 39.3C245.103 38.8333 244.85 38.0667 244.85 37V30.54H243.43V29.04H244.85V26.28H246.67V29.04H249.53V30.54H246.67ZM257.175 28.84C258.002 28.84 258.749 29.02 259.415 29.38C260.082 29.7267 260.602 30.2533 260.975 30.96C261.362 31.6667 261.555 32.5267 261.555 33.54V40H259.755V33.8C259.755 32.7067 259.482 31.8733 258.935 31.3C258.389 30.7133 257.642 30.42 256.695 30.42C255.735 30.42 254.969 30.72 254.395 31.32C253.835 31.92 253.555 32.7933 253.555 33.94V40H251.735V25.2H253.555V30.6C253.915 30.04 254.409 29.6067 255.035 29.3C255.675 28.9933 256.389 28.84 257.175 28.84ZM265.468 27.26C265.122 27.26 264.828 27.14 264.588 26.9C264.348 26.66 264.228 26.3667 264.228 26.02C264.228 25.6733 264.348 25.38 264.588 25.14C264.828 24.9 265.122 24.78 265.468 24.78C265.802 24.78 266.082 24.9 266.308 25.14C266.548 25.38 266.668 25.6733 266.668 26.02C266.668 26.3667 266.548 26.66 266.308 26.9C266.082 27.14 265.802 27.26 265.468 27.26ZM266.348 29.04V40H264.528V29.04H266.348ZM274.79 28.84C276.124 28.84 277.203 29.2467 278.03 30.06C278.857 30.86 279.27 32.02 279.27 33.54V40H277.47V33.8C277.47 32.7067 277.197 31.8733 276.65 31.3C276.103 30.7133 275.357 30.42 274.41 30.42C273.45 30.42 272.684 30.72 272.11 31.32C271.55 31.92 271.27 32.7933 271.27 33.94V40H269.45V29.04H271.27V30.6C271.63 30.04 272.117 29.6067 272.73 29.3C273.357 28.9933 274.043 28.84 274.79 28.84ZM286.763 28.86C287.71 28.86 288.536 29.0667 289.243 29.48C289.963 29.8933 290.496 30.4133 290.843 31.04V29.04H292.683V40.24C292.683 41.24 292.47 42.1267 292.043 42.9C291.616 43.6867 291.003 44.3 290.203 44.74C289.416 45.18 288.496 45.4 287.443 45.4C286.003 45.4 284.803 45.06 283.843 44.38C282.883 43.7 282.316 42.7733 282.143 41.6H283.943C284.143 42.2667 284.556 42.8 285.183 43.2C285.81 43.6133 286.563 43.82 287.443 43.82C288.443 43.82 289.256 43.5067 289.883 42.88C290.523 42.2533 290.843 41.3733 290.843 40.24V37.94C290.483 38.58 289.95 39.1133 289.243 39.54C288.536 39.9667 287.71 40.18 286.763 40.18C285.79 40.18 284.903 39.94 284.103 39.46C283.316 38.98 282.696 38.3067 282.243 37.44C281.79 36.5733 281.563 35.5867 281.563 34.48C281.563 33.36 281.79 32.38 282.243 31.54C282.696 30.6867 283.316 30.0267 284.103 29.56C284.903 29.0933 285.79 28.86 286.763 28.86ZM68.62 199.54V198.06H59.18V199.54H63V212H64.82V199.54H68.62ZM72.8403 211.48C73.6803 211.947 74.6136 212.18 75.6403 212.18C76.6803 212.18 77.627 211.947 78.4803 211.48C79.3336 211.013 80.007 210.353 80.5003 209.5C81.007 208.633 81.2603 207.633 81.2603 206.5C81.2603 205.367 81.0136 204.373 80.5203 203.52C80.0403 202.667 79.3803 202.013 78.5403 201.56C77.7003 201.093 76.7603 200.86 75.7203 200.86C74.6803 200.86 73.7403 201.093 72.9003 201.56C72.0603 202.013 71.3936 202.673 70.9003 203.54C70.4203 204.393 70.1803 205.38 70.1803 206.5C70.1803 207.633 70.4136 208.633 70.8803 209.5C71.3603 210.353 72.0136 211.013 72.8403 211.48ZM90.6533 201.48C89.9466 201.067 89.1199 200.86 88.1733 200.86C87.2 200.86 86.3133 201.093 85.5133 201.56C84.7266 202.027 84.1066 202.687 83.6533 203.54C83.2 204.38 82.9733 205.36 82.9733 206.48C82.9733 207.587 83.2 208.573 83.6533 209.44C84.1066 210.307 84.7266 210.98 85.5133 211.46C86.3133 211.94 87.2 212.18 88.1733 212.18C89.1199 212.18 89.9466 211.967 90.6533 211.54C91.3599 211.113 91.8933 210.58 92.2533 209.94V212.24C92.2533 213.373 91.9333 214.253 91.2933 214.88C90.6666 215.507 89.8533 215.82 88.8533 215.82C87.9733 215.82 87.2199 215.613 86.5933 215.2C85.9666 214.8 85.5533 214.267 85.3533 213.6H83.5533C83.7266 214.773 84.2933 215.7 85.2533 216.38C86.2133 217.06 87.4133 217.4 88.8533 217.4C89.9066 217.4 90.8266 217.18 91.6133 216.74C92.4133 216.3 93.0266 215.687 93.4533 214.9C93.88 214.127 94.0933 213.24 94.0933 212.24V201.04H92.2533V203.04C91.9066 202.413 91.3733 201.893 90.6533 201.48ZM107.109 207.2C107.149 206.813 107.169 206.447 107.169 206.1C107.169 205.1 106.949 204.207 106.509 203.42C106.082 202.62 105.469 201.993 104.669 201.54C103.869 201.087 102.949 200.86 101.909 200.86C100.842 200.86 99.8956 201.093 99.0689 201.56C98.2556 202.013 97.6222 202.667 97.1689 203.52C96.7156 204.373 96.4889 205.367 96.4889 206.5C96.4889 207.633 96.7222 208.633 97.1889 209.5C97.6556 210.353 98.2956 211.013 99.1089 211.48C99.9356 211.947 100.869 212.18 101.909 212.18C103.216 212.18 104.309 211.853 105.189 211.2C106.069 210.533 106.656 209.673 106.949 208.62H104.989C104.776 209.233 104.402 209.727 103.869 210.1C103.349 210.46 102.696 210.64 101.909 210.64C100.949 210.64 100.129 210.34 99.4489 209.74C98.7822 209.127 98.4156 208.28 98.3489 207.2H107.109ZM111.791 209V202.54H114.651V201.04H111.791V198.28H109.971V201.04H108.551V202.54H109.971V209C109.971 210.067 110.225 210.833 110.731 211.3C111.238 211.767 111.998 212 113.011 212H114.651V210.46H113.311C112.751 210.46 112.358 210.353 112.131 210.14C111.905 209.913 111.791 209.533 111.791 209ZM124.536 201.38C123.87 201.02 123.123 200.84 122.296 200.84C121.51 200.84 120.796 200.993 120.156 201.3C119.53 201.607 119.036 202.04 118.676 202.6V197.2H116.856V212H118.676V205.94C118.676 204.793 118.956 203.92 119.516 203.32C120.09 202.72 120.856 202.42 121.816 202.42C122.763 202.42 123.51 202.713 124.056 203.3C124.603 203.873 124.876 204.707 124.876 205.8V212H126.676V205.54C126.676 204.527 126.483 203.667 126.096 202.96C125.723 202.253 125.203 201.727 124.536 201.38ZM139.589 207.2C139.629 206.813 139.649 206.447 139.649 206.1C139.649 205.1 139.429 204.207 138.989 203.42C138.563 202.62 137.949 201.993 137.149 201.54C136.349 201.087 135.429 200.86 134.389 200.86C133.323 200.86 132.376 201.093 131.549 201.56C130.736 202.013 130.103 202.667 129.649 203.52C129.196 204.373 128.969 205.367 128.969 206.5C128.969 207.633 129.203 208.633 129.669 209.5C130.136 210.353 130.776 211.013 131.589 211.48C132.416 211.947 133.349 212.18 134.389 212.18C135.696 212.18 136.789 211.853 137.669 211.2C138.549 210.533 139.136 209.673 139.429 208.62H137.469C137.256 209.233 136.883 209.727 136.349 210.1C135.829 210.46 135.176 210.64 134.389 210.64C133.429 210.64 132.609 210.34 131.929 209.74C131.263 209.127 130.896 208.28 130.829 207.2H139.589ZM145.232 201.36C144.645 201.707 144.192 202.193 143.872 202.82V201.04H142.052V212H143.872V206.04C143.872 203.827 144.892 202.72 146.932 202.72H147.412V200.84C146.558 200.84 145.832 201.013 145.232 201.36ZM156.273 199C155.459 198.253 154.393 197.88 153.073 197.88C152.206 197.88 151.439 198.047 150.773 198.38C150.119 198.713 149.613 199.187 149.253 199.8C148.893 200.4 148.713 201.1 148.713 201.9H150.433C150.433 201.127 150.666 200.52 151.133 200.08C151.613 199.627 152.266 199.4 153.093 199.4C153.906 199.4 154.553 199.633 155.033 200.1C155.513 200.567 155.753 201.2 155.753 202C155.753 203.107 155.379 203.86 154.633 204.26C153.886 204.66 152.853 204.86 151.533 204.86H150.953L151.033 208.02H152.613L152.673 206.12C154.153 206.12 155.326 205.787 156.193 205.12C157.059 204.44 157.493 203.4 157.493 202C157.493 200.747 157.086 199.747 156.273 199ZM150.933 211.76C151.173 212 151.466 212.12 151.813 212.12C152.146 212.12 152.426 212 152.653 211.76C152.893 211.52 153.013 211.227 153.013 210.88C153.013 210.533 152.893 210.24 152.653 210C152.426 209.76 152.146 209.64 151.813 209.64C151.466 209.64 151.173 209.76 150.933 210C150.693 210.24 150.573 210.533 150.573 210.88C150.573 211.227 150.693 211.52 150.933 211.76Z" fill="url(#paint16_linear_1046_555)"/>
<path d="M370.5 133.43V106.85H315.452C313.852 103.35 311.552 100.65 308.552 98.7498C305.652 96.7498 302.302 95.7498 298.502 95.7498C292.902 95.7498 288.452 97.8498 285.152 102.05C281.952 106.25 280.352 111.9 280.352 119C280.352 126.1 281.952 131.75 285.152 135.95C288.452 140.15 292.902 142.25 298.502 142.25C302.302 142.25 305.652 141.3 308.552 139.4C311.552 137.4 313.852 134.65 315.452 131.15L370.5 133.43Z" fill="url(#paint17_linear_1046_555)"/>
<defs>
<linearGradient id="paint0_linear_1046_555" x1="227.5" y1="225.596" x2="349.759" y2="23.4767" gradientUnits="userSpaceOnUse">
<stop stop-color="#BF82FF"/>
<stop offset="0.288364" stop-color="#8372FC"/>
<stop offset="0.746608" stop-color="#6A75FB"/>
<stop offset="0.897516" stop-color="#B9B3D2"/>
<stop offset="0.974095" stop-color="#8BE2D7"/>
</linearGradient>
<linearGradient id="paint1_linear_1046_555" x1="227.5" y1="225.596" x2="349.759" y2="23.4767" gradientUnits="userSpaceOnUse">
<stop stop-color="#BF82FF"/>
<stop offset="0.288364" stop-color="#8372FC"/>
<stop offset="0.746608" stop-color="#6A75FB"/>
<stop offset="0.897516" stop-color="#B9B3D2"/>
<stop offset="0.974095" stop-color="#8BE2D7"/>
</linearGradient>
<linearGradient id="paint2_linear_1046_555" x1="227.5" y1="225.596" x2="349.759" y2="23.4767" gradientUnits="userSpaceOnUse">
<stop stop-color="#BF82FF"/>
<stop offset="0.288364" stop-color="#8372FC"/>
<stop offset="0.746608" stop-color="#6A75FB"/>
<stop offset="0.897516" stop-color="#B9B3D2"/>
<stop offset="0.974095" stop-color="#8BE2D7"/>
</linearGradient>
<linearGradient id="paint3_linear_1046_555" x1="227.5" y1="225.596" x2="349.759" y2="23.4767" gradientUnits="userSpaceOnUse">
<stop stop-color="#BF82FF"/>
<stop offset="0.288364" stop-color="#8372FC"/>
<stop offset="0.746608" stop-color="#6A75FB"/>
<stop offset="0.897516" stop-color="#B9B3D2"/>
<stop offset="0.974095" stop-color="#8BE2D7"/>
</linearGradient>
<linearGradient id="paint4_linear_1046_555" x1="227.5" y1="225.596" x2="349.759" y2="23.4767" gradientUnits="userSpaceOnUse">
<stop stop-color="#BF82FF"/>
<stop offset="0.288364" stop-color="#8372FC"/>
<stop offset="0.746608" stop-color="#6A75FB"/>
<stop offset="0.897516" stop-color="#B9B3D2"/>
<stop offset="0.974095" stop-color="#8BE2D7"/>
</linearGradient>
<linearGradient id="paint5_linear_1046_555" x1="227.5" y1="225.596" x2="349.759" y2="23.4767" gradientUnits="userSpaceOnUse">
<stop stop-color="#BF82FF"/>
<stop offset="0.288364" stop-color="#8372FC"/>
<stop offset="0.746608" stop-color="#6A75FB"/>
<stop offset="0.897516" stop-color="#B9B3D2"/>
<stop offset="0.974095" stop-color="#8BE2D7"/>
</linearGradient>
<linearGradient id="paint6_linear_1046_555" x1="227.5" y1="225.596" x2="349.759" y2="23.4767" gradientUnits="userSpaceOnUse">
<stop stop-color="#BF82FF"/>
<stop offset="0.288364" stop-color="#8372FC"/>
<stop offset="0.746608" stop-color="#6A75FB"/>
<stop offset="0.897516" stop-color="#B9B3D2"/>
<stop offset="0.974095" stop-color="#8BE2D7"/>
</linearGradient>
<linearGradient id="paint7_linear_1046_555" x1="227.5" y1="225.596" x2="349.759" y2="23.4767" gradientUnits="userSpaceOnUse">
<stop stop-color="#BF82FF"/>
<stop offset="0.288364" stop-color="#8372FC"/>
<stop offset="0.746608" stop-color="#6A75FB"/>
<stop offset="0.897516" stop-color="#B9B3D2"/>
<stop offset="0.974095" stop-color="#8BE2D7"/>
</linearGradient>
<linearGradient id="paint8_linear_1046_555" x1="227.5" y1="225.596" x2="349.759" y2="23.4767" gradientUnits="userSpaceOnUse">
<stop stop-color="#BF82FF"/>
<stop offset="0.288364" stop-color="#8372FC"/>
<stop offset="0.746608" stop-color="#6A75FB"/>
<stop offset="0.897516" stop-color="#B9B3D2"/>
<stop offset="0.974095" stop-color="#8BE2D7"/>
</linearGradient>
<linearGradient id="paint9_linear_1046_555" x1="227.5" y1="225.596" x2="349.759" y2="23.4767" gradientUnits="userSpaceOnUse">
<stop stop-color="#BF82FF"/>
<stop offset="0.288364" stop-color="#8372FC"/>
<stop offset="0.746608" stop-color="#6A75FB"/>
<stop offset="0.897516" stop-color="#B9B3D2"/>
<stop offset="0.974095" stop-color="#8BE2D7"/>
</linearGradient>
<linearGradient id="paint10_linear_1046_555" x1="227.5" y1="225.596" x2="349.759" y2="23.4767" gradientUnits="userSpaceOnUse">
<stop stop-color="#BF82FF"/>
<stop offset="0.288364" stop-color="#8372FC"/>
<stop offset="0.746608" stop-color="#6A75FB"/>
<stop offset="0.897516" stop-color="#B9B3D2"/>
<stop offset="0.974095" stop-color="#8BE2D7"/>
</linearGradient>
<linearGradient id="paint11_linear_1046_555" x1="227.5" y1="225.596" x2="349.759" y2="23.4767" gradientUnits="userSpaceOnUse">
<stop stop-color="#BF82FF"/>
<stop offset="0.288364" stop-color="#8372FC"/>
<stop offset="0.746608" stop-color="#6A75FB"/>
<stop offset="0.897516" stop-color="#B9B3D2"/>
<stop offset="0.974095" stop-color="#8BE2D7"/>
</linearGradient>
<linearGradient id="paint12_linear_1046_555" x1="227.5" y1="225.596" x2="349.759" y2="23.4767" gradientUnits="userSpaceOnUse">
<stop stop-color="#BF82FF"/>
<stop offset="0.288364" stop-color="#8372FC"/>
<stop offset="0.746608" stop-color="#6A75FB"/>
<stop offset="0.897516" stop-color="#B9B3D2"/>
<stop offset="0.974095" stop-color="#8BE2D7"/>
</linearGradient>
<linearGradient id="paint13_linear_1046_555" x1="227.5" y1="225.596" x2="349.759" y2="23.4767" gradientUnits="userSpaceOnUse">
<stop stop-color="#BF82FF"/>
<stop offset="0.288364" stop-color="#8372FC"/>
<stop offset="0.746608" stop-color="#6A75FB"/>
<stop offset="0.897516" stop-color="#B9B3D2"/>
<stop offset="0.974095" stop-color="#8BE2D7"/>
</linearGradient>
<linearGradient id="paint14_linear_1046_555" x1="227.5" y1="225.596" x2="349.759" y2="23.4767" gradientUnits="userSpaceOnUse">
<stop stop-color="#BF82FF"/>
<stop offset="0.288364" stop-color="#8372FC"/>
<stop offset="0.746608" stop-color="#6A75FB"/>
<stop offset="0.897516" stop-color="#B9B3D2"/>
<stop offset="0.974095" stop-color="#8BE2D7"/>
</linearGradient>
<linearGradient id="paint15_linear_1046_555" x1="227.5" y1="225.596" x2="349.759" y2="23.4767" gradientUnits="userSpaceOnUse">
<stop stop-color="#BF82FF"/>
<stop offset="0.288364" stop-color="#8372FC"/>
<stop offset="0.746608" stop-color="#6A75FB"/>
<stop offset="0.897516" stop-color="#B9B3D2"/>
<stop offset="0.974095" stop-color="#8BE2D7"/>
</linearGradient>
<linearGradient id="paint16_linear_1046_555" x1="227.5" y1="225.596" x2="349.759" y2="23.4767" gradientUnits="userSpaceOnUse">
<stop stop-color="#BF82FF"/>
<stop offset="0.288364" stop-color="#8372FC"/>
<stop offset="0.746608" stop-color="#6A75FB"/>
<stop offset="0.897516" stop-color="#B9B3D2"/>
<stop offset="0.974095" stop-color="#8BE2D7"/>
</linearGradient>
<linearGradient id="paint17_linear_1046_555" x1="227.5" y1="225.596" x2="349.759" y2="23.4767" gradientUnits="userSpaceOnUse">
<stop stop-color="#BF82FF"/>
<stop offset="0.288364" stop-color="#8372FC"/>
<stop offset="0.746608" stop-color="#6A75FB"/>
<stop offset="0.897516" stop-color="#B9B3D2"/>
<stop offset="0.974095" stop-color="#8BE2D7"/>
</linearGradient>
</defs>
</svg>
