<svg width="145" height="41" viewBox="0 0 145 41" fill="none" xmlns="http://www.w3.org/2000/svg">
<rect width="145" height="41" rx="20.5" fill="url(#paint0_linear_1046_538)"/>
<path d="M33.66 24.36H38.14V27H30.24V12.96H33.66V24.36ZM50.2912 21.24C50.2912 21.56 50.2713 21.8933 50.2313 22.24H42.4913C42.5446 22.9333 42.7646 23.4667 43.1513 23.84C43.5513 24.2 44.0379 24.38 44.6113 24.38C45.4646 24.38 46.0579 24.02 46.3913 23.3H50.0313C49.8446 24.0333 49.5046 24.6933 49.0113 25.28C48.5313 25.8667 47.9246 26.3267 47.1913 26.66C46.4579 26.9933 45.6379 27.16 44.7313 27.16C43.6379 27.16 42.6646 26.9267 41.8113 26.46C40.9579 25.9933 40.2913 25.3267 39.8113 24.46C39.3313 23.5933 39.0913 22.58 39.0913 21.42C39.0913 20.26 39.3246 19.2467 39.7913 18.38C40.2713 17.5133 40.9379 16.8467 41.7913 16.38C42.6446 15.9133 43.6246 15.68 44.7313 15.68C45.8113 15.68 46.7713 15.9067 47.6113 16.36C48.4513 16.8133 49.1046 17.46 49.5713 18.3C50.0513 19.14 50.2912 20.12 50.2912 21.24ZM46.7913 20.34C46.7913 19.7533 46.5913 19.2867 46.1913 18.94C45.7913 18.5933 45.2913 18.42 44.6913 18.42C44.1179 18.42 43.6313 18.5867 43.2313 18.92C42.8446 19.2533 42.6046 19.7267 42.5113 20.34H46.7913ZM58.3155 24.1V27H56.5755C55.3355 27 54.3688 26.7 53.6755 26.1C52.9821 25.4867 52.6355 24.4933 52.6355 23.12V18.68H51.2755V15.84H52.6355V13.12H56.0555V15.84H58.2955V18.68H56.0555V23.16C56.0555 23.4933 56.1355 23.7333 56.2955 23.88C56.4555 24.0267 56.7221 24.1 57.0955 24.1H58.3155ZM61.0005 12.96H64.5005L62.2605 18.32H59.9605L61.0005 12.96ZM71.0495 27.16C70.0762 27.16 69.2095 26.9933 68.4495 26.66C67.6895 26.3267 67.0895 25.8733 66.6495 25.3C66.2095 24.7133 65.9629 24.06 65.9095 23.34H69.2895C69.3295 23.7267 69.5095 24.04 69.8295 24.28C70.1495 24.52 70.5429 24.64 71.0095 24.64C71.4362 24.64 71.7629 24.56 71.9895 24.4C72.2295 24.2267 72.3495 24.0067 72.3495 23.74C72.3495 23.42 72.1829 23.1867 71.8495 23.04C71.5162 22.88 70.9762 22.7067 70.2295 22.52C69.4295 22.3333 68.7629 22.14 68.2295 21.94C67.6962 21.7267 67.2362 21.4 66.8495 20.96C66.4629 20.5067 66.2695 19.9 66.2695 19.14C66.2695 18.5 66.4429 17.92 66.7895 17.4C67.1495 16.8667 67.6695 16.4467 68.3495 16.14C69.0429 15.8333 69.8629 15.68 70.8095 15.68C72.2095 15.68 73.3095 16.0267 74.1095 16.72C74.9229 17.4133 75.3895 18.3333 75.5095 19.48H72.3495C72.2962 19.0933 72.1229 18.7867 71.8295 18.56C71.5495 18.3333 71.1762 18.22 70.7095 18.22C70.3095 18.22 70.0029 18.3 69.7895 18.46C69.5762 18.6067 69.4695 18.8133 69.4695 19.08C69.4695 19.4 69.6362 19.64 69.9695 19.8C70.3162 19.96 70.8495 20.12 71.5695 20.28C72.3962 20.4933 73.0695 20.7067 73.5895 20.92C74.1095 21.12 74.5629 21.4533 74.9495 21.92C75.3495 22.3733 75.5562 22.9867 75.5695 23.76C75.5695 24.4133 75.3829 25 75.0095 25.52C74.6495 26.0267 74.1229 26.4267 73.4295 26.72C72.7495 27.0133 71.9562 27.16 71.0495 27.16ZM88.1202 24.1V27H86.3802C85.1402 27 84.1735 26.7 83.4802 26.1C82.7868 25.4867 82.4402 24.4933 82.4402 23.12V18.68H81.0802V15.84H82.4402V13.12H85.8602V15.84H88.1002V18.68H85.8602V23.16C85.8602 23.4933 85.9402 23.7333 86.1002 23.88C86.2602 24.0267 86.5268 24.1 86.9002 24.1H88.1202ZM89.3452 21.4C89.3452 20.2533 89.5585 19.2467 89.9852 18.38C90.4252 17.5133 91.0185 16.8467 91.7652 16.38C92.5118 15.9133 93.3452 15.68 94.2652 15.68C95.0518 15.68 95.7385 15.84 96.3252 16.16C96.9252 16.48 97.3852 16.9 97.7052 17.42V15.84H101.125V27H97.7052V25.42C97.3718 25.94 96.9052 26.36 96.3052 26.68C95.7185 27 95.0318 27.16 94.2452 27.16C93.3385 27.16 92.5118 26.9267 91.7652 26.46C91.0185 25.98 90.4252 25.3067 89.9852 24.44C89.5585 23.56 89.3452 22.5467 89.3452 21.4ZM97.7052 21.42C97.7052 20.5667 97.4652 19.8933 96.9852 19.4C96.5185 18.9067 95.9452 18.66 95.2652 18.66C94.5852 18.66 94.0052 18.9067 93.5252 19.4C93.0585 19.88 92.8252 20.5467 92.8252 21.4C92.8252 22.2533 93.0585 22.9333 93.5252 23.44C94.0052 23.9333 94.5852 24.18 95.2652 24.18C95.9452 24.18 96.5185 23.9333 96.9852 23.44C97.4652 22.9467 97.7052 22.2733 97.7052 21.42ZM107.019 12.2V27H103.599V12.2H107.019ZM116.318 27L112.918 22.32V27H109.498V12.2H112.918V20.38L116.298 15.84H120.518L115.878 21.44L120.558 27H116.318Z" fill="#F0FFFF"/>
<defs>
<linearGradient id="paint0_linear_1046_538" x1="0" y1="20.5" x2="145" y2="20.5" gradientUnits="userSpaceOnUse">
<stop stop-color="#7B8AFA"/>
<stop offset="1" stop-color="#8ADEDF"/>
</linearGradient>
</defs>
</svg>
