<svg width="370" height="274" viewBox="0 0 370 274" fill="none" xmlns="http://www.w3.org/2000/svg">
<path fill-rule="evenodd" clip-rule="evenodd" d="M370 78.9251C370 72.159 361.625 67.9731 355.168 69.9956C351.011 71.298 346.587 72 342 72C317.699 72 298 52.3005 298 28C298 23.4127 298.702 18.9894 300.004 14.8317C302.027 8.3749 297.841 0 291.075 0H60C26.8629 0 0 26.8629 0 60V64.3521H20.6515C24.6835 64.3521 27.8569 65.2294 30.1715 66.9841C32.4862 68.7387 33.6435 71.2961 33.6435 74.6561C33.6435 76.9707 33.0275 78.9307 31.7955 80.536C30.6009 82.104 28.9955 83.1494 26.9795 83.6721C29.3689 84.232 31.2169 85.3894 32.5235 87.1441C33.8675 88.8614 34.5396 90.8587 34.5396 93.136C34.5396 96.608 33.3822 99.2961 31.0675 101.2C28.7902 103.067 25.5049 104 21.2115 104H0V117.287C13.1745 117.052 15.591 117.009 18.0077 117.002C18.5444 117 19.0811 117 19.7357 117C23.1704 117 26.2317 117.653 28.9197 118.96C31.6451 120.229 33.8477 122.04 35.5277 124.392C37.2451 126.744 38.3837 129.488 38.9437 132.624H25.8397C25.2424 131.317 24.3837 130.309 23.2637 129.6C22.1811 128.853 20.9304 128.48 19.5117 128.48C17.4211 128.48 15.7597 129.264 14.5277 130.832C13.3331 132.4 12.7357 134.509 12.7357 137.16C12.7357 139.811 13.3331 141.92 14.5277 143.488C15.7597 145.056 17.4211 145.84 19.5117 145.84C20.9304 145.84 22.1811 145.485 23.2637 144.776C24.3837 144.029 25.2424 143.003 25.8397 141.696H38.9437C38.3837 144.832 37.2451 147.576 35.5277 149.928C33.8477 152.28 31.6451 154.109 28.9197 155.416C26.2317 156.685 23.1704 157.32 19.7357 157.32C17.9414 157.32 13.8045 157.264 9.24776 157.201L9.2435 157.201L9.23108 157.201C6.14663 157.159 2.87097 157.114 0 157.083V173.672H18.5677V213.32H0V258C0 266.837 7.16344 274 16 274H310C343.137 274 370 247.137 370 214V78.9251ZM109.446 94.592H121.43V104H97.0137V55H109.446V94.592ZM12.8675 79.8081H17.6835C18.8035 79.8081 19.6249 79.5841 20.1475 79.136C20.7075 78.688 20.9875 77.9974 20.9875 77.064C20.9875 76.0934 20.7075 75.384 20.1475 74.9361C19.6249 74.4507 18.8035 74.2081 17.6835 74.2081H12.8675V79.8081ZM18.5235 94.0321C19.6435 94.0321 20.4649 93.8267 20.9875 93.416C21.5475 92.968 21.8275 92.2587 21.8275 91.288C21.8275 89.384 20.7262 88.4321 18.5235 88.4321H12.8675V94.0321H18.5235ZM50.8688 64.3521V86.6961C50.8688 88.5254 51.2608 89.9814 52.0448 91.064C52.8661 92.1094 54.1728 92.632 55.9648 92.632C57.7568 92.632 59.0821 92.1094 59.9408 91.064C60.7995 89.9814 61.2288 88.5254 61.2288 86.6961V64.3521H73.6048V86.6961C73.6048 90.4667 72.8208 93.6961 71.2528 96.384C69.6848 99.0347 67.5381 101.032 64.8128 102.376C62.0875 103.72 59.0448 104.392 55.6848 104.392C52.3248 104.392 49.3381 103.72 46.7248 102.376C44.1488 101.032 42.1328 99.0347 40.6768 96.384C39.2208 93.7334 38.4928 90.5041 38.4928 86.6961V64.3521H50.8688ZM91.3988 104V64.3521H78.9668V104H91.3988ZM152.726 66.872C149.627 65.192 146.006 64.3521 141.862 64.3521H125.342V104H141.862C146.006 104 149.627 103.141 152.726 101.424C155.862 99.6694 158.27 97.2801 159.95 94.2561C161.63 91.232 162.47 87.8347 162.47 84.064C162.47 80.2561 161.63 76.8587 159.95 73.872C158.27 70.8854 155.862 68.552 152.726 66.872ZM147.406 90.6161C145.763 92.1467 143.542 92.912 140.742 92.912H137.774V75.216H140.742C143.542 75.216 145.763 75.9814 147.406 77.5121C149.048 79.0427 149.87 81.2267 149.87 84.064C149.87 86.9014 149.048 89.0854 147.406 90.6161ZM63.3558 157.04L55.9078 142.816H55.8518V157.04H43.4198V117.392H61.8998C65.1105 117.392 67.8545 117.971 70.1318 119.128C72.4091 120.248 74.1078 121.797 75.2278 123.776C76.3851 125.717 76.9638 127.92 76.9638 130.384C76.9638 133.035 76.2171 135.387 74.7238 137.44C73.2678 139.493 71.1585 140.968 68.3958 141.864L77.0198 157.04H63.3558ZM55.8518 134.528H60.7798C61.9745 134.528 62.8705 134.267 63.4678 133.744C64.0651 133.184 64.3638 132.325 64.3638 131.168C64.3638 130.123 64.0465 129.301 63.4118 128.704C62.8145 128.107 61.9371 127.808 60.7798 127.808H55.8518V134.528ZM93.3674 132.176V127.304H107.367V117.392H80.9354V157.04H107.367V147.128H93.3674V141.528H105.687V132.176H93.3674ZM124.261 151.048L122.301 157.04H109.253L123.757 117.392H138.093L152.541 157.04H139.437L137.477 151.048H124.261ZM134.453 141.696L130.869 130.664L127.285 141.696H134.453ZM186.501 127.248V117.392H144.636V127.248H163.541V157.04H175.973V127.248H186.501ZM202.305 127.304V132.176H214.625V141.528H202.305V147.128H216.305V157.04H189.873V117.392H216.305V127.304H202.305ZM195.525 173.672L182.197 213.32H166.125L151.112 169H163.636L174.189 200.944L182.309 173.672H195.525ZM120.48 211.08C123.616 212.835 127.051 213.712 130.784 213.712C134.48 213.712 137.877 212.835 140.976 211.08C144.112 209.325 146.576 206.899 148.368 203.8C150.197 200.701 151.112 197.211 151.112 193.328C151.112 189.445 150.197 185.955 148.368 182.856C146.576 179.757 144.131 177.349 141.032 175.632C137.933 173.877 134.517 173 130.784 173C127.051 173 123.616 173.877 120.48 175.632C117.381 177.349 114.917 179.757 113.088 182.856C111.259 185.955 110.344 189.445 110.344 193.328C110.344 197.211 111.259 200.701 113.088 203.8C114.917 206.899 117.381 209.325 120.48 211.08ZM136.496 199.768C135.152 201.336 133.248 202.12 130.784 202.12C128.283 202.12 126.36 201.336 125.016 199.768C123.672 198.163 123 196.016 123 193.328C123 190.603 123.672 188.456 125.016 186.888C126.36 185.283 128.283 184.48 130.784 184.48C133.248 184.48 135.152 185.283 136.496 186.888C137.84 188.456 138.512 190.603 138.512 193.328C138.512 196.016 137.84 198.163 136.496 199.768ZM49.7746 213.32H62.2066V173.672H49.7746V193.944L36.6146 173.672H24.1826V221.5H36.6146V193.384L49.7746 213.32ZM105.847 213.32H93.4152L80.2552 193.384V213.32H67.8232V173.672H80.2552L93.4152 193.944V173.672H105.847V213.32ZM210.516 207.328H223.732L225.692 213.32H238.796L224.348 173.672H210.012L195.508 213.32H208.556L210.516 207.328ZM217.124 186.944L220.708 197.976H213.54L217.124 186.944ZM272.756 173.672V183.528H262.228V213.32H249.796V183.528H239.38V173.672H272.756ZM288.56 188.456V183.584H302.56V173.672H276.128V213.32H311.136V203.8L288.56 203.408V197.808H300.88V188.456H288.56Z" fill="url(#paint0_linear_844_622)"/>
<defs>
<linearGradient id="paint0_linear_844_622" x1="37.5" y1="247.5" x2="335.5" y2="31.5" gradientUnits="userSpaceOnUse">
<stop stop-color="#BF82FF"/>
<stop offset="0.288364" stop-color="#8372FC"/>
<stop offset="0.746608" stop-color="#6A75FB"/>
<stop offset="0.897516" stop-color="#B9B3D2"/>
<stop offset="0.974095" stop-color="#8BE2D7"/>
</linearGradient>
</defs>
</svg>
