<svg width="371" height="141" viewBox="0 0 371 141" fill="none" xmlns="http://www.w3.org/2000/svg">
<path d="M67.032 56.15C67.032 55.2833 66.8404 54.5417 66.457 53.925C66.0737 53.2917 65.5487 52.8167 64.882 52.5C64.232 52.1667 63.507 52 62.707 52C61.557 52 60.5737 52.3667 59.757 53.1C58.957 53.8333 58.4987 54.85 58.382 56.15H67.032Z" fill="url(#paint0_linear_844_641)"/>
<path d="M37.5 88.1C37.5 87.0667 37.2917 86.1667 36.875 85.4C36.4583 84.6333 35.8917 84.05 35.175 83.65C34.475 83.25 33.7 83.05 32.85 83.05C32.0167 83.05 31.2417 83.2583 30.525 83.675C29.825 84.075 29.2583 84.6667 28.825 85.45C28.4083 86.2167 28.2 87.1083 28.2 88.125C28.2 89.1583 28.4083 90.0667 28.825 90.85C29.2583 91.6167 29.825 92.2083 30.525 92.625C31.2417 93.025 32.0167 93.225 32.85 93.225C33.7 93.225 34.475 93.025 35.175 92.625C35.8917 92.2083 36.4583 91.6167 36.875 90.85C37.2917 90.0667 37.5 89.15 37.5 88.1Z" fill="url(#paint1_linear_844_641)"/>
<path d="M58.1207 93.225C58.9374 93.225 59.704 93.0333 60.4207 92.65C61.1374 92.2667 61.7124 91.6917 62.1457 90.925C62.5957 90.1583 62.8207 89.225 62.8207 88.125C62.8207 87.025 62.604 86.0917 62.1707 85.325C61.7374 84.5583 61.1707 83.9917 60.4707 83.625C59.7707 83.2417 59.0124 83.05 58.1957 83.05C57.3624 83.05 56.5957 83.2417 55.8957 83.625C55.2124 83.9917 54.6624 84.5583 54.2457 85.325C53.829 86.0917 53.6207 87.025 53.6207 88.125C53.6207 89.2417 53.8207 90.1833 54.2207 90.95C54.6374 91.7167 55.1874 92.2917 55.8707 92.675C56.554 93.0417 57.304 93.225 58.1207 93.225Z" fill="url(#paint2_linear_844_641)"/>
<path d="M84.4881 87.15C84.4881 86.2833 84.2964 85.5417 83.9131 84.925C83.5298 84.2917 83.0048 83.8167 82.3381 83.5C81.6881 83.1667 80.9631 83 80.1631 83C79.0131 83 78.0298 83.3667 77.2131 84.1C76.4131 84.8333 75.9548 85.85 75.8381 87.15H84.4881Z" fill="url(#paint3_linear_844_641)"/>
<path fill-rule="evenodd" clip-rule="evenodd" d="M203 75.4C192.6 86.2 178.467 98.2667 160.6 111.6V141H60C26.8629 141 0 114.137 0 81V16C0 7.16345 7.16344 0 16 0L196.175 2.45473e-09C193.221 0.844039 190.363 1.9107 187.6 3.19999C179.6 6.93332 173.067 12.8 168 20.8C163.067 28.8 160.4 39 160 51.4H203C202.6 45.8 203.133 41.6667 204.6 39C206.2 36.2 208.333 34.8 211 34.8C213.267 34.8 215.067 35.6667 216.4 37.4C217.867 39.1333 218.6 41.6 218.6 44.8C218.6 54.2667 213.4 64.4667 203 75.4ZM28.2 62.15H34.3V64H25.925V46.575H28.2V62.15ZM37.891 48.075C37.4577 48.075 37.091 47.925 36.791 47.625C36.491 47.325 36.341 46.9583 36.341 46.525C36.341 46.0917 36.491 45.725 36.791 45.425C37.091 45.125 37.4577 44.975 37.891 44.975C38.3077 44.975 38.6577 45.125 38.941 45.425C39.241 45.725 39.391 46.0917 39.391 46.525C39.391 46.9583 39.241 47.325 38.941 47.625C38.6577 47.925 38.3077 48.075 37.891 48.075ZM38.991 50.3V64H36.716V50.3H38.991ZM47.9684 61.9L52.2184 50.3H54.6434L49.2684 64H46.6184L41.2434 50.3H43.6934L47.9684 61.9ZM69.382 56.625C69.382 57.0583 69.357 57.5167 69.307 58H58.357C58.4404 59.35 58.8987 60.4083 59.732 61.175C60.582 61.925 61.607 62.3 62.807 62.3C63.7904 62.3 64.607 62.075 65.257 61.625C65.9237 61.1583 66.3904 60.5417 66.657 59.775H69.107C68.7404 61.0917 68.007 62.1667 66.907 63C65.807 63.8167 64.4404 64.225 62.807 64.225C61.507 64.225 60.3404 63.9333 59.307 63.35C58.2904 62.7667 57.4904 61.9417 56.907 60.875C56.3237 59.7917 56.032 58.5417 56.032 57.125C56.032 55.7083 56.3154 54.4667 56.882 53.4C57.4487 52.3333 58.2404 51.5167 59.257 50.95C60.2904 50.3667 61.4737 50.075 62.807 50.075C64.107 50.075 65.257 50.3583 66.257 50.925C67.257 51.4917 68.0237 52.275 68.557 53.275C69.107 54.2583 69.382 55.375 69.382 56.625ZM28.2 83.825C28.65 83.0417 29.3167 82.3917 30.2 81.875C31.1 81.3417 32.1417 81.075 33.325 81.075C34.5417 81.075 35.6417 81.3667 36.625 81.95C37.625 82.5333 38.4083 83.3583 38.975 84.425C39.5417 85.475 39.825 86.7 39.825 88.1C39.825 89.4833 39.5417 90.7167 38.975 91.8C38.4083 92.8833 37.625 93.725 36.625 94.325C35.6417 94.925 34.5417 95.225 33.325 95.225C32.1583 95.225 31.125 94.9667 30.225 94.45C29.3417 93.9167 28.6667 93.2583 28.2 92.475V101.5H25.925V81.3H28.2V83.825ZM45.0945 83.525C45.4945 82.7417 46.0612 82.1333 46.7945 81.7C47.5445 81.2667 48.4529 81.05 49.5195 81.05V83.4H48.9195C46.3695 83.4 45.0945 84.7833 45.0945 87.55V95H42.8195V81.3H45.0945V83.525ZM58.1207 95.225C56.8374 95.225 55.6707 94.9333 54.6207 94.35C53.5874 93.7667 52.7707 92.9417 52.1707 91.875C51.5874 90.7917 51.2957 89.5417 51.2957 88.125C51.2957 86.725 51.5957 85.4917 52.1957 84.425C52.8124 83.3417 53.6457 82.5167 54.6957 81.95C55.7457 81.3667 56.9207 81.075 58.2207 81.075C59.5207 81.075 60.6957 81.3667 61.7457 81.95C62.7957 82.5167 63.6207 83.3333 64.2207 84.4C64.8374 85.4667 65.1457 86.7083 65.1457 88.125C65.1457 89.5417 64.829 90.7917 64.1957 91.875C63.579 92.9417 62.7374 93.7667 61.6707 94.35C60.604 94.9333 59.4207 95.225 58.1207 95.225ZM69.3619 79.075C68.9286 79.075 68.5619 78.925 68.2619 78.625C67.9786 78.325 67.8369 77.9583 67.8369 77.525C67.8369 77.0917 67.9786 76.725 68.2619 76.425C68.5619 76.125 68.9286 75.975 69.3619 75.975C69.7952 75.975 70.1536 76.125 70.4369 76.425C70.7369 76.725 70.8869 77.0917 70.8869 77.525C70.8869 77.9583 70.7369 78.325 70.4369 78.625C70.1536 78.925 69.7952 79.075 69.3619 79.075ZM70.4869 97.975C70.4869 99.1917 70.1786 100.083 69.5619 100.65C68.9452 101.217 68.0452 101.5 66.8619 101.5H65.5369V99.575H66.4869C67.1202 99.575 67.5619 99.45 67.8119 99.2C68.0786 98.95 68.2119 98.525 68.2119 97.925V81.3H70.4869V97.975ZM86.8381 87.625C86.8381 88.0583 86.8131 88.5167 86.7631 89H75.8131C75.8964 90.35 76.3548 91.4083 77.1881 92.175C78.0381 92.925 79.0631 93.3 80.2631 93.3C81.2464 93.3 82.0631 93.075 82.7131 92.625C83.3798 92.1583 83.8464 91.5417 84.1131 90.775H86.5631C86.1964 92.0917 85.4631 93.1667 84.3631 94C83.2631 94.8167 81.8964 95.225 80.2631 95.225C78.9631 95.225 77.7964 94.9333 76.7631 94.35C75.7464 93.7667 74.9464 92.9417 74.3631 91.875C73.7798 90.7917 73.4881 89.5417 73.4881 88.125C73.4881 86.7083 73.7714 85.4667 74.3381 84.4C74.9048 83.3333 75.6964 82.5167 76.7131 81.95C77.7464 81.3667 78.9298 81.075 80.2631 81.075C81.5631 81.075 82.7131 81.3583 83.7131 81.925C84.7131 82.4917 85.4798 83.275 86.0131 84.275C86.5631 85.2583 86.8381 86.375 86.8381 87.625ZM88.991 88.125C88.991 86.7083 89.2743 85.475 89.841 84.425C90.4077 83.3583 91.191 82.5333 92.191 81.95C93.2077 81.3667 94.366 81.075 95.666 81.075C97.3493 81.075 98.7327 81.4833 99.816 82.3C100.916 83.1167 101.641 84.25 101.991 85.7H99.541C99.3077 84.8667 98.8493 84.2083 98.166 83.725C97.4994 83.2417 96.666 83 95.666 83C94.366 83 93.316 83.45 92.516 84.35C91.716 85.2333 91.316 86.4917 91.316 88.125C91.316 89.775 91.716 91.05 92.516 91.95C93.316 92.85 94.366 93.3 95.666 93.3C96.666 93.3 97.4994 93.0667 98.166 92.6C98.8327 92.1333 99.291 91.4667 99.541 90.6H101.991C101.624 92 100.891 93.125 99.791 93.975C98.691 94.8083 97.316 95.225 95.666 95.225C94.366 95.225 93.2077 94.9333 92.191 94.35C91.191 93.7667 90.4077 92.9417 89.841 91.875C89.2743 90.8083 88.991 89.5583 88.991 88.125ZM107.802 83.175V91.25C107.802 91.9167 107.943 92.3917 108.227 92.675C108.51 92.9417 109.002 93.075 109.702 93.075H111.377V95H109.327C108.06 95 107.11 94.7083 106.477 94.125C105.843 93.5417 105.527 92.5833 105.527 91.25V83.175H103.752V81.3H105.527V77.85H107.802V81.3H111.377V83.175H107.802ZM118.983 95.225C117.933 95.225 116.991 95.05 116.158 94.7C115.325 94.3333 114.666 93.8333 114.183 93.2C113.7 92.55 113.433 91.8083 113.383 90.975H115.733C115.8 91.6583 116.116 92.2167 116.683 92.65C117.266 93.0833 118.025 93.3 118.958 93.3C119.825 93.3 120.508 93.1083 121.008 92.725C121.508 92.3417 121.758 91.8583 121.758 91.275C121.758 90.675 121.491 90.2333 120.958 89.95C120.425 89.65 119.6 89.3583 118.483 89.075C117.466 88.8083 116.633 88.5417 115.983 88.275C115.35 87.9917 114.8 87.5833 114.333 87.05C113.883 86.5 113.658 85.7833 113.658 84.9C113.658 84.2 113.866 83.5583 114.283 82.975C114.7 82.3917 115.291 81.9333 116.058 81.6C116.825 81.25 117.7 81.075 118.683 81.075C120.2 81.075 121.425 81.4583 122.358 82.225C123.291 82.9917 123.791 84.0417 123.858 85.375H121.583C121.533 84.6583 121.241 84.0833 120.708 83.65C120.191 83.2167 119.491 83 118.608 83C117.791 83 117.141 83.175 116.658 83.525C116.175 83.875 115.933 84.3333 115.933 84.9C115.933 85.35 116.075 85.725 116.358 86.025C116.658 86.3083 117.025 86.5417 117.458 86.725C117.908 86.8917 118.525 87.0833 119.308 87.3C120.291 87.5667 121.091 87.8333 121.708 88.1C122.325 88.35 122.85 88.7333 123.283 89.25C123.733 89.7667 123.966 90.4417 123.983 91.275C123.983 92.025 123.775 92.7 123.358 93.3C122.941 93.9 122.35 94.375 121.583 94.725C120.833 95.0583 119.966 95.225 118.983 95.225Z" fill="url(#paint4_linear_844_641)"/>
<path d="M233.854 0C241.146 2.03685 246.994 5.37018 251.4 9.99999C259.4 18.1333 263.4 28.6 263.4 41.4C263.4 54.8667 259.067 67.5333 250.4 79.4C241.867 91.1333 231.133 101.067 218.2 109.2H264V141H273.881V111.6C291.748 98.2667 305.881 86.2 316.281 75.4C326.681 64.4667 331.881 54.2667 331.881 44.8C331.881 41.6 331.148 39.1333 329.681 37.4C328.348 35.6667 326.548 34.8 324.281 34.8C321.615 34.8 319.481 36.2 317.881 39C316.415 41.6667 315.881 45.8 316.281 51.4H273.281C273.681 39 276.348 28.8 281.281 20.8C286.348 12.8 292.881 6.93332 300.881 3.19999C303.644 1.9107 306.502 0.844039 309.456 2.45473e-09L233.854 0Z" fill="url(#paint5_linear_844_641)"/>
<path d="M371 67.0586C369.058 71.2643 366.619 75.3781 363.681 79.4C355.148 91.1333 344.415 101.067 331.481 109.2H371V67.0586Z" fill="url(#paint6_linear_844_641)"/>
<defs>
<linearGradient id="paint0_linear_844_641" x1="37.6013" y1="127.363" x2="189.8" y2="-87.5939" gradientUnits="userSpaceOnUse">
<stop stop-color="#BF82FF"/>
<stop offset="0.288364" stop-color="#8372FC"/>
<stop offset="0.746608" stop-color="#6A75FB"/>
<stop offset="0.897516" stop-color="#B9B3D2"/>
<stop offset="0.974095" stop-color="#8BE2D7"/>
</linearGradient>
<linearGradient id="paint1_linear_844_641" x1="37.6013" y1="127.363" x2="189.8" y2="-87.5939" gradientUnits="userSpaceOnUse">
<stop stop-color="#BF82FF"/>
<stop offset="0.288364" stop-color="#8372FC"/>
<stop offset="0.746608" stop-color="#6A75FB"/>
<stop offset="0.897516" stop-color="#B9B3D2"/>
<stop offset="0.974095" stop-color="#8BE2D7"/>
</linearGradient>
<linearGradient id="paint2_linear_844_641" x1="37.6013" y1="127.363" x2="189.8" y2="-87.5939" gradientUnits="userSpaceOnUse">
<stop stop-color="#BF82FF"/>
<stop offset="0.288364" stop-color="#8372FC"/>
<stop offset="0.746608" stop-color="#6A75FB"/>
<stop offset="0.897516" stop-color="#B9B3D2"/>
<stop offset="0.974095" stop-color="#8BE2D7"/>
</linearGradient>
<linearGradient id="paint3_linear_844_641" x1="37.6013" y1="127.363" x2="189.8" y2="-87.5939" gradientUnits="userSpaceOnUse">
<stop stop-color="#BF82FF"/>
<stop offset="0.288364" stop-color="#8372FC"/>
<stop offset="0.746608" stop-color="#6A75FB"/>
<stop offset="0.897516" stop-color="#B9B3D2"/>
<stop offset="0.974095" stop-color="#8BE2D7"/>
</linearGradient>
<linearGradient id="paint4_linear_844_641" x1="37.6013" y1="127.363" x2="189.8" y2="-87.5939" gradientUnits="userSpaceOnUse">
<stop stop-color="#BF82FF"/>
<stop offset="0.288364" stop-color="#8372FC"/>
<stop offset="0.746608" stop-color="#6A75FB"/>
<stop offset="0.897516" stop-color="#B9B3D2"/>
<stop offset="0.974095" stop-color="#8BE2D7"/>
</linearGradient>
<linearGradient id="paint5_linear_844_641" x1="37.6013" y1="127.363" x2="189.8" y2="-87.5939" gradientUnits="userSpaceOnUse">
<stop stop-color="#BF82FF"/>
<stop offset="0.288364" stop-color="#8372FC"/>
<stop offset="0.746608" stop-color="#6A75FB"/>
<stop offset="0.897516" stop-color="#B9B3D2"/>
<stop offset="0.974095" stop-color="#8BE2D7"/>
</linearGradient>
<linearGradient id="paint6_linear_844_641" x1="37.6013" y1="127.363" x2="189.8" y2="-87.5939" gradientUnits="userSpaceOnUse">
<stop stop-color="#BF82FF"/>
<stop offset="0.288364" stop-color="#8372FC"/>
<stop offset="0.746608" stop-color="#6A75FB"/>
<stop offset="0.897516" stop-color="#B9B3D2"/>
<stop offset="0.974095" stop-color="#8BE2D7"/>
</linearGradient>
</defs>
</svg>
