<svg width="365" height="141" viewBox="0 0 365 141" fill="none" xmlns="http://www.w3.org/2000/svg">
<path d="M232 43.2C231.2 39.2 230 36.2667 228.4 34.4C226.933 32.5333 224.6 31.6 221.4 31.6C216.333 31.6 212.933 34.2 211.2 39.4C209.6 44.4667 208.8 52.4 208.8 63.2C211.2 59.4667 214.667 56.5333 219.2 54.4C223.733 52.2667 228.867 51.2 234.6 51.2C247.4 51.2 257.6 55.1333 265.2 63C272.933 70.8667 276.8 82.2667 276.8 97.2C276.8 107.2 274.667 115.933 270.4 123.4C266.267 130.733 260.333 136.4 252.6 140.4C252.203 140.605 251.803 140.805 251.398 141H286.463L330.763 36.8H279.163V0H246.064C251.583 2.25925 256.229 5.52591 260 9.79999C268.133 18.8667 272.6 30 273.4 43.2H232Z" fill="url(#paint0_linear_778_668)"/>
<path d="M48.7229 54.425C49.1395 55.1917 49.3479 56.0917 49.3479 57.125C49.3479 58.1583 49.1395 59.0667 48.7229 59.85C48.3062 60.6167 47.7395 61.2083 47.0229 61.625C46.3229 62.025 45.5479 62.225 44.6979 62.225C43.8479 62.225 43.0729 62.025 42.3729 61.625C41.6729 61.2083 41.1145 60.6167 40.6979 59.85C40.2812 59.0667 40.0729 58.15 40.0729 57.1C40.0729 56.0667 40.2812 55.1667 40.6979 54.4C41.1145 53.6333 41.6729 53.05 42.3729 52.65C43.0729 52.25 43.8479 52.05 44.6979 52.05C45.5479 52.05 46.3229 52.2583 47.0229 52.675C47.7395 53.075 48.3062 53.6583 48.7229 54.425Z" fill="url(#paint1_linear_778_668)"/>
<path d="M107.768 53.925C108.151 54.5417 108.343 55.2833 108.343 56.15H99.6926C99.8092 54.85 100.268 53.8333 101.068 53.1C101.884 52.3667 102.868 52 104.018 52C104.818 52 105.543 52.1667 106.193 52.5C106.859 52.8167 107.384 53.2917 107.768 53.925Z" fill="url(#paint2_linear_778_668)"/>
<path d="M123.821 54.425C124.237 55.1917 124.446 56.0917 124.446 57.125C124.446 58.1583 124.237 59.0667 123.821 59.85C123.404 60.6167 122.837 61.2083 122.121 61.625C121.421 62.025 120.646 62.225 119.796 62.225C118.946 62.225 118.171 62.025 117.471 61.625C116.771 61.2083 116.212 60.6167 115.796 59.85C115.379 59.0667 115.171 58.15 115.171 57.1C115.171 56.0667 115.379 55.1667 115.796 54.4C116.212 53.6333 116.771 53.05 117.471 52.65C118.171 52.25 118.946 52.05 119.796 52.05C120.646 52.05 121.421 52.2583 122.121 52.675C122.837 53.075 123.404 53.6583 123.821 54.425Z" fill="url(#paint3_linear_778_668)"/>
<path d="M65.1162 84.925C65.4995 85.5417 65.6912 86.2833 65.6912 87.15H57.0412C57.1579 85.85 57.6162 84.8333 58.4162 84.1C59.2329 83.3667 60.2162 83 61.3662 83C62.1662 83 62.8912 83.1667 63.5412 83.5C64.2079 83.8167 64.7329 84.2917 65.1162 84.925Z" fill="url(#paint4_linear_778_668)"/>
<path fill-rule="evenodd" clip-rule="evenodd" d="M60 141H197.295C190.652 137.812 185.42 133.212 181.6 127.2C173.467 114.267 169.4 96.2 169.4 73C169.4 54.8667 171.267 40.2 175 29C178.733 17.8 184.6 9.53333 192.6 4.19999C195.128 2.54241 197.887 1.14241 200.879 0H16C7.16344 0 0 7.16345 0 16V81C0 114.137 26.8629 141 60 141ZM26.35 63.575C27.2667 63.975 28.3 64.175 29.45 64.175C30.65 64.175 31.6917 63.9417 32.575 63.475C33.4583 63.0083 34.125 62.4 34.575 61.65C35.025 60.9 35.25 60.1 35.25 59.25C35.25 58.15 35 57.2833 34.5 56.65C34 56 33.4 55.525 32.7 55.225C32 54.9083 31.075 54.5917 29.925 54.275C28.975 54.0083 28.2333 53.775 27.7 53.575C27.1833 53.3583 26.7417 53.05 26.375 52.65C26.025 52.25 25.85 51.7333 25.85 51.1C25.85 50.2167 26.15 49.5333 26.75 49.05C27.35 48.55 28.125 48.3 29.075 48.3C30.0917 48.3 30.9083 48.5583 31.525 49.075C32.1417 49.575 32.4917 50.1583 32.575 50.825H35.075C34.9417 49.475 34.35 48.3917 33.3 47.575C32.2667 46.7583 30.9333 46.35 29.3 46.35C28.1667 46.35 27.1583 46.55 26.275 46.95C25.4083 47.35 24.7333 47.9167 24.25 48.65C23.7667 49.3833 23.525 50.225 23.525 51.175C23.525 52.2583 23.7667 53.125 24.25 53.775C24.75 54.4083 25.3417 54.875 26.025 55.175C26.725 55.475 27.65 55.775 28.8 56.075C29.7333 56.325 30.475 56.5583 31.025 56.775C31.575 56.9917 32.0333 57.3083 32.4 57.725C32.7667 58.1417 32.95 58.6833 32.95 59.35C32.95 60.2 32.6333 60.9 32 61.45C31.3833 61.9833 30.5333 62.25 29.45 62.25C28.3167 62.25 27.45 61.975 26.85 61.425C26.2667 60.8583 25.9333 60.1667 25.85 59.35H23.425C23.4417 60.3 23.7083 61.1417 24.225 61.875C24.7417 62.5917 25.45 63.1583 26.35 63.575ZM38.5979 53.425C38.0312 54.475 37.7479 55.7 37.7479 57.1C37.7479 58.4833 38.0312 59.7167 38.5979 60.8C39.1645 61.8833 39.9395 62.725 40.9229 63.325C41.9062 63.925 43.0062 64.225 44.2229 64.225C45.4062 64.225 46.4395 63.9667 47.3229 63.45C48.2229 62.9167 48.8979 62.25 49.3479 61.45V64H51.6479V50.3H49.3479V52.8C48.9145 52.0167 48.2562 51.3667 47.3729 50.85C46.4895 50.3333 45.4479 50.075 44.2479 50.075C43.0312 50.075 41.9229 50.3667 40.9229 50.95C39.9395 51.5333 39.1645 52.3583 38.5979 53.425ZM58.2674 60.25V52.175H61.8424V50.3H58.2674V46.85H55.9924V50.3H54.2174V52.175H55.9924V60.25C55.9924 61.5833 56.309 62.5417 56.9424 63.125C57.5757 63.7083 58.5257 64 59.7924 64H61.8424V62.075H60.1674C59.4674 62.075 58.9757 61.9417 58.6924 61.675C58.409 61.3917 58.2674 60.9167 58.2674 60.25ZM64.6738 47.625C64.9738 47.925 65.3405 48.075 65.7738 48.075C66.1905 48.075 66.5405 47.925 66.8238 47.625C67.1238 47.325 67.2738 46.9583 67.2738 46.525C67.2738 46.0917 67.1238 45.725 66.8238 45.425C66.5405 45.125 66.1905 44.975 65.7738 44.975C65.3405 44.975 64.9738 45.125 64.6738 45.425C64.3738 45.725 64.2238 46.0917 64.2238 46.525C64.2238 46.9583 64.3738 47.325 64.6738 47.625ZM66.8738 64V50.3H64.5988V64H66.8738ZM72.7762 63.7C73.6095 64.05 74.5512 64.225 75.6012 64.225C76.5845 64.225 77.4512 64.0583 78.2012 63.725C78.9678 63.375 79.5595 62.9 79.9762 62.3C80.3928 61.7 80.6012 61.025 80.6012 60.275C80.5845 59.4417 80.3512 58.7667 79.9012 58.25C79.4678 57.7333 78.9428 57.35 78.3262 57.1C77.7095 56.8333 76.9095 56.5667 75.9262 56.3C75.1428 56.0833 74.5262 55.8917 74.0762 55.725C73.6428 55.5417 73.2762 55.3083 72.9762 55.025C72.6928 54.725 72.5512 54.35 72.5512 53.9C72.5512 53.3333 72.7928 52.875 73.2762 52.525C73.7595 52.175 74.4095 52 75.2262 52C76.1095 52 76.8095 52.2167 77.3262 52.65C77.8595 53.0833 78.1512 53.6583 78.2012 54.375H80.4762C80.4095 53.0417 79.9095 51.9917 78.9762 51.225C78.0428 50.4583 76.8178 50.075 75.3012 50.075C74.3178 50.075 73.4428 50.25 72.6762 50.6C71.9095 50.9333 71.3178 51.3917 70.9012 51.975C70.4845 52.5583 70.2762 53.2 70.2762 53.9C70.2762 54.7833 70.5012 55.5 70.9512 56.05C71.4178 56.5833 71.9678 56.9917 72.6012 57.275C73.2512 57.5417 74.0845 57.8083 75.1012 58.075C76.2178 58.3583 77.0428 58.65 77.5762 58.95C78.1095 59.2333 78.3762 59.675 78.3762 60.275C78.3762 60.8583 78.1262 61.3417 77.6262 61.725C77.1262 62.1083 76.4428 62.3 75.5762 62.3C74.6428 62.3 73.8845 62.0833 73.3012 61.65C72.7345 61.2167 72.4178 60.6583 72.3512 59.975H70.0012C70.0512 60.8083 70.3178 61.55 70.8012 62.2C71.2845 62.8333 71.9428 63.3333 72.7762 63.7ZM86.5127 52.175H89.3877V50.3H86.5127V49.325C86.5127 48.425 86.7127 47.7833 87.1127 47.4C87.5294 47 88.2377 46.8 89.2377 46.8V44.9C87.4877 44.9 86.2127 45.2583 85.4127 45.975C84.6294 46.675 84.2377 47.7917 84.2377 49.325V50.3H82.4627V52.175H84.2377V64H86.5127V52.175ZM92.1152 47.625C92.4152 47.925 92.7819 48.075 93.2152 48.075C93.6319 48.075 93.9819 47.925 94.2652 47.625C94.5652 47.325 94.7152 46.9583 94.7152 46.525C94.7152 46.0917 94.5652 45.725 94.2652 45.425C93.9819 45.125 93.6319 44.975 93.2152 44.975C92.7819 44.975 92.4152 45.125 92.1152 45.425C91.8152 45.725 91.6652 46.0917 91.6652 46.525C91.6652 46.9583 91.8152 47.325 92.1152 47.625ZM94.3152 64V50.3H92.0402V64H94.3152ZM110.618 58C110.668 57.5167 110.693 57.0583 110.693 56.625C110.693 55.375 110.418 54.2583 109.868 53.275C109.334 52.275 108.568 51.4917 107.568 50.925C106.568 50.3583 105.418 50.075 104.118 50.075C102.784 50.075 101.601 50.3667 100.568 50.95C99.5509 51.5167 98.7592 52.3333 98.1926 53.4C97.6259 54.4667 97.3426 55.7083 97.3426 57.125C97.3426 58.5417 97.6342 59.7917 98.2176 60.875C98.8009 61.9417 99.6009 62.7667 100.618 63.35C101.651 63.9333 102.818 64.225 104.118 64.225C105.751 64.225 107.118 63.8167 108.218 63C109.318 62.1667 110.051 61.0917 110.418 59.775H107.968C107.701 60.5417 107.234 61.1583 106.568 61.625C105.918 62.075 105.101 62.3 104.118 62.3C102.918 62.3 101.893 61.925 101.043 61.175C100.209 60.4083 99.7509 59.35 99.6676 58H110.618ZM113.696 53.425C113.129 54.475 112.846 55.7 112.846 57.1C112.846 58.4833 113.129 59.7167 113.696 60.8C114.262 61.8833 115.037 62.725 116.021 63.325C117.021 63.925 118.129 64.225 119.346 64.225C120.529 64.225 121.562 63.9667 122.446 63.45C123.329 62.9167 123.996 62.2417 124.446 61.425V64H126.746V45.5H124.446V52.75C123.962 51.95 123.262 51.3083 122.346 50.825C121.429 50.325 120.437 50.075 119.371 50.075C118.137 50.075 117.021 50.3667 116.021 50.95C115.037 51.5333 114.262 52.3583 113.696 53.425ZM24.225 81.7C23.4583 83.05 23.075 84.575 23.075 86.275C23.075 87.975 23.4583 89.5 24.225 90.85C24.9917 92.2 26.0333 93.2583 27.35 94.025C28.6833 94.775 30.1583 95.15 31.775 95.15C33.675 95.15 35.3333 94.7 36.75 93.8C38.1667 92.8833 39.2 91.5917 39.85 89.925H37.125C36.6417 90.975 35.9417 91.7833 35.025 92.35C34.125 92.9 33.0417 93.175 31.775 93.175C30.5583 93.175 29.4667 92.8917 28.5 92.325C27.5333 91.7583 26.775 90.9583 26.225 89.925C25.675 88.875 25.4 87.6583 25.4 86.275C25.4 84.875 25.675 83.6583 26.225 82.625C26.775 81.575 27.5333 80.7667 28.5 80.2C29.4667 79.6333 30.5583 79.35 31.775 79.35C33.0417 79.35 34.125 79.6333 35.025 80.2C35.9417 80.7667 36.6417 81.575 37.125 82.625H39.85C39.2 80.9417 38.1667 79.6417 36.75 78.725C35.3333 77.8083 33.675 77.35 31.775 77.35C30.1583 77.35 28.6833 77.7333 27.35 78.5C26.0333 79.2667 24.9917 80.3333 24.225 81.7ZM45.5115 95V76.5H43.2365V95H45.5115ZM49.4639 78.625C49.7639 78.925 50.1305 79.075 50.5639 79.075C50.9805 79.075 51.3305 78.925 51.6139 78.625C51.9139 78.325 52.0639 77.9583 52.0639 77.525C52.0639 77.0917 51.9139 76.725 51.6139 76.425C51.3305 76.125 50.9805 75.975 50.5639 75.975C50.1305 75.975 49.7639 76.125 49.4639 76.425C49.1639 76.725 49.0139 77.0917 49.0139 77.525C49.0139 77.9583 49.1639 78.325 49.4639 78.625ZM51.6639 95V81.3H49.3889V95H51.6639ZM67.9662 89C68.0162 88.5167 68.0412 88.0583 68.0412 87.625C68.0412 86.375 67.7662 85.2583 67.2162 84.275C66.6829 83.275 65.9162 82.4917 64.9162 81.925C63.9162 81.3583 62.7662 81.075 61.4662 81.075C60.1329 81.075 58.9495 81.3667 57.9162 81.95C56.8995 82.5167 56.1079 83.3333 55.5412 84.4C54.9745 85.4667 54.6912 86.7083 54.6912 88.125C54.6912 89.5417 54.9829 90.7917 55.5662 91.875C56.1495 92.9417 56.9495 93.7667 57.9662 94.35C58.9995 94.9333 60.1662 95.225 61.4662 95.225C63.0995 95.225 64.4662 94.8167 65.5662 94C66.6662 93.1667 67.3995 92.0917 67.7662 90.775H65.3162C65.0495 91.5417 64.5829 92.1583 63.9162 92.625C63.2662 93.075 62.4495 93.3 61.4662 93.3C60.2662 93.3 59.2412 92.925 58.3912 92.175C57.5579 91.4083 57.0995 90.35 57.0162 89H67.9662ZM81.7691 82.575C80.7358 81.5583 79.3858 81.05 77.7191 81.05C76.7858 81.05 75.9275 81.2417 75.1441 81.625C74.3775 82.0083 73.7691 82.55 73.3191 83.25V81.3H71.0441V95H73.3191V87.425C73.3191 85.9917 73.6691 84.9 74.3691 84.15C75.0858 83.4 76.0441 83.025 77.2441 83.025C78.4275 83.025 79.3608 83.3917 80.0441 84.125C80.7275 84.8417 81.0691 85.8833 81.0691 87.25V95H83.3191V86.925C83.3191 85.025 82.8025 83.575 81.7691 82.575ZM89.8103 91.25V83.175H93.3854V81.3H89.8103V77.85H87.5354V81.3H85.7604V83.175H87.5354V91.25C87.5354 92.5833 87.852 93.5417 88.4854 94.125C89.1187 94.7083 90.0687 95 91.3354 95H93.3854V93.075H91.7104C91.0104 93.075 90.5187 92.9417 90.2354 92.675C89.952 92.3917 89.8103 91.9167 89.8103 91.25ZM98.1668 94.7C99.0001 95.05 99.9418 95.225 100.992 95.225C101.975 95.225 102.842 95.0583 103.592 94.725C104.358 94.375 104.95 93.9 105.367 93.3C105.783 92.7 105.992 92.025 105.992 91.275C105.975 90.4417 105.742 89.7667 105.292 89.25C104.858 88.7333 104.333 88.35 103.717 88.1C103.1 87.8333 102.3 87.5667 101.317 87.3C100.533 87.0833 99.9168 86.8917 99.4668 86.725C99.0335 86.5417 98.6668 86.3083 98.3668 86.025C98.0835 85.725 97.9418 85.35 97.9418 84.9C97.9418 84.3333 98.1835 83.875 98.6668 83.525C99.1501 83.175 99.8001 83 100.617 83C101.5 83 102.2 83.2167 102.717 83.65C103.25 84.0833 103.542 84.6583 103.592 85.375H105.867C105.8 84.0417 105.3 82.9917 104.367 82.225C103.433 81.4583 102.208 81.075 100.692 81.075C99.7085 81.075 98.8335 81.25 98.0668 81.6C97.3001 81.9333 96.7085 82.3917 96.2918 82.975C95.8751 83.5583 95.6668 84.2 95.6668 84.9C95.6668 85.7833 95.8918 86.5 96.3418 87.05C96.8085 87.5833 97.3585 87.9917 97.9918 88.275C98.6418 88.5417 99.4751 88.8083 100.492 89.075C101.608 89.3583 102.433 89.65 102.967 89.95C103.5 90.2333 103.767 90.675 103.767 91.275C103.767 91.8583 103.517 92.3417 103.017 92.725C102.517 93.1083 101.833 93.3 100.967 93.3C100.033 93.3 99.2751 93.0833 98.6918 92.65C98.1251 92.2167 97.8085 91.6583 97.7418 90.975H95.3918C95.4418 91.8083 95.7085 92.55 96.1918 93.2C96.6751 93.8333 97.3335 94.3333 98.1668 94.7Z" fill="url(#paint5_linear_778_668)"/>
<path d="M349 141H331.968L364.987 58.7423C364.996 59.1605 365 59.5797 365 60V125C365 133.837 357.837 141 349 141Z" fill="url(#paint6_linear_778_668)"/>
<path d="M223.6 85.2C220 85.2 217.133 86.2 215 88.2C212.867 90.2 211.8 93 211.8 96.6C211.8 100.6 212.8 103.6 214.8 105.6C216.933 107.467 219.867 108.4 223.6 108.4C227.333 108.4 230.2 107.467 232.2 105.6C234.333 103.6 235.4 100.6 235.4 96.6C235.4 93 234.333 90.2 232.2 88.2C230.067 86.2 227.2 85.2 223.6 85.2Z" fill="url(#paint7_linear_778_668)"/>
<defs>
<linearGradient id="paint0_linear_778_668" x1="36.9932" y1="127.363" x2="190" y2="-85.2407" gradientUnits="userSpaceOnUse">
<stop stop-color="#BF82FF"/>
<stop offset="0.288364" stop-color="#8372FC"/>
<stop offset="0.746608" stop-color="#6A75FB"/>
<stop offset="0.897516" stop-color="#B9B3D2"/>
<stop offset="0.974095" stop-color="#8BE2D7"/>
</linearGradient>
<linearGradient id="paint1_linear_778_668" x1="36.9932" y1="127.363" x2="190" y2="-85.2407" gradientUnits="userSpaceOnUse">
<stop stop-color="#BF82FF"/>
<stop offset="0.288364" stop-color="#8372FC"/>
<stop offset="0.746608" stop-color="#6A75FB"/>
<stop offset="0.897516" stop-color="#B9B3D2"/>
<stop offset="0.974095" stop-color="#8BE2D7"/>
</linearGradient>
<linearGradient id="paint2_linear_778_668" x1="36.9932" y1="127.363" x2="190" y2="-85.2407" gradientUnits="userSpaceOnUse">
<stop stop-color="#BF82FF"/>
<stop offset="0.288364" stop-color="#8372FC"/>
<stop offset="0.746608" stop-color="#6A75FB"/>
<stop offset="0.897516" stop-color="#B9B3D2"/>
<stop offset="0.974095" stop-color="#8BE2D7"/>
</linearGradient>
<linearGradient id="paint3_linear_778_668" x1="36.9932" y1="127.363" x2="190" y2="-85.2407" gradientUnits="userSpaceOnUse">
<stop stop-color="#BF82FF"/>
<stop offset="0.288364" stop-color="#8372FC"/>
<stop offset="0.746608" stop-color="#6A75FB"/>
<stop offset="0.897516" stop-color="#B9B3D2"/>
<stop offset="0.974095" stop-color="#8BE2D7"/>
</linearGradient>
<linearGradient id="paint4_linear_778_668" x1="36.9932" y1="127.363" x2="190" y2="-85.2407" gradientUnits="userSpaceOnUse">
<stop stop-color="#BF82FF"/>
<stop offset="0.288364" stop-color="#8372FC"/>
<stop offset="0.746608" stop-color="#6A75FB"/>
<stop offset="0.897516" stop-color="#B9B3D2"/>
<stop offset="0.974095" stop-color="#8BE2D7"/>
</linearGradient>
<linearGradient id="paint5_linear_778_668" x1="36.9932" y1="127.363" x2="190" y2="-85.2407" gradientUnits="userSpaceOnUse">
<stop stop-color="#BF82FF"/>
<stop offset="0.288364" stop-color="#8372FC"/>
<stop offset="0.746608" stop-color="#6A75FB"/>
<stop offset="0.897516" stop-color="#B9B3D2"/>
<stop offset="0.974095" stop-color="#8BE2D7"/>
</linearGradient>
<linearGradient id="paint6_linear_778_668" x1="36.9932" y1="127.363" x2="190" y2="-85.2407" gradientUnits="userSpaceOnUse">
<stop stop-color="#BF82FF"/>
<stop offset="0.288364" stop-color="#8372FC"/>
<stop offset="0.746608" stop-color="#6A75FB"/>
<stop offset="0.897516" stop-color="#B9B3D2"/>
<stop offset="0.974095" stop-color="#8BE2D7"/>
</linearGradient>
<linearGradient id="paint7_linear_778_668" x1="36.9932" y1="127.363" x2="190" y2="-85.2407" gradientUnits="userSpaceOnUse">
<stop stop-color="#BF82FF"/>
<stop offset="0.288364" stop-color="#8372FC"/>
<stop offset="0.746608" stop-color="#6A75FB"/>
<stop offset="0.897516" stop-color="#B9B3D2"/>
<stop offset="0.974095" stop-color="#8BE2D7"/>
</linearGradient>
</defs>
</svg>
