<svg width="365" height="141" viewBox="0 0 365 141" fill="none" xmlns="http://www.w3.org/2000/svg">
<path d="M32.35 54.025C31.75 54.575 30.8167 54.85 29.55 54.85H26.2V48.45H29.55C32.0167 48.45 33.25 49.525 33.25 51.675C33.25 52.6917 32.95 53.475 32.35 54.025Z" fill="url(#paint0_linear_778_666)"/>
<path d="M56.0037 61.65C55.287 62.0333 54.5204 62.225 53.7037 62.225C52.887 62.225 52.137 62.0417 51.4537 61.675C50.7704 61.2917 50.2204 60.7167 49.8037 59.95C49.4037 59.1833 49.2037 58.2417 49.2037 57.125C49.2037 56.025 49.412 55.0917 49.8287 54.325C50.2454 53.5583 50.7954 52.9917 51.4787 52.625C52.1787 52.2417 52.9454 52.05 53.7787 52.05C54.5954 52.05 55.3537 52.2417 56.0537 52.625C56.7537 52.9917 57.3204 53.5583 57.7537 54.325C58.187 55.0917 58.4037 56.025 58.4037 57.125C58.4037 58.225 58.1787 59.1583 57.7287 59.925C57.2954 60.6917 56.7204 61.2667 56.0037 61.65Z" fill="url(#paint1_linear_778_666)"/>
<path d="M79.4961 53.925C79.8794 54.5417 80.0711 55.2833 80.0711 56.15H71.4211C71.5378 54.85 71.9961 53.8333 72.7961 53.1C73.6128 52.3667 74.5961 52 75.7461 52C76.5461 52 77.2711 52.1667 77.9211 52.5C78.5878 52.8167 79.1128 53.2917 79.4961 53.925Z" fill="url(#paint2_linear_778_666)"/>
<path d="M51.5115 92.65C50.7949 93.0333 50.0282 93.225 49.2115 93.225C48.3949 93.225 47.6449 93.0417 46.9615 92.675C46.2782 92.2917 45.7282 91.7167 45.3115 90.95C44.9115 90.1833 44.7115 89.2417 44.7115 88.125C44.7115 87.025 44.9199 86.0917 45.3365 85.325C45.7532 84.5583 46.3032 83.9917 46.9865 83.625C47.6865 83.2417 48.4532 83.05 49.2865 83.05C50.1032 83.05 50.8615 83.2417 51.5615 83.625C52.2615 83.9917 52.8282 84.5583 53.2615 85.325C53.6949 86.0917 53.9115 87.025 53.9115 88.125C53.9115 89.225 53.6865 90.1583 53.2365 90.925C52.8032 91.6917 52.2282 92.2667 51.5115 92.65Z" fill="url(#paint3_linear_778_666)"/>
<path d="M81.6574 85.425C82.0741 86.1917 82.2824 87.0917 82.2824 88.125C82.2824 89.1583 82.0741 90.0667 81.6574 90.85C81.2408 91.6167 80.6741 92.2083 79.9574 92.625C79.2574 93.025 78.4824 93.225 77.6324 93.225C76.7824 93.225 76.0074 93.025 75.3074 92.625C74.6074 92.2083 74.0491 91.6167 73.6324 90.85C73.2158 90.0667 73.0074 89.15 73.0074 88.1C73.0074 87.0667 73.2158 86.1667 73.6324 85.4C74.0491 84.6333 74.6074 84.05 75.3074 83.65C76.0074 83.25 76.7824 83.05 77.6324 83.05C78.4824 83.05 79.2574 83.2583 79.9574 83.675C80.6741 84.075 81.2408 84.6583 81.6574 85.425Z" fill="url(#paint4_linear_778_666)"/>
<path d="M99.377 85.4C99.7936 86.1667 100.002 87.0667 100.002 88.1C100.002 89.15 99.7936 90.0667 99.377 90.85C98.9603 91.6167 98.3936 92.2083 97.677 92.625C96.977 93.025 96.202 93.225 95.352 93.225C94.5186 93.225 93.7436 93.025 93.027 92.625C92.327 92.2083 91.7603 91.6167 91.327 90.85C90.9103 90.0667 90.702 89.1583 90.702 88.125C90.702 87.1083 90.9103 86.2167 91.327 85.45C91.7603 84.6667 92.327 84.075 93.027 83.675C93.7436 83.2583 94.5186 83.05 95.352 83.05C96.202 83.05 96.977 83.25 97.677 83.65C98.3936 84.05 98.9603 84.6333 99.377 85.4Z" fill="url(#paint5_linear_778_666)"/>
<path d="M113.596 92.65C112.88 93.0333 112.113 93.225 111.296 93.225C110.48 93.225 109.73 93.0417 109.046 92.675C108.363 92.2917 107.813 91.7167 107.396 90.95C106.996 90.1833 106.796 89.2417 106.796 88.125C106.796 87.025 107.005 86.0917 107.421 85.325C107.838 84.5583 108.388 83.9917 109.071 83.625C109.771 83.2417 110.538 83.05 111.371 83.05C112.188 83.05 112.946 83.2417 113.646 83.625C114.346 83.9917 114.913 84.5583 115.346 85.325C115.78 86.0917 115.996 87.025 115.996 88.125C115.996 89.225 115.771 90.1583 115.321 90.925C114.888 91.6917 114.313 92.2667 113.596 92.65Z" fill="url(#paint6_linear_778_666)"/>
<path d="M140.764 85.425C141.181 86.1917 141.389 87.0917 141.389 88.125C141.389 89.1583 141.181 90.0667 140.764 90.85C140.347 91.6167 139.781 92.2083 139.064 92.625C138.364 93.025 137.589 93.225 136.739 93.225C135.889 93.225 135.114 93.025 134.414 92.625C133.714 92.2083 133.156 91.6167 132.739 90.85C132.322 90.0667 132.114 89.15 132.114 88.1C132.114 87.0667 132.322 86.1667 132.739 85.4C133.156 84.6333 133.714 84.05 134.414 83.65C135.114 83.25 135.889 83.05 136.739 83.05C137.589 83.05 138.364 83.2583 139.064 83.675C139.781 84.075 140.347 84.6583 140.764 85.425Z" fill="url(#paint7_linear_778_666)"/>
<path d="M171.067 92.65C170.351 93.0333 169.584 93.225 168.767 93.225C167.951 93.225 167.201 93.0417 166.517 92.675C165.834 92.2917 165.284 91.7167 164.867 90.95C164.467 90.1833 164.267 89.2417 164.267 88.125C164.267 87.025 164.476 86.0917 164.892 85.325C165.309 84.5583 165.859 83.9917 166.542 83.625C167.242 83.2417 168.009 83.05 168.842 83.05C169.659 83.05 170.417 83.2417 171.117 83.625C171.817 83.9917 172.384 84.5583 172.817 85.325C173.251 86.0917 173.467 87.025 173.467 88.125C173.467 89.225 173.242 90.1583 172.792 90.925C172.359 91.6917 171.784 92.2667 171.067 92.65Z" fill="url(#paint8_linear_778_666)"/>
<path fill-rule="evenodd" clip-rule="evenodd" d="M16 0H267.8V88.4H311C311 86.6667 311.733 85.1333 313.2 83.8C314.667 82.4667 316.8 81.8 319.6 81.8C322.933 81.8 325.467 82.8 327.2 84.8C329.067 86.8 330 89.7333 330 93.6C330 97.7333 329.2 101 327.6 103.4C326 105.8 323.533 107 320.2 107C316.867 107 314.467 106.067 313 104.2C311.533 102.333 310.8 100.333 310.8 98.2H267.6C267.333 107.267 269.333 115.333 273.6 122.4C278 129.467 284.333 135 292.6 139C294.141 139.734 295.734 140.401 297.379 141H60C26.8629 141 0 114.137 0 81V16C0 7.16345 7.16344 0 16 0ZM34.075 55.3C35.075 54.3333 35.575 53.125 35.575 51.675C35.575 50.175 35.0583 48.95 34.025 48C33.0083 47.05 31.5167 46.575 29.55 46.575H23.925V64H26.2V56.725H29.55C31.5833 56.725 33.0917 56.25 34.075 55.3ZM42.3775 50.7C41.6442 51.1333 41.0775 51.7417 40.6775 52.525V50.3H38.4025V64H40.6775V56.55C40.6775 53.7833 41.9525 52.4 44.5025 52.4H45.1025V50.05C44.0359 50.05 43.1275 50.2667 42.3775 50.7ZM50.2037 63.35C51.2537 63.9333 52.4204 64.225 53.7037 64.225C55.0037 64.225 56.187 63.9333 57.2537 63.35C58.3204 62.7667 59.162 61.9417 59.7787 60.875C60.412 59.7917 60.7287 58.5417 60.7287 57.125C60.7287 55.7083 60.4204 54.4667 59.8037 53.4C59.2037 52.3333 58.3787 51.5167 57.3287 50.95C56.2787 50.3667 55.1037 50.075 53.8037 50.075C52.5037 50.075 51.3287 50.3667 50.2787 50.95C49.2287 51.5167 48.3954 52.3417 47.7787 53.425C47.1787 54.4917 46.8787 55.725 46.8787 57.125C46.8787 58.5417 47.1704 59.7917 47.7537 60.875C48.3537 61.9417 49.1704 62.7667 50.2037 63.35ZM63.8449 47.625C64.1449 47.925 64.5116 48.075 64.9449 48.075C65.3783 48.075 65.7366 47.925 66.0199 47.625C66.3199 47.325 66.4699 46.9583 66.4699 46.525C66.4699 46.0917 66.3199 45.725 66.0199 45.425C65.7366 45.125 65.3783 44.975 64.9449 44.975C64.5116 44.975 64.1449 45.125 63.8449 45.425C63.5616 45.725 63.4199 46.0917 63.4199 46.525C63.4199 46.9583 63.5616 47.325 63.8449 47.625ZM65.1449 69.65C65.7616 69.0833 66.0699 68.1917 66.0699 66.975V50.3H63.7949V66.925C63.7949 67.525 63.6616 67.95 63.3949 68.2C63.1449 68.45 62.7033 68.575 62.0699 68.575H61.1199V70.5H62.4449C63.6283 70.5 64.5283 70.2167 65.1449 69.65ZM82.3461 58C82.3961 57.5167 82.4211 57.0583 82.4211 56.625C82.4211 55.375 82.1461 54.2583 81.5961 53.275C81.0628 52.275 80.2961 51.4917 79.2961 50.925C78.2961 50.3583 77.1461 50.075 75.8461 50.075C74.5128 50.075 73.3294 50.3667 72.2961 50.95C71.2794 51.5167 70.4878 52.3333 69.9211 53.4C69.3544 54.4667 69.0711 55.7083 69.0711 57.125C69.0711 58.5417 69.3628 59.7917 69.9461 60.875C70.5294 61.9417 71.3294 62.7667 72.3461 63.35C73.3794 63.9333 74.5461 64.225 75.8461 64.225C77.4794 64.225 78.8461 63.8167 79.9461 63C81.0461 62.1667 81.7794 61.0917 82.1461 59.775H79.6961C79.4294 60.5417 78.9628 61.1583 78.2961 61.625C77.6461 62.075 76.8294 62.3 75.8461 62.3C74.6461 62.3 73.6211 61.925 72.7711 61.175C71.9378 60.4083 71.4794 59.35 71.3961 58H82.3461ZM85.424 53.425C84.8574 54.475 84.574 55.7083 84.574 57.125C84.574 58.5583 84.8574 59.8083 85.424 60.875C85.9907 61.9417 86.774 62.7667 87.774 63.35C88.7907 63.9333 89.949 64.225 91.249 64.225C92.899 64.225 94.274 63.8083 95.374 62.975C96.474 62.125 97.2074 61 97.574 59.6H95.124C94.874 60.4667 94.4157 61.1333 93.749 61.6C93.0824 62.0667 92.249 62.3 91.249 62.3C89.949 62.3 88.899 61.85 88.099 60.95C87.299 60.05 86.899 58.775 86.899 57.125C86.899 55.4917 87.299 54.2333 88.099 53.35C88.899 52.45 89.949 52 91.249 52C92.249 52 93.0824 52.2417 93.749 52.725C94.4324 53.2083 94.8907 53.8667 95.124 54.7H97.574C97.224 53.25 96.499 52.1167 95.399 51.3C94.3157 50.4833 92.9324 50.075 91.249 50.075C89.949 50.075 88.7907 50.3667 87.774 50.95C86.774 51.5333 85.9907 52.3583 85.424 53.425ZM103.385 60.25V52.175H106.96V50.3H103.385V46.85H101.11V50.3H99.3346V52.175H101.11V60.25C101.11 61.5833 101.426 62.5417 102.06 63.125C102.693 63.7083 103.643 64 104.91 64H106.96V62.075H105.285C104.585 62.075 104.093 61.9417 103.81 61.675C103.526 61.3917 103.385 60.9167 103.385 60.25ZM24.225 81.7C23.4583 83.05 23.075 84.575 23.075 86.275C23.075 87.975 23.4583 89.5 24.225 90.85C24.9917 92.2 26.0333 93.2583 27.35 94.025C28.6833 94.775 30.1583 95.15 31.775 95.15C33.675 95.15 35.3333 94.7 36.75 93.8C38.1667 92.8833 39.2 91.5917 39.85 89.925H37.125C36.6417 90.975 35.9417 91.7833 35.025 92.35C34.125 92.9 33.0417 93.175 31.775 93.175C30.5583 93.175 29.4667 92.8917 28.5 92.325C27.5333 91.7583 26.775 90.9583 26.225 89.925C25.675 88.875 25.4 87.6583 25.4 86.275C25.4 84.875 25.675 83.6583 26.225 82.625C26.775 81.575 27.5333 80.7667 28.5 80.2C29.4667 79.6333 30.5583 79.35 31.775 79.35C33.0417 79.35 34.125 79.6333 35.025 80.2C35.9417 80.7667 36.6417 81.575 37.125 82.625H39.85C39.2 80.9417 38.1667 79.6417 36.75 78.725C35.3333 77.8083 33.675 77.35 31.775 77.35C30.1583 77.35 28.6833 77.7333 27.35 78.5C26.0333 79.2667 24.9917 80.3333 24.225 81.7ZM45.7115 94.35C46.7615 94.9333 47.9282 95.225 49.2115 95.225C50.5115 95.225 51.6949 94.9333 52.7615 94.35C53.8282 93.7667 54.6699 92.9417 55.2865 91.875C55.9199 90.7917 56.2365 89.5417 56.2365 88.125C56.2365 86.7083 55.9282 85.4667 55.3115 84.4C54.7115 83.3333 53.8865 82.5167 52.8365 81.95C51.7865 81.3667 50.6115 81.075 49.3115 81.075C48.0115 81.075 46.8365 81.3667 45.7865 81.95C44.7365 82.5167 43.9032 83.3417 43.2865 84.425C42.6865 85.4917 42.3865 86.725 42.3865 88.125C42.3865 89.5417 42.6782 90.7917 43.2615 91.875C43.8615 92.9417 44.6782 93.7667 45.7115 94.35ZM61.5027 95V76.5H59.2277V95H61.5027ZM67.6551 95V76.5H65.3801V95H67.6551ZM71.5324 84.425C70.9658 85.475 70.6824 86.7 70.6824 88.1C70.6824 89.4833 70.9658 90.7167 71.5324 91.8C72.0991 92.8833 72.8741 93.725 73.8574 94.325C74.8408 94.925 75.9408 95.225 77.1574 95.225C78.3408 95.225 79.3741 94.9667 80.2574 94.45C81.1574 93.9167 81.8324 93.25 82.2824 92.45V95H84.5824V81.3H82.2824V83.8C81.8491 83.0167 81.1908 82.3667 80.3074 81.85C79.4241 81.3333 78.3824 81.075 77.1824 81.075C75.9658 81.075 74.8574 81.3667 73.8574 81.95C72.8741 82.5333 72.0991 83.3583 71.5324 84.425ZM92.752 81.85C91.852 82.3667 91.1686 83.0333 90.702 83.85V76.5H88.427V95H90.702V92.475C91.152 93.275 91.8186 93.9333 92.702 94.45C93.602 94.9667 94.6436 95.225 95.827 95.225C97.0436 95.225 98.1436 94.925 99.127 94.325C100.127 93.725 100.91 92.8833 101.477 91.8C102.044 90.7167 102.327 89.4833 102.327 88.1C102.327 86.7 102.044 85.475 101.477 84.425C100.91 83.3583 100.135 82.5333 99.152 81.95C98.1686 81.3667 97.0603 81.075 95.827 81.075C94.677 81.075 93.652 81.3333 92.752 81.85ZM107.796 94.35C108.846 94.9333 110.013 95.225 111.296 95.225C112.596 95.225 113.78 94.9333 114.846 94.35C115.913 93.7667 116.755 92.9417 117.371 91.875C118.005 90.7917 118.321 89.5417 118.321 88.125C118.321 86.7083 118.013 85.4667 117.396 84.4C116.796 83.3333 115.971 82.5167 114.921 81.95C113.871 81.3667 112.696 81.075 111.396 81.075C110.096 81.075 108.921 81.3667 107.871 81.95C106.821 82.5167 105.988 83.3417 105.371 84.425C104.771 85.4917 104.471 86.725 104.471 88.125C104.471 89.5417 104.763 90.7917 105.346 91.875C105.946 92.9417 106.763 93.7667 107.796 94.35ZM125.288 81.7C124.554 82.1333 123.988 82.7417 123.588 83.525V81.3H121.313V95H123.588V87.55C123.588 84.7833 124.863 83.4 127.413 83.4H128.013V81.05C126.946 81.05 126.038 81.2667 125.288 81.7ZM130.639 84.425C130.072 85.475 129.789 86.7 129.789 88.1C129.789 89.4833 130.072 90.7167 130.639 91.8C131.206 92.8833 131.981 93.725 132.964 94.325C133.947 94.925 135.047 95.225 136.264 95.225C137.447 95.225 138.481 94.9667 139.364 94.45C140.264 93.9167 140.939 93.25 141.389 92.45V95H143.689V81.3H141.389V83.8C140.956 83.0167 140.297 82.3667 139.414 81.85C138.531 81.3333 137.489 81.075 136.289 81.075C135.072 81.075 133.964 81.3667 132.964 81.95C131.981 82.5333 131.206 83.3583 130.639 84.425ZM150.308 91.25V83.175H153.883V81.3H150.308V77.85H148.033V81.3H146.258V83.175H148.033V91.25C148.033 92.5833 148.35 93.5417 148.983 94.125C149.617 94.7083 150.567 95 151.833 95H153.883V93.075H152.208C151.508 93.075 151.017 92.9417 150.733 92.675C150.45 92.3917 150.308 91.9167 150.308 91.25ZM156.715 78.625C157.015 78.925 157.382 79.075 157.815 79.075C158.232 79.075 158.582 78.925 158.865 78.625C159.165 78.325 159.315 77.9583 159.315 77.525C159.315 77.0917 159.165 76.725 158.865 76.425C158.582 76.125 158.232 75.975 157.815 75.975C157.382 75.975 157.015 76.125 156.715 76.425C156.415 76.725 156.265 77.0917 156.265 77.525C156.265 77.9583 156.415 78.325 156.715 78.625ZM158.915 95V81.3H156.64V95H158.915ZM165.267 94.35C166.317 94.9333 167.484 95.225 168.767 95.225C170.067 95.225 171.251 94.9333 172.317 94.35C173.384 93.7667 174.226 92.9417 174.842 91.875C175.476 90.7917 175.792 89.5417 175.792 88.125C175.792 86.7083 175.484 85.4667 174.867 84.4C174.267 83.3333 173.442 82.5167 172.392 81.95C171.342 81.3667 170.167 81.075 168.867 81.075C167.567 81.075 166.392 81.3667 165.342 81.95C164.292 82.5167 163.459 83.3417 162.842 84.425C162.242 85.4917 161.942 86.725 161.942 88.125C161.942 89.5417 162.234 90.7917 162.817 91.875C163.417 92.9417 164.234 93.7667 165.267 94.35ZM189.508 82.575C188.475 81.5583 187.125 81.05 185.458 81.05C184.525 81.05 183.667 81.2417 182.883 81.625C182.117 82.0083 181.508 82.55 181.058 83.25V81.3H178.783V95H181.058V87.425C181.058 85.9917 181.408 84.9 182.108 84.15C182.825 83.4 183.783 83.025 184.983 83.025C186.167 83.025 187.1 83.3917 187.783 84.125C188.467 84.8417 188.808 85.8833 188.808 87.25V95H191.058V86.925C191.058 85.025 190.542 83.575 189.508 82.575ZM196.8 94.7C197.633 95.05 198.575 95.225 199.625 95.225C200.608 95.225 201.475 95.0583 202.225 94.725C202.991 94.375 203.583 93.9 204 93.3C204.416 92.7 204.625 92.025 204.625 91.275C204.608 90.4417 204.375 89.7667 203.925 89.25C203.491 88.7333 202.966 88.35 202.35 88.1C201.733 87.8333 200.933 87.5667 199.95 87.3C199.166 87.0833 198.55 86.8917 198.1 86.725C197.666 86.5417 197.3 86.3083 197 86.025C196.716 85.725 196.575 85.35 196.575 84.9C196.575 84.3333 196.816 83.875 197.3 83.525C197.783 83.175 198.433 83 199.25 83C200.133 83 200.833 83.2167 201.35 83.65C201.883 84.0833 202.175 84.6583 202.225 85.375H204.5C204.433 84.0417 203.933 82.9917 203 82.225C202.066 81.4583 200.841 81.075 199.325 81.075C198.341 81.075 197.466 81.25 196.7 81.6C195.933 81.9333 195.341 82.3917 194.925 82.975C194.508 83.5583 194.3 84.2 194.3 84.9C194.3 85.7833 194.525 86.5 194.975 87.05C195.441 87.5833 195.991 87.9917 196.625 88.275C197.275 88.5417 198.108 88.8083 199.125 89.075C200.241 89.3583 201.066 89.65 201.6 89.95C202.133 90.2333 202.4 90.675 202.4 91.275C202.4 91.8583 202.15 92.3417 201.65 92.725C201.15 93.1083 200.466 93.3 199.6 93.3C198.666 93.3 197.908 93.0833 197.325 92.65C196.758 92.2167 196.441 91.6583 196.375 90.975H194.025C194.075 91.8083 194.341 92.55 194.825 93.2C195.308 93.8333 195.966 94.3333 196.8 94.7Z" fill="url(#paint9_linear_778_666)"/>
<path d="M349 141H345.292C350.682 138.822 355.384 135.756 359.4 131.8C361.513 129.718 363.38 127.445 365 124.979V125C365 133.837 357.837 141 349 141Z" fill="url(#paint10_linear_778_666)"/>
<path d="M365 37.8V64.393C362.213 60.1114 358.679 56.5137 354.4 53.6C348.133 49.3333 340.467 47.2 331.4 47.2C326.333 47.2 321.733 47.8667 317.6 49.2C313.6 50.5333 310.333 52.3333 307.8 54.6V37.8H365Z" fill="url(#paint11_linear_778_666)"/>
<defs>
<linearGradient id="paint0_linear_778_666" x1="36.9932" y1="127.363" x2="190" y2="-85.2407" gradientUnits="userSpaceOnUse">
<stop stop-color="#BF82FF"/>
<stop offset="0.288364" stop-color="#8372FC"/>
<stop offset="0.746608" stop-color="#6A75FB"/>
<stop offset="0.897516" stop-color="#B9B3D2"/>
<stop offset="0.974095" stop-color="#8BE2D7"/>
</linearGradient>
<linearGradient id="paint1_linear_778_666" x1="36.9932" y1="127.363" x2="190" y2="-85.2407" gradientUnits="userSpaceOnUse">
<stop stop-color="#BF82FF"/>
<stop offset="0.288364" stop-color="#8372FC"/>
<stop offset="0.746608" stop-color="#6A75FB"/>
<stop offset="0.897516" stop-color="#B9B3D2"/>
<stop offset="0.974095" stop-color="#8BE2D7"/>
</linearGradient>
<linearGradient id="paint2_linear_778_666" x1="36.9932" y1="127.363" x2="190" y2="-85.2407" gradientUnits="userSpaceOnUse">
<stop stop-color="#BF82FF"/>
<stop offset="0.288364" stop-color="#8372FC"/>
<stop offset="0.746608" stop-color="#6A75FB"/>
<stop offset="0.897516" stop-color="#B9B3D2"/>
<stop offset="0.974095" stop-color="#8BE2D7"/>
</linearGradient>
<linearGradient id="paint3_linear_778_666" x1="36.9932" y1="127.363" x2="190" y2="-85.2407" gradientUnits="userSpaceOnUse">
<stop stop-color="#BF82FF"/>
<stop offset="0.288364" stop-color="#8372FC"/>
<stop offset="0.746608" stop-color="#6A75FB"/>
<stop offset="0.897516" stop-color="#B9B3D2"/>
<stop offset="0.974095" stop-color="#8BE2D7"/>
</linearGradient>
<linearGradient id="paint4_linear_778_666" x1="36.9932" y1="127.363" x2="190" y2="-85.2407" gradientUnits="userSpaceOnUse">
<stop stop-color="#BF82FF"/>
<stop offset="0.288364" stop-color="#8372FC"/>
<stop offset="0.746608" stop-color="#6A75FB"/>
<stop offset="0.897516" stop-color="#B9B3D2"/>
<stop offset="0.974095" stop-color="#8BE2D7"/>
</linearGradient>
<linearGradient id="paint5_linear_778_666" x1="36.9932" y1="127.363" x2="190" y2="-85.2407" gradientUnits="userSpaceOnUse">
<stop stop-color="#BF82FF"/>
<stop offset="0.288364" stop-color="#8372FC"/>
<stop offset="0.746608" stop-color="#6A75FB"/>
<stop offset="0.897516" stop-color="#B9B3D2"/>
<stop offset="0.974095" stop-color="#8BE2D7"/>
</linearGradient>
<linearGradient id="paint6_linear_778_666" x1="36.9932" y1="127.363" x2="190" y2="-85.2407" gradientUnits="userSpaceOnUse">
<stop stop-color="#BF82FF"/>
<stop offset="0.288364" stop-color="#8372FC"/>
<stop offset="0.746608" stop-color="#6A75FB"/>
<stop offset="0.897516" stop-color="#B9B3D2"/>
<stop offset="0.974095" stop-color="#8BE2D7"/>
</linearGradient>
<linearGradient id="paint7_linear_778_666" x1="36.9932" y1="127.363" x2="190" y2="-85.2407" gradientUnits="userSpaceOnUse">
<stop stop-color="#BF82FF"/>
<stop offset="0.288364" stop-color="#8372FC"/>
<stop offset="0.746608" stop-color="#6A75FB"/>
<stop offset="0.897516" stop-color="#B9B3D2"/>
<stop offset="0.974095" stop-color="#8BE2D7"/>
</linearGradient>
<linearGradient id="paint8_linear_778_666" x1="36.9932" y1="127.363" x2="190" y2="-85.2407" gradientUnits="userSpaceOnUse">
<stop stop-color="#BF82FF"/>
<stop offset="0.288364" stop-color="#8372FC"/>
<stop offset="0.746608" stop-color="#6A75FB"/>
<stop offset="0.897516" stop-color="#B9B3D2"/>
<stop offset="0.974095" stop-color="#8BE2D7"/>
</linearGradient>
<linearGradient id="paint9_linear_778_666" x1="36.9932" y1="127.363" x2="190" y2="-85.2407" gradientUnits="userSpaceOnUse">
<stop stop-color="#BF82FF"/>
<stop offset="0.288364" stop-color="#8372FC"/>
<stop offset="0.746608" stop-color="#6A75FB"/>
<stop offset="0.897516" stop-color="#B9B3D2"/>
<stop offset="0.974095" stop-color="#8BE2D7"/>
</linearGradient>
<linearGradient id="paint10_linear_778_666" x1="36.9932" y1="127.363" x2="190" y2="-85.2407" gradientUnits="userSpaceOnUse">
<stop stop-color="#BF82FF"/>
<stop offset="0.288364" stop-color="#8372FC"/>
<stop offset="0.746608" stop-color="#6A75FB"/>
<stop offset="0.897516" stop-color="#B9B3D2"/>
<stop offset="0.974095" stop-color="#8BE2D7"/>
</linearGradient>
<linearGradient id="paint11_linear_778_666" x1="36.9932" y1="127.363" x2="190" y2="-85.2407" gradientUnits="userSpaceOnUse">
<stop stop-color="#BF82FF"/>
<stop offset="0.288364" stop-color="#8372FC"/>
<stop offset="0.746608" stop-color="#6A75FB"/>
<stop offset="0.897516" stop-color="#B9B3D2"/>
<stop offset="0.974095" stop-color="#8BE2D7"/>
</linearGradient>
</defs>
</svg>
