<svg width="365" height="141" viewBox="0 0 365 141" fill="none" xmlns="http://www.w3.org/2000/svg">
<path d="M32.35 58.025C31.75 58.575 30.8167 58.85 29.55 58.85H26.2V52.45H29.55C32.0167 52.45 33.25 53.525 33.25 55.675C33.25 56.6917 32.95 57.475 32.35 58.025Z" fill="url(#paint0_linear_778_667)"/>
<path d="M56.0037 65.65C55.287 66.0333 54.5204 66.225 53.7037 66.225C52.887 66.225 52.137 66.0417 51.4537 65.675C50.7704 65.2917 50.2204 64.7167 49.8037 63.95C49.4037 63.1833 49.2037 62.2417 49.2037 61.125C49.2037 60.025 49.412 59.0917 49.8287 58.325C50.2454 57.5583 50.7954 56.9917 51.4787 56.625C52.1787 56.2417 52.9454 56.05 53.7787 56.05C54.5954 56.05 55.3537 56.2417 56.0537 56.625C56.7537 56.9917 57.3204 57.5583 57.7537 58.325C58.187 59.0917 58.4037 60.025 58.4037 61.125C58.4037 62.225 58.1787 63.1583 57.7287 63.925C57.2954 64.6917 56.7204 65.2667 56.0037 65.65Z" fill="url(#paint1_linear_778_667)"/>
<path d="M79.4961 57.925C79.8794 58.5417 80.0711 59.2833 80.0711 60.15H71.4211C71.5378 58.85 71.9961 57.8333 72.7961 57.1C73.6128 56.3667 74.5961 56 75.7461 56C76.5461 56 77.2711 56.1667 77.9211 56.5C78.5878 56.8167 79.1128 57.2917 79.4961 57.925Z" fill="url(#paint2_linear_778_667)"/>
<path d="M62.1377 88.925C62.521 89.5417 62.7127 90.2833 62.7127 91.15H54.0627C54.1794 89.85 54.6377 88.8333 55.4377 88.1C56.2544 87.3667 57.2377 87 58.3877 87C59.1877 87 59.9127 87.1667 60.5627 87.5C61.2294 87.8167 61.7544 88.2917 62.1377 88.925Z" fill="url(#paint3_linear_778_667)"/>
<path d="M78.1906 89.425C78.6073 90.1917 78.8156 91.0917 78.8156 92.125C78.8156 93.1583 78.6073 94.0667 78.1906 94.85C77.774 95.6167 77.2073 96.2083 76.4906 96.625C75.7906 97.025 75.0156 97.225 74.1656 97.225C73.3156 97.225 72.5406 97.025 71.8406 96.625C71.1406 96.2083 70.5823 95.6167 70.1656 94.85C69.749 94.0667 69.5406 93.15 69.5406 92.1C69.5406 91.0667 69.749 90.1667 70.1656 89.4C70.5823 88.6333 71.1406 88.05 71.8406 87.65C72.5406 87.25 73.3156 87.05 74.1656 87.05C75.0156 87.05 75.7906 87.2583 76.4906 87.675C77.2073 88.075 77.774 88.6583 78.1906 89.425Z" fill="url(#paint4_linear_778_667)"/>
<path d="M103.642 88.925C104.025 89.5417 104.217 90.2833 104.217 91.15H95.5666C95.6833 89.85 96.1416 88.8333 96.9416 88.1C97.7583 87.3667 98.7416 87 99.8916 87C100.692 87 101.417 87.1667 102.067 87.5C102.733 87.8167 103.258 88.2917 103.642 88.925Z" fill="url(#paint5_linear_778_667)"/>
<path d="M119.695 89.425C120.111 90.1917 120.32 91.0917 120.32 92.125C120.32 93.1583 120.111 94.0667 119.695 94.85C119.278 95.6167 118.711 96.2083 117.995 96.625C117.295 97.025 116.52 97.225 115.67 97.225C114.82 97.225 114.045 97.025 113.345 96.625C112.645 96.2083 112.086 95.6167 111.67 94.85C111.253 94.0667 111.045 93.15 111.045 92.1C111.045 91.0667 111.253 90.1667 111.67 89.4C112.086 88.6333 112.645 88.05 113.345 87.65C114.045 87.25 114.82 87.05 115.67 87.05C116.52 87.05 117.295 87.2583 117.995 87.675C118.711 88.075 119.278 88.6583 119.695 89.425Z" fill="url(#paint6_linear_778_667)"/>
<path fill-rule="evenodd" clip-rule="evenodd" d="M184 36.4V0H16C7.16344 0 0 7.16345 0 16V81C0 114.137 26.8629 141 60 141H205.2V36.4H184ZM34.075 59.3C35.075 58.3333 35.575 57.125 35.575 55.675C35.575 54.175 35.0583 52.95 34.025 52C33.0083 51.05 31.5167 50.575 29.55 50.575H23.925V68H26.2V60.725H29.55C31.5833 60.725 33.0917 60.25 34.075 59.3ZM42.3775 54.7C41.6442 55.1333 41.0775 55.7417 40.6775 56.525V54.3H38.4025V68H40.6775V60.55C40.6775 57.7833 41.9525 56.4 44.5025 56.4H45.1025V54.05C44.0359 54.05 43.1275 54.2667 42.3775 54.7ZM50.2037 67.35C51.2537 67.9333 52.4204 68.225 53.7037 68.225C55.0037 68.225 56.187 67.9333 57.2537 67.35C58.3204 66.7667 59.162 65.9417 59.7787 64.875C60.412 63.7917 60.7287 62.5417 60.7287 61.125C60.7287 59.7083 60.4204 58.4667 59.8037 57.4C59.2037 56.3333 58.3787 55.5167 57.3287 54.95C56.2787 54.3667 55.1037 54.075 53.8037 54.075C52.5037 54.075 51.3287 54.3667 50.2787 54.95C49.2287 55.5167 48.3954 56.3417 47.7787 57.425C47.1787 58.4917 46.8787 59.725 46.8787 61.125C46.8787 62.5417 47.1704 63.7917 47.7537 64.875C48.3537 65.9417 49.1704 66.7667 50.2037 67.35ZM63.8449 51.625C64.1449 51.925 64.5116 52.075 64.9449 52.075C65.3783 52.075 65.7366 51.925 66.0199 51.625C66.3199 51.325 66.4699 50.9583 66.4699 50.525C66.4699 50.0917 66.3199 49.725 66.0199 49.425C65.7366 49.125 65.3783 48.975 64.9449 48.975C64.5116 48.975 64.1449 49.125 63.8449 49.425C63.5616 49.725 63.4199 50.0917 63.4199 50.525C63.4199 50.9583 63.5616 51.325 63.8449 51.625ZM65.1449 73.65C65.7616 73.0833 66.0699 72.1917 66.0699 70.975V54.3H63.7949V70.925C63.7949 71.525 63.6616 71.95 63.3949 72.2C63.1449 72.45 62.7033 72.575 62.0699 72.575H61.1199V74.5H62.4449C63.6283 74.5 64.5283 74.2167 65.1449 73.65ZM82.3461 62C82.3961 61.5167 82.4211 61.0583 82.4211 60.625C82.4211 59.375 82.1461 58.2583 81.5961 57.275C81.0628 56.275 80.2961 55.4917 79.2961 54.925C78.2961 54.3583 77.1461 54.075 75.8461 54.075C74.5128 54.075 73.3294 54.3667 72.2961 54.95C71.2794 55.5167 70.4878 56.3333 69.9211 57.4C69.3544 58.4667 69.0711 59.7083 69.0711 61.125C69.0711 62.5417 69.3628 63.7917 69.9461 64.875C70.5294 65.9417 71.3294 66.7667 72.3461 67.35C73.3794 67.9333 74.5461 68.225 75.8461 68.225C77.4794 68.225 78.8461 67.8167 79.9461 67C81.0461 66.1667 81.7794 65.0917 82.1461 63.775H79.6961C79.4294 64.5417 78.9628 65.1583 78.2961 65.625C77.6461 66.075 76.8294 66.3 75.8461 66.3C74.6461 66.3 73.6211 65.925 72.7711 65.175C71.9378 64.4083 71.4794 63.35 71.3961 62H82.3461ZM85.424 57.425C84.8574 58.475 84.574 59.7083 84.574 61.125C84.574 62.5583 84.8574 63.8083 85.424 64.875C85.9907 65.9417 86.774 66.7667 87.774 67.35C88.7907 67.9333 89.949 68.225 91.249 68.225C92.899 68.225 94.274 67.8083 95.374 66.975C96.474 66.125 97.2074 65 97.574 63.6H95.124C94.874 64.4667 94.4157 65.1333 93.749 65.6C93.0824 66.0667 92.249 66.3 91.249 66.3C89.949 66.3 88.899 65.85 88.099 64.95C87.299 64.05 86.899 62.775 86.899 61.125C86.899 59.4917 87.299 58.2333 88.099 57.35C88.899 56.45 89.949 56 91.249 56C92.249 56 93.0824 56.2417 93.749 56.725C94.4324 57.2083 94.8907 57.8667 95.124 58.7H97.574C97.224 57.25 96.499 56.1167 95.399 55.3C94.3157 54.4833 92.9324 54.075 91.249 54.075C89.949 54.075 88.7907 54.3667 87.774 54.95C86.774 55.5333 85.9907 56.3583 85.424 57.425ZM103.385 64.25V56.175H106.96V54.3H103.385V50.85H101.11V54.3H99.3346V56.175H101.11V64.25C101.11 65.5833 101.426 66.5417 102.06 67.125C102.693 67.7083 103.643 68 104.91 68H106.96V66.075H105.285C104.585 66.075 104.093 65.9417 103.81 65.675C103.526 65.3917 103.385 64.9167 103.385 64.25ZM111.741 67.7C112.574 68.05 113.516 68.225 114.566 68.225C115.549 68.225 116.416 68.0583 117.166 67.725C117.933 67.375 118.524 66.9 118.941 66.3C119.358 65.7 119.566 65.025 119.566 64.275C119.549 63.4417 119.316 62.7667 118.866 62.25C118.433 61.7333 117.908 61.35 117.291 61.1C116.674 60.8333 115.874 60.5667 114.891 60.3C114.108 60.0833 113.491 59.8917 113.041 59.725C112.608 59.5417 112.241 59.3083 111.941 59.025C111.658 58.725 111.516 58.35 111.516 57.9C111.516 57.3333 111.758 56.875 112.241 56.525C112.724 56.175 113.374 56 114.191 56C115.074 56 115.774 56.2167 116.291 56.65C116.824 57.0833 117.116 57.6583 117.166 58.375H119.441C119.374 57.0417 118.874 55.9917 117.941 55.225C117.008 54.4583 115.783 54.075 114.266 54.075C113.283 54.075 112.408 54.25 111.641 54.6C110.874 54.9333 110.283 55.3917 109.866 55.975C109.449 56.5583 109.241 57.2 109.241 57.9C109.241 58.7833 109.466 59.5 109.916 60.05C110.383 60.5833 110.933 60.9917 111.566 61.275C112.216 61.5417 113.049 61.8083 114.066 62.075C115.183 62.3583 116.008 62.65 116.541 62.95C117.074 63.2333 117.341 63.675 117.341 64.275C117.341 64.8583 117.091 65.3417 116.591 65.725C116.091 66.1083 115.408 66.3 114.541 66.3C113.608 66.3 112.849 66.0833 112.266 65.65C111.699 65.2167 111.383 64.6583 111.316 63.975H108.966C109.016 64.8083 109.283 65.55 109.766 66.2C110.249 66.8333 110.908 67.3333 111.741 67.7ZM24.225 85.7C23.4583 87.05 23.075 88.575 23.075 90.275C23.075 91.975 23.4583 93.5 24.225 94.85C24.9917 96.2 26.0333 97.2583 27.35 98.025C28.6833 98.775 30.1583 99.15 31.775 99.15C33.675 99.15 35.3333 98.7 36.75 97.8C38.1667 96.8833 39.2 95.5917 39.85 93.925H37.125C36.6417 94.975 35.9417 95.7833 35.025 96.35C34.125 96.9 33.0417 97.175 31.775 97.175C30.5583 97.175 29.4667 96.8917 28.5 96.325C27.5333 95.7583 26.775 94.9583 26.225 93.925C25.675 92.875 25.4 91.6583 25.4 90.275C25.4 88.875 25.675 87.6583 26.225 86.625C26.775 85.575 27.5333 84.7667 28.5 84.2C29.4667 83.6333 30.5583 83.35 31.775 83.35C33.0417 83.35 34.125 83.6333 35.025 84.2C35.9417 84.7667 36.6417 85.575 37.125 86.625H39.85C39.2 84.9417 38.1667 83.6417 36.75 82.725C35.3333 81.8083 33.675 81.35 31.775 81.35C30.1583 81.35 28.6833 81.7333 27.35 82.5C26.0333 83.2667 24.9917 84.3333 24.225 85.7ZM47.2115 85.7C46.4782 86.1333 45.9115 86.7417 45.5115 87.525V85.3H43.2365V99H45.5115V91.55C45.5115 88.7833 46.7865 87.4 49.3365 87.4H49.9365V85.05C48.8699 85.05 47.9615 85.2667 47.2115 85.7ZM64.9877 93C65.0377 92.5167 65.0627 92.0583 65.0627 91.625C65.0627 90.375 64.7877 89.2583 64.2377 88.275C63.7044 87.275 62.9377 86.4917 61.9377 85.925C60.9377 85.3583 59.7877 85.075 58.4877 85.075C57.1544 85.075 55.971 85.3667 54.9377 85.95C53.921 86.5167 53.1294 87.3333 52.5627 88.4C51.996 89.4667 51.7127 90.7083 51.7127 92.125C51.7127 93.5417 52.0044 94.7917 52.5877 95.875C53.171 96.9417 53.971 97.7667 54.9877 98.35C56.021 98.9333 57.1877 99.225 58.4877 99.225C60.121 99.225 61.4877 98.8167 62.5877 98C63.6877 97.1667 64.421 96.0917 64.7877 94.775H62.3377C62.071 95.5417 61.6044 96.1583 60.9377 96.625C60.2877 97.075 59.471 97.3 58.4877 97.3C57.2877 97.3 56.2627 96.925 55.4127 96.175C54.5794 95.4083 54.121 94.35 54.0377 93H64.9877ZM68.0656 88.425C67.499 89.475 67.2156 90.7 67.2156 92.1C67.2156 93.4833 67.499 94.7167 68.0656 95.8C68.6323 96.8833 69.4073 97.725 70.3906 98.325C71.374 98.925 72.474 99.225 73.6906 99.225C74.874 99.225 75.9073 98.9667 76.7906 98.45C77.6906 97.9167 78.3656 97.25 78.8156 96.45V99H81.1156V85.3H78.8156V87.8C78.3823 87.0167 77.724 86.3667 76.8406 85.85C75.9573 85.3333 74.9156 85.075 73.7156 85.075C72.499 85.075 71.3906 85.3667 70.3906 85.95C69.4073 86.5333 68.6323 87.3583 68.0656 88.425ZM87.7352 95.25V87.175H91.3102V85.3H87.7352V81.85H85.4602V85.3H83.6852V87.175H85.4602V95.25C85.4602 96.5833 85.7768 97.5417 86.4102 98.125C87.0435 98.7083 87.9935 99 89.2602 99H91.3102V97.075H89.6352C88.9352 97.075 88.4435 96.9417 88.1602 96.675C87.8768 96.3917 87.7352 95.9167 87.7352 95.25ZM106.492 93C106.542 92.5167 106.567 92.0583 106.567 91.625C106.567 90.375 106.292 89.2583 105.742 88.275C105.208 87.275 104.442 86.4917 103.442 85.925C102.442 85.3583 101.292 85.075 99.9916 85.075C98.6583 85.075 97.4749 85.3667 96.4416 85.95C95.4249 86.5167 94.6333 87.3333 94.0666 88.4C93.4999 89.4667 93.2166 90.7083 93.2166 92.125C93.2166 93.5417 93.5083 94.7917 94.0916 95.875C94.6749 96.9417 95.4749 97.7667 96.4916 98.35C97.5249 98.9333 98.6916 99.225 99.9916 99.225C101.625 99.225 102.992 98.8167 104.092 98C105.192 97.1667 105.925 96.0917 106.292 94.775H103.842C103.575 95.5417 103.108 96.1583 102.442 96.625C101.792 97.075 100.975 97.3 99.9916 97.3C98.7916 97.3 97.7666 96.925 96.9166 96.175C96.0833 95.4083 95.6249 94.35 95.5416 93H106.492ZM109.57 88.425C109.003 89.475 108.72 90.7 108.72 92.1C108.72 93.4833 109.003 94.7167 109.57 95.8C110.136 96.8833 110.911 97.725 111.895 98.325C112.895 98.925 114.003 99.225 115.22 99.225C116.403 99.225 117.436 98.9667 118.32 98.45C119.203 97.9167 119.87 97.2417 120.32 96.425V99H122.62V80.5H120.32V87.75C119.836 86.95 119.136 86.3083 118.22 85.825C117.303 85.325 116.311 85.075 115.245 85.075C114.011 85.075 112.895 85.3667 111.895 85.95C110.911 86.5333 110.136 87.3583 109.57 88.425Z" fill="url(#paint7_linear_778_667)"/>
<path d="M251.8 141V0H261.883V141H251.8Z" fill="url(#paint8_linear_778_667)"/>
<path d="M306.283 70.4V0H349C357.837 0 365 7.16344 365 16V28.2H334.483L306.283 70.4Z" fill="url(#paint9_linear_778_667)"/>
<path d="M343.883 85L365 56.5769V112.374L343.883 85Z" fill="url(#paint10_linear_778_667)"/>
<path d="M306.283 96L334.083 141H306.283V96Z" fill="url(#paint11_linear_778_667)"/>
<defs>
<linearGradient id="paint0_linear_778_667" x1="36.9932" y1="127.363" x2="190" y2="-85.2407" gradientUnits="userSpaceOnUse">
<stop stop-color="#BF82FF"/>
<stop offset="0.288364" stop-color="#8372FC"/>
<stop offset="0.746608" stop-color="#6A75FB"/>
<stop offset="0.897516" stop-color="#B9B3D2"/>
<stop offset="0.974095" stop-color="#8BE2D7"/>
</linearGradient>
<linearGradient id="paint1_linear_778_667" x1="36.9932" y1="127.363" x2="190" y2="-85.2407" gradientUnits="userSpaceOnUse">
<stop stop-color="#BF82FF"/>
<stop offset="0.288364" stop-color="#8372FC"/>
<stop offset="0.746608" stop-color="#6A75FB"/>
<stop offset="0.897516" stop-color="#B9B3D2"/>
<stop offset="0.974095" stop-color="#8BE2D7"/>
</linearGradient>
<linearGradient id="paint2_linear_778_667" x1="36.9932" y1="127.363" x2="190" y2="-85.2407" gradientUnits="userSpaceOnUse">
<stop stop-color="#BF82FF"/>
<stop offset="0.288364" stop-color="#8372FC"/>
<stop offset="0.746608" stop-color="#6A75FB"/>
<stop offset="0.897516" stop-color="#B9B3D2"/>
<stop offset="0.974095" stop-color="#8BE2D7"/>
</linearGradient>
<linearGradient id="paint3_linear_778_667" x1="36.9932" y1="127.363" x2="190" y2="-85.2407" gradientUnits="userSpaceOnUse">
<stop stop-color="#BF82FF"/>
<stop offset="0.288364" stop-color="#8372FC"/>
<stop offset="0.746608" stop-color="#6A75FB"/>
<stop offset="0.897516" stop-color="#B9B3D2"/>
<stop offset="0.974095" stop-color="#8BE2D7"/>
</linearGradient>
<linearGradient id="paint4_linear_778_667" x1="36.9932" y1="127.363" x2="190" y2="-85.2407" gradientUnits="userSpaceOnUse">
<stop stop-color="#BF82FF"/>
<stop offset="0.288364" stop-color="#8372FC"/>
<stop offset="0.746608" stop-color="#6A75FB"/>
<stop offset="0.897516" stop-color="#B9B3D2"/>
<stop offset="0.974095" stop-color="#8BE2D7"/>
</linearGradient>
<linearGradient id="paint5_linear_778_667" x1="36.9932" y1="127.363" x2="190" y2="-85.2407" gradientUnits="userSpaceOnUse">
<stop stop-color="#BF82FF"/>
<stop offset="0.288364" stop-color="#8372FC"/>
<stop offset="0.746608" stop-color="#6A75FB"/>
<stop offset="0.897516" stop-color="#B9B3D2"/>
<stop offset="0.974095" stop-color="#8BE2D7"/>
</linearGradient>
<linearGradient id="paint6_linear_778_667" x1="36.9932" y1="127.363" x2="190" y2="-85.2407" gradientUnits="userSpaceOnUse">
<stop stop-color="#BF82FF"/>
<stop offset="0.288364" stop-color="#8372FC"/>
<stop offset="0.746608" stop-color="#6A75FB"/>
<stop offset="0.897516" stop-color="#B9B3D2"/>
<stop offset="0.974095" stop-color="#8BE2D7"/>
</linearGradient>
<linearGradient id="paint7_linear_778_667" x1="36.9932" y1="127.363" x2="190" y2="-85.2407" gradientUnits="userSpaceOnUse">
<stop stop-color="#BF82FF"/>
<stop offset="0.288364" stop-color="#8372FC"/>
<stop offset="0.746608" stop-color="#6A75FB"/>
<stop offset="0.897516" stop-color="#B9B3D2"/>
<stop offset="0.974095" stop-color="#8BE2D7"/>
</linearGradient>
<linearGradient id="paint8_linear_778_667" x1="36.9932" y1="127.363" x2="190" y2="-85.2407" gradientUnits="userSpaceOnUse">
<stop stop-color="#BF82FF"/>
<stop offset="0.288364" stop-color="#8372FC"/>
<stop offset="0.746608" stop-color="#6A75FB"/>
<stop offset="0.897516" stop-color="#B9B3D2"/>
<stop offset="0.974095" stop-color="#8BE2D7"/>
</linearGradient>
<linearGradient id="paint9_linear_778_667" x1="36.9932" y1="127.363" x2="190" y2="-85.2407" gradientUnits="userSpaceOnUse">
<stop stop-color="#BF82FF"/>
<stop offset="0.288364" stop-color="#8372FC"/>
<stop offset="0.746608" stop-color="#6A75FB"/>
<stop offset="0.897516" stop-color="#B9B3D2"/>
<stop offset="0.974095" stop-color="#8BE2D7"/>
</linearGradient>
<linearGradient id="paint10_linear_778_667" x1="36.9932" y1="127.363" x2="190" y2="-85.2407" gradientUnits="userSpaceOnUse">
<stop stop-color="#BF82FF"/>
<stop offset="0.288364" stop-color="#8372FC"/>
<stop offset="0.746608" stop-color="#6A75FB"/>
<stop offset="0.897516" stop-color="#B9B3D2"/>
<stop offset="0.974095" stop-color="#8BE2D7"/>
</linearGradient>
<linearGradient id="paint11_linear_778_667" x1="36.9932" y1="127.363" x2="190" y2="-85.2407" gradientUnits="userSpaceOnUse">
<stop stop-color="#BF82FF"/>
<stop offset="0.288364" stop-color="#8372FC"/>
<stop offset="0.746608" stop-color="#6A75FB"/>
<stop offset="0.897516" stop-color="#B9B3D2"/>
<stop offset="0.974095" stop-color="#8BE2D7"/>
</linearGradient>
</defs>
</svg>
