<svg width="349" height="720" viewBox="0 0 349 720" fill="none" xmlns="http://www.w3.org/2000/svg">
<path fill-rule="evenodd" clip-rule="evenodd" d="M16 0C7.16309 0 0 7.16357 0 16V660C0 693.137 26.8633 720 60 720H289C322.137 720 349 693.137 349 660V16C349 7.16357 341.836 0 333 0H16ZM108.12 65.54V64.0601H98.6797V65.54H102.5V78H104.32V65.54H108.12ZM118.04 67.3799C117.374 67.02 116.627 66.8398 115.801 66.8398C115.375 66.8398 114.971 66.8848 114.588 66.9746C114.264 67.0508 113.954 67.1592 113.66 67.2998C113.033 67.6064 112.54 68.04 112.181 68.6001V63.2002H110.36V78H112.181V71.9399C112.181 70.7935 112.46 69.9199 113.021 69.3198C113.594 68.7202 114.36 68.4199 115.32 68.4199C116.267 68.4199 117.014 68.7134 117.561 69.2998C118.107 69.8735 118.38 70.7065 118.38 71.7998V78H120.181V71.54C120.181 70.5269 119.987 69.6665 119.601 68.96C119.227 68.2534 118.707 67.7266 118.04 67.3799ZM133.094 73.2002C133.133 72.8135 133.153 72.4468 133.153 72.1001C133.153 71.6777 133.114 71.2744 133.036 70.8901C132.984 70.6372 132.916 70.3921 132.83 70.1558C132.769 69.9868 132.698 69.8223 132.62 69.6616C132.58 69.5801 132.538 69.4995 132.493 69.4199C132.066 68.6201 131.453 67.9932 130.653 67.54C129.854 67.0864 128.934 66.8599 127.894 66.8599C126.826 66.8599 125.88 67.0933 125.054 67.5601C124.24 68.0132 123.606 68.6665 123.153 69.52C123.088 69.6436 123.027 69.77 122.971 69.8994C122.639 70.6636 122.474 71.5308 122.474 72.5C122.474 73.6333 122.707 74.6333 123.173 75.5C123.64 76.3535 124.28 77.0132 125.094 77.48C125.636 77.7866 126.225 77.9927 126.859 78.0977C127.191 78.1528 127.536 78.1802 127.894 78.1802C129.2 78.1802 130.293 77.8535 131.173 77.2002C132.054 76.5332 132.64 75.6733 132.934 74.6201H130.974C130.76 75.2334 130.387 75.7266 129.854 76.1001C129.333 76.46 128.68 76.6401 127.894 76.6401C126.934 76.6401 126.113 76.3398 125.434 75.7402C124.767 75.1265 124.4 74.2798 124.333 73.2002H133.094ZM130.813 69.9399C131.12 70.4331 131.273 71.0269 131.273 71.7202H124.354C124.446 70.6802 124.813 69.8667 125.453 69.2798C126.106 68.6934 126.894 68.3999 127.813 68.3999C128.453 68.3999 129.033 68.5332 129.554 68.7998C130.087 69.0532 130.507 69.4331 130.813 69.9399ZM141.128 67.3599C140.515 68.4399 140.208 69.6602 140.208 71.02C140.208 72.3799 140.515 73.6001 141.128 74.6802C141.741 75.7598 142.574 76.6064 143.628 77.2202C144.098 77.4844 144.59 77.6904 145.104 77.8384C145.757 78.0264 146.444 78.1201 147.168 78.1201C148.015 78.1201 148.801 78.0083 149.527 77.7852C150.105 77.6074 150.646 77.3589 151.147 77.04C152.281 76.3066 153.107 75.2734 153.628 73.9399H151.447C151.277 74.3086 151.074 74.6401 150.838 74.9346C150.669 75.1445 150.483 75.335 150.28 75.5068C150.12 75.6431 149.949 75.7676 149.768 75.8799C149.048 76.3198 148.181 76.54 147.168 76.54C146.194 76.54 145.321 76.3135 144.548 75.8599C144.317 75.7251 144.103 75.5737 143.901 75.4058C143.428 75.0093 143.037 74.5205 142.728 73.9399C142.288 73.1001 142.067 72.1265 142.067 71.02C142.067 69.8999 142.288 68.9268 142.728 68.1001C143.168 67.2598 143.774 66.6133 144.548 66.1602C145.321 65.7065 146.194 65.48 147.168 65.48C147.559 65.48 147.928 65.5137 148.275 65.5811C148.828 65.6885 149.325 65.8813 149.768 66.1602C150.501 66.6133 151.061 67.2598 151.447 68.1001H153.628C153.401 67.5127 153.116 66.9839 152.772 66.5132C152.328 65.9043 151.787 65.3936 151.147 64.98C150.015 64.2466 148.688 63.8799 147.168 63.8799C145.874 63.8799 144.694 64.1865 143.628 64.7998C142.574 65.4136 141.741 66.2666 141.128 67.3599ZM159.517 67.3599C158.931 67.7065 158.477 68.1934 158.157 68.8198V67.04H156.337V78H158.157V72.04C158.157 69.8267 159.177 68.7202 161.217 68.7202H161.697V66.8398C160.844 66.8398 160.117 67.0132 159.517 67.3599ZM173.797 72.2061L173.798 72.1001C173.798 71.1001 173.578 70.2065 173.138 69.4199C172.711 68.6201 172.098 67.9932 171.298 67.54C170.903 67.3164 170.479 67.1479 170.026 67.0347C169.561 66.918 169.065 66.8599 168.538 66.8599C167.471 66.8599 166.524 67.0933 165.698 67.5601C164.885 68.0132 164.251 68.6665 163.798 69.52C163.345 70.3735 163.118 71.3667 163.118 72.5C163.118 73.6333 163.352 74.6333 163.817 75.5C164.284 76.3535 164.925 77.0132 165.738 77.48C166.564 77.9468 167.498 78.1802 168.538 78.1802C169.844 78.1802 170.938 77.8535 171.818 77.2002C172.698 76.5332 173.285 75.6733 173.578 74.6201H171.618C171.567 74.7646 171.508 74.9028 171.44 75.0342C171.352 75.2041 171.249 75.3628 171.13 75.5107C170.953 75.7324 170.743 75.9287 170.498 76.1001C169.978 76.46 169.325 76.6401 168.538 76.6401C167.963 76.6401 167.439 76.5327 166.965 76.3179C166.646 76.1733 166.352 75.981 166.078 75.7402C165.411 75.1265 165.045 74.2798 164.978 73.2002H173.738C173.748 73.1069 173.756 73.0151 173.763 72.9243L173.772 72.8086L173.785 72.6064L173.793 72.3818L173.797 72.2061ZM171.903 71.356C171.913 71.4741 171.918 71.5957 171.918 71.7202H164.998C165.091 70.6802 165.458 69.8667 166.098 69.2798C166.751 68.6934 167.538 68.3999 168.458 68.3999L168.518 68.4004L168.617 68.4028L168.728 68.4082C168.788 68.4121 168.848 68.417 168.907 68.4229C168.958 68.4282 169.008 68.4346 169.059 68.4419C169.284 68.4741 169.501 68.5249 169.71 68.5947C169.878 68.6509 170.041 68.7192 170.198 68.7998C170.489 68.9385 170.747 69.1152 170.972 69.3296C171.157 69.5068 171.319 69.7104 171.458 69.9399C171.607 70.1802 171.72 70.4443 171.797 70.7319C171.814 70.7979 171.83 70.8647 171.843 70.9326L171.865 71.0513C171.882 71.1504 171.895 71.252 171.903 71.356ZM176.2 69.54C175.973 69.9614 175.802 70.418 175.689 70.9102C175.576 71.3989 175.52 71.9219 175.52 72.48C175.52 73.5864 175.747 74.5732 176.2 75.4399C176.653 76.3066 177.273 76.98 178.06 77.46C178.847 77.9399 179.727 78.1802 180.7 78.1802C181.647 78.1802 182.474 77.9731 183.18 77.5601C183.63 77.2935 184.009 76.9854 184.318 76.6357C184.504 76.4258 184.665 76.2002 184.8 75.96V78H186.64V67.04H184.8V69.04C184.454 68.4136 183.927 67.8936 183.22 67.48C182.899 67.292 182.551 67.147 182.178 67.0444C181.729 66.9214 181.244 66.8599 180.72 66.8599C179.747 66.8599 178.86 67.0933 178.06 67.5601C177.273 68.0269 176.653 68.6865 176.2 69.54ZM184.3 70.3398C184.633 70.9531 184.8 71.6733 184.8 72.5C184.8 72.8193 184.775 73.124 184.726 73.4136C184.646 73.8735 184.504 74.2954 184.3 74.6802C184.134 74.9854 183.939 75.2559 183.713 75.4917C183.606 75.604 183.491 75.709 183.37 75.8057C183.235 75.9136 183.092 76.0117 182.94 76.1001C182.709 76.2319 182.468 76.3364 182.216 76.4141C181.858 76.5249 181.479 76.5801 181.08 76.5801C180.4 76.5801 179.78 76.4199 179.22 76.1001C178.66 75.7666 178.213 75.2935 177.88 74.6802C177.547 74.0532 177.38 73.3198 177.38 72.48C177.38 71.6533 177.547 70.9331 177.88 70.3198C178.213 69.7065 178.66 69.2402 179.22 68.9199C179.78 68.6001 180.4 68.4399 181.08 68.4399C181.76 68.4399 182.38 68.6064 182.94 68.9399C183.242 69.1079 183.51 69.3169 183.745 69.5664C183.844 69.6709 183.937 69.7822 184.023 69.9009C184.123 70.0376 184.216 70.1841 184.3 70.3398ZM191.936 75V68.54H194.796V67.04H191.936V64.2798H190.116V67.04H188.696V68.54H190.116V75C190.116 76.0669 190.369 76.8335 190.876 77.2998C191.382 77.7666 192.143 78 193.156 78H194.796V76.46H193.456C192.896 76.46 192.502 76.3535 192.276 76.1401C192.049 75.9136 191.936 75.5332 191.936 75ZM197.061 64.8999C197.301 65.1401 197.594 65.2598 197.941 65.2598C198.274 65.2598 198.554 65.1401 198.781 64.8999C198.884 64.7969 198.965 64.6841 199.024 64.5615C199.102 64.3984 199.141 64.2178 199.141 64.02C199.141 63.6733 199.021 63.3799 198.781 63.1401C198.554 62.8999 198.274 62.7798 197.941 62.7798C197.594 62.7798 197.301 62.8999 197.061 63.1401C196.821 63.3799 196.701 63.6733 196.701 64.02C196.701 64.3667 196.821 64.6602 197.061 64.8999ZM198.821 78V67.04H197.001V78H198.821ZM203.903 77.48C204.743 77.9468 205.676 78.1802 206.703 78.1802C207.423 78.1802 208.099 78.0684 208.73 77.8442L208.904 77.7793C208.972 77.7524 209.04 77.7241 209.107 77.6943C209.255 77.6294 209.4 77.5581 209.543 77.48C210.396 77.0132 211.069 76.3535 211.563 75.5C212.069 74.6333 212.323 73.6333 212.323 72.5C212.323 71.938 212.262 71.4102 212.141 70.917C212.018 70.416 211.832 69.9502 211.583 69.52C211.103 68.6665 210.443 68.0132 209.603 67.5601C208.763 67.0933 207.823 66.8599 206.783 66.8599C205.743 66.8599 204.803 67.0933 203.963 67.5601C203.808 67.6436 203.66 67.7339 203.517 67.8311C203.313 67.9702 203.121 68.1235 202.94 68.2915C202.562 68.6445 202.236 69.0605 201.963 69.54C201.483 70.3936 201.243 71.3799 201.243 72.5C201.243 73.6333 201.476 74.6333 201.943 75.5C202.423 76.3535 203.076 77.0132 203.903 77.48ZM208.543 76.1201C207.969 76.4268 207.356 76.5801 206.703 76.5801C206.049 76.5801 205.45 76.4331 204.903 76.1401C204.356 75.8335 203.916 75.3735 203.583 74.7598C203.263 74.1465 203.103 73.3936 203.103 72.5C203.103 71.6201 203.27 70.8735 203.603 70.2598C203.936 69.6465 204.376 69.1934 204.923 68.8999C205.483 68.5933 206.096 68.4399 206.763 68.4399C207.416 68.4399 208.023 68.5933 208.583 68.8999C209.143 69.1934 209.596 69.6465 209.943 70.2598C210.29 70.8735 210.463 71.6201 210.463 72.5C210.463 72.9648 210.413 73.3926 210.312 73.7832C210.223 74.1318 210.093 74.4507 209.923 74.7402C209.756 75.0356 209.563 75.2949 209.344 75.519C209.107 75.7607 208.84 75.9609 208.543 76.1201ZM223.296 68.0601C222.469 67.2466 221.389 66.8398 220.056 66.8398C219.309 66.8398 218.623 66.9932 217.996 67.2998C217.903 67.3462 217.812 67.3955 217.725 67.4478L217.618 67.5146C217.517 67.5806 217.419 67.6504 217.326 67.7246C217.268 67.7705 217.212 67.8179 217.157 67.8672L217.069 67.9497C217.028 67.9893 216.988 68.0298 216.949 68.0713C216.845 68.1812 216.748 68.2983 216.658 68.4214L216.595 68.5107L216.536 68.6001V67.04H214.716V78H216.536V71.9399C216.536 70.7935 216.816 69.9199 217.376 69.3198C217.949 68.7202 218.716 68.4199 219.676 68.4199C220.623 68.4199 221.369 68.7134 221.916 69.2998C222.462 69.8735 222.736 70.7065 222.736 71.7998V78H224.536V71.54C224.536 70.02 224.123 68.8599 223.296 68.0601ZM234.821 77.48C235.661 77.9468 236.594 78.1802 237.621 78.1802C238.661 78.1802 239.607 77.9468 240.461 77.48C241.314 77.0132 241.987 76.3535 242.481 75.5C242.987 74.6333 243.241 73.6333 243.241 72.5C243.241 71.3667 242.994 70.3735 242.501 69.52C242.322 69.2017 242.118 68.9111 241.889 68.6484C241.503 68.207 241.047 67.8442 240.521 67.5601C239.681 67.0933 238.741 66.8599 237.701 66.8599C236.661 66.8599 235.721 67.0933 234.881 67.5601C234.78 67.6147 234.682 67.6724 234.586 67.7329C234.509 67.7812 234.434 67.8315 234.36 67.8838C234.103 68.0659 233.866 68.271 233.648 68.4995C233.357 68.8047 233.102 69.1519 232.881 69.54C232.577 70.0801 232.37 70.6733 232.258 71.3198C232.22 71.5386 232.193 71.7632 232.178 71.9937C232.167 72.1592 232.161 72.3281 232.161 72.5C232.161 73.6333 232.394 74.6333 232.861 75.5C233.341 76.3535 233.994 77.0132 234.821 77.48ZM239.461 76.1201C238.887 76.4268 238.274 76.5801 237.621 76.5801C237.272 76.5801 236.939 76.5386 236.621 76.4551C236.343 76.3818 236.076 76.2769 235.821 76.1401C235.274 75.8335 234.834 75.3735 234.501 74.7598C234.181 74.1465 234.021 73.3936 234.021 72.5C234.021 71.6201 234.188 70.8735 234.521 70.2598C234.854 69.6465 235.294 69.1934 235.841 68.8999C236.401 68.5933 237.014 68.4399 237.681 68.4399C238.334 68.4399 238.941 68.5933 239.501 68.8999C239.871 69.0938 240.194 69.3579 240.471 69.6914C240.559 69.7974 240.643 69.9102 240.721 70.0303C240.77 70.104 240.816 70.1807 240.861 70.2598C241.013 70.5298 241.132 70.8257 241.218 71.1475C241.327 71.5566 241.381 72.0073 241.381 72.5C241.381 72.9927 241.324 73.4434 241.211 73.8525C241.178 73.9736 241.14 74.0908 241.097 74.2046C241.08 74.2495 241.062 74.2939 241.043 74.3374C241.019 74.3945 240.993 74.4502 240.966 74.5054C240.927 74.5859 240.885 74.6641 240.841 74.7402C240.494 75.3535 240.034 75.8135 239.461 76.1201ZM247.794 68.54H250.094V67.04H247.794V66.2598C247.794 65.54 247.954 65.0269 248.274 64.7202C248.607 64.3999 249.174 64.2402 249.974 64.2402V62.7202C249.305 62.7202 248.722 62.7856 248.227 62.9165C247.685 63.0596 247.248 63.2808 246.914 63.5801C246.831 63.6543 246.753 63.7344 246.681 63.8203C246.547 63.98 246.433 64.1602 246.336 64.3604C246.229 64.5854 246.145 64.8359 246.085 65.1118C246.011 65.4546 245.974 65.8374 245.974 66.2598V67.04H244.554V68.54H245.974V78H247.794V68.54ZM91.459 132.07C90.8789 132.07 90.3682 131.95 89.9287 131.71C89.4883 131.463 89.1455 131.12 88.8984 130.68C88.6582 130.24 88.5381 129.737 88.5381 129.17C88.5381 128.662 88.6123 128.185 88.7588 127.738C88.8398 127.493 88.9434 127.257 89.0684 127.03C89.4287 126.383 89.9219 125.876 90.5488 125.51C90.8379 125.337 91.1426 125.205 91.4629 125.112C91.8369 125.004 92.2314 124.95 92.6484 124.95C93.2354 124.95 93.749 125.073 94.1885 125.32C94.4248 125.447 94.6328 125.603 94.8115 125.786C94.9697 125.949 95.1055 126.133 95.2188 126.34C95.459 126.773 95.5781 127.273 95.5781 127.84C95.5781 128.633 95.3984 129.354 95.0381 130C94.6855 130.64 94.1953 131.146 93.5684 131.52C93.2754 131.691 92.9658 131.823 92.6396 131.914C92.2676 132.018 91.874 132.07 91.459 132.07ZM92.4277 131.136C92.6865 131.061 92.9307 130.949 93.1582 130.8C93.4395 130.615 93.6826 130.394 93.8887 130.134C94.0254 129.962 94.1455 129.774 94.249 129.57C94.3809 129.311 94.4785 129.04 94.543 128.758C94.5771 128.608 94.6025 128.455 94.6182 128.299C94.6318 128.168 94.6387 128.035 94.6387 127.9C94.6387 127.24 94.4482 126.72 94.0684 126.34C93.6885 125.96 93.1719 125.77 92.5186 125.77C92.459 125.77 92.4004 125.771 92.3428 125.774L92.2842 125.778C92.0234 125.797 91.7744 125.848 91.5381 125.932C91.3281 126.005 91.1289 126.105 90.9385 126.23C90.4785 126.53 90.1182 126.937 89.8584 127.45C89.6055 127.957 89.4785 128.51 89.4785 129.11C89.4785 129.344 89.502 129.561 89.5488 129.76C89.5908 129.938 89.6514 130.103 89.7305 130.254C89.8125 130.411 89.915 130.553 90.0381 130.68C90.4189 131.06 90.9355 131.25 91.5889 131.25C91.8848 131.25 92.1641 131.212 92.4277 131.136ZM101.97 126.52L101 132H100.09L100.229 131.2C100.01 131.48 99.7295 131.697 99.3896 131.85C99.1875 131.941 98.9805 132.005 98.7686 132.042C98.625 132.067 98.4785 132.08 98.3301 132.08C97.7568 132.08 97.2969 131.927 96.9502 131.62C96.6104 131.307 96.4395 130.86 96.4395 130.28C96.4395 130.233 96.4414 130.182 96.4453 130.128C96.4521 130.012 96.4678 129.88 96.4902 129.73L97.0596 126.52H97.96L97.4199 129.61L97.4072 129.688L97.3955 129.774L97.3887 129.848C97.3828 129.914 97.3799 129.981 97.3799 130.05C97.3799 130.457 97.4902 130.767 97.71 130.98C97.9365 131.187 98.25 131.29 98.6494 131.29C99.1299 131.29 99.5361 131.14 99.8701 130.84C100.21 130.54 100.427 130.104 100.52 129.53L101.06 126.52H101.97ZM104.236 127.56C104.299 127.458 104.366 127.362 104.438 127.272C104.618 127.047 104.828 126.863 105.066 126.72C105.399 126.52 105.779 126.42 106.206 126.42L106.036 127.36H105.796C105.323 127.36 104.927 127.487 104.606 127.74C104.293 127.993 104.083 128.42 103.977 129.02L103.446 132H102.536L103.507 126.52H104.416L104.236 127.56ZM112.636 125.12C112.229 125.12 111.929 125.2 111.735 125.36C111.698 125.39 111.664 125.425 111.632 125.463C111.568 125.54 111.514 125.633 111.47 125.742C111.425 125.854 111.39 125.983 111.365 126.13L111.295 126.52H112.445L112.315 127.27H111.165L110.325 132H109.415L110.245 127.27H109.545L109.676 126.52H110.375L110.445 126.13C110.559 125.517 110.799 125.07 111.165 124.79C111.258 124.718 111.361 124.655 111.475 124.601C111.569 124.555 111.671 124.517 111.78 124.484C112.061 124.401 112.389 124.36 112.766 124.36L112.636 125.12ZM114.126 125.63C113.979 125.63 113.856 125.583 113.757 125.49C113.663 125.39 113.616 125.267 113.616 125.12C113.616 124.92 113.689 124.75 113.836 124.61C113.983 124.463 114.153 124.39 114.347 124.39C114.5 124.39 114.623 124.437 114.717 124.53C114.763 124.576 114.798 124.63 114.821 124.691C114.845 124.753 114.856 124.823 114.856 124.9C114.856 125.1 114.783 125.273 114.637 125.42C114.593 125.461 114.547 125.497 114.499 125.527C114.47 125.545 114.439 125.561 114.408 125.574C114.37 125.59 114.331 125.603 114.291 125.612C114.238 125.624 114.184 125.63 114.126 125.63ZM114.416 126.52L113.446 132H112.536L113.507 126.52H114.416ZM116.697 127.56C116.917 127.2 117.194 126.92 117.527 126.72C117.86 126.52 118.24 126.42 118.667 126.42L118.497 127.36H118.257C117.784 127.36 117.388 127.487 117.067 127.74C116.903 127.873 116.768 128.053 116.66 128.28C116.562 128.487 116.488 128.734 116.438 129.02L115.907 132H114.997L115.968 126.52H116.877L116.697 127.56ZM120.658 132.09C120.084 132.09 119.614 131.953 119.248 131.68C118.881 131.407 118.698 131.04 118.698 130.58C118.698 130.493 118.701 130.43 118.708 130.39H119.598C119.593 130.44 119.592 130.489 119.594 130.536C119.596 130.584 119.602 130.631 119.611 130.676C119.645 130.836 119.724 130.974 119.848 131.09C119.959 131.19 120.096 131.262 120.26 131.306C120.301 131.317 120.344 131.327 120.389 131.334L120.462 131.346C120.498 131.35 120.536 131.354 120.575 131.356C120.618 131.358 120.662 131.36 120.708 131.36C121.081 131.36 121.381 131.29 121.607 131.15C121.704 131.089 121.781 131.019 121.838 130.938C121.886 130.871 121.919 130.796 121.938 130.715C121.951 130.66 121.958 130.602 121.958 130.54C121.958 130.32 121.864 130.146 121.678 130.02C121.58 129.954 121.455 129.885 121.303 129.813C121.164 129.748 121.002 129.68 120.817 129.61C120.63 129.54 120.462 129.473 120.312 129.407L120.151 129.334C120.09 129.306 120.032 129.278 119.978 129.25C119.758 129.137 119.571 128.98 119.418 128.78C119.354 128.692 119.303 128.596 119.266 128.49C119.241 128.421 119.223 128.348 119.209 128.271C119.194 128.186 119.188 128.095 119.188 128C119.188 127.693 119.274 127.42 119.448 127.18C119.483 127.134 119.521 127.089 119.561 127.047C119.726 126.872 119.935 126.732 120.188 126.63C120.34 126.566 120.503 126.518 120.676 126.485C120.864 126.448 121.064 126.43 121.277 126.43C121.838 126.43 122.298 126.57 122.658 126.85C123.018 127.13 123.198 127.497 123.198 127.95L123.196 128.027L123.193 128.091L123.19 128.128L123.188 128.15H122.317L122.328 128.03C122.328 127.763 122.225 127.553 122.018 127.4C121.817 127.24 121.551 127.16 121.218 127.16C120.891 127.16 120.621 127.233 120.408 127.38C120.321 127.442 120.252 127.512 120.201 127.591C120.132 127.701 120.098 127.827 120.098 127.97C120.098 128.203 120.194 128.387 120.388 128.52C120.581 128.653 120.881 128.8 121.288 128.96C121.628 129.093 121.901 129.217 122.107 129.33C122.178 129.366 122.244 129.407 122.307 129.453C122.431 129.543 122.541 129.652 122.638 129.78C122.784 129.973 122.857 130.217 122.857 130.51C122.857 130.83 122.761 131.11 122.567 131.35C122.381 131.59 122.121 131.773 121.788 131.9C121.697 131.935 121.604 131.964 121.506 131.989L121.418 132.011L121.342 132.027C121.233 132.048 121.121 132.064 121.006 132.075C120.941 132.081 120.876 132.085 120.81 132.087L120.658 132.09ZM125.332 130.5C125.32 130.561 125.312 130.616 125.308 130.667L125.305 130.707L125.303 130.76C125.303 130.927 125.353 131.047 125.452 131.12C125.511 131.16 125.589 131.189 125.686 131.208C125.765 131.223 125.857 131.23 125.962 131.23H126.633L126.492 132H125.673C125.239 132 124.912 131.917 124.692 131.75C124.479 131.583 124.372 131.31 124.372 130.93C124.372 130.783 124.386 130.64 124.412 130.5L124.982 127.27H124.282L124.412 126.52H125.122L125.362 125.14H126.282L126.042 126.52H127.462L127.332 127.27H125.902L125.332 130.5ZM134.543 126.493C134.75 126.538 134.94 126.607 135.113 126.7C135.453 126.874 135.71 127.12 135.884 127.44C136.063 127.753 136.153 128.113 136.153 128.52C136.153 128.66 136.137 128.83 136.104 129.03C136.077 129.203 136.033 129.383 135.974 129.57H131.594C131.58 129.703 131.573 129.8 131.573 129.86C131.573 130.32 131.71 130.68 131.983 130.94C132.264 131.193 132.627 131.32 133.073 131.32C133.467 131.32 133.811 131.23 134.104 131.05C134.403 130.863 134.63 130.617 134.783 130.31H135.764C135.523 130.836 135.153 131.267 134.653 131.6C134.16 131.927 133.587 132.09 132.934 132.09C132.247 132.09 131.693 131.894 131.273 131.5C130.86 131.1 130.653 130.557 130.653 129.87C130.653 129.677 130.674 129.47 130.714 129.25C130.813 128.683 131.017 128.187 131.323 127.76C131.418 127.628 131.52 127.506 131.627 127.394C131.869 127.142 132.145 126.937 132.453 126.78C132.907 126.547 133.396 126.43 133.924 126.43C134.013 126.43 134.1 126.434 134.184 126.44C134.241 126.445 134.298 126.451 134.354 126.459C134.418 126.468 134.481 126.479 134.543 126.493ZM135.184 128.91C135.203 128.777 135.214 128.653 135.214 128.54C135.214 128.113 135.077 127.783 134.804 127.55C134.675 127.437 134.525 127.351 134.356 127.293C134.178 127.231 133.977 127.2 133.754 127.2C133.287 127.2 132.863 127.354 132.483 127.66C132.38 127.743 132.285 127.833 132.199 127.933C132.144 127.998 132.091 128.067 132.043 128.14C132.011 128.189 131.98 128.24 131.951 128.292C131.85 128.477 131.771 128.683 131.714 128.91H135.184ZM138.965 131.14L141.484 126.52H142.465L139.345 132H138.274L137.095 126.52H138.074L138.965 131.14ZM145.73 126.43C146.19 126.43 146.587 126.52 146.92 126.7C147.088 126.786 147.235 126.889 147.362 127.01C147.493 127.134 147.603 127.278 147.69 127.44C147.762 127.563 147.818 127.694 147.861 127.833C147.927 128.045 147.96 128.274 147.96 128.52L147.958 128.609L147.949 128.726C147.941 128.818 147.929 128.919 147.91 129.03C147.893 129.144 147.867 129.261 147.836 129.381C147.819 129.443 147.801 129.506 147.78 129.57H143.4C143.387 129.703 143.38 129.8 143.38 129.86C143.38 130.32 143.517 130.68 143.79 130.94C144.07 131.193 144.434 131.32 144.88 131.32C145.06 131.32 145.229 131.301 145.389 131.264C145.449 131.249 145.508 131.232 145.565 131.212L145.658 131.178C145.697 131.162 145.735 131.145 145.772 131.126C145.819 131.103 145.865 131.077 145.91 131.05C146.061 130.957 146.192 130.848 146.306 130.724C146.326 130.702 146.346 130.68 146.364 130.657L146.415 130.592C146.454 130.541 146.49 130.487 146.523 130.431C146.547 130.392 146.569 130.352 146.59 130.31H147.57C147.33 130.836 146.96 131.267 146.46 131.6C145.967 131.927 145.394 132.09 144.74 132.09C144.054 132.09 143.5 131.894 143.08 131.5C142.932 131.356 142.81 131.193 142.715 131.013C142.69 130.966 142.668 130.918 142.646 130.869C142.522 130.579 142.46 130.246 142.46 129.87C142.46 129.677 142.48 129.47 142.521 129.25C142.62 128.683 142.823 128.187 143.13 127.76C143.437 127.333 143.813 127.007 144.26 126.78C144.714 126.547 145.203 126.43 145.73 126.43ZM146.99 128.91C147.01 128.777 147.021 128.653 147.021 128.54C147.021 128.113 146.884 127.783 146.61 127.55C146.344 127.317 145.993 127.2 145.561 127.2C145.094 127.2 144.67 127.354 144.29 127.66C144.212 127.721 144.14 127.787 144.072 127.858C143.811 128.135 143.626 128.485 143.521 128.91H146.99ZM150.281 127.56C150.392 127.379 150.517 127.218 150.656 127.077C150.795 126.938 150.946 126.819 151.111 126.72C151.287 126.615 151.476 126.537 151.677 126.487C151.857 126.442 152.049 126.42 152.251 126.42L152.081 127.36H151.841C151.368 127.36 150.972 127.487 150.651 127.74C150.338 127.993 150.128 128.42 150.021 129.02L149.491 132H148.581L149.552 126.52H150.461L150.281 127.56ZM155.431 129.25C155.53 128.683 155.73 128.19 156.03 127.77C156.203 127.529 156.398 127.319 156.616 127.14C156.784 127.001 156.966 126.881 157.16 126.78C157.607 126.547 158.09 126.43 158.61 126.43C158.962 126.43 159.272 126.475 159.542 126.564C159.682 126.61 159.811 126.668 159.929 126.738C160.02 126.792 160.104 126.853 160.181 126.92C160.359 127.074 160.5 127.255 160.604 127.465C160.622 127.503 160.64 127.542 160.656 127.581C160.672 127.62 160.687 127.66 160.7 127.701C160.759 127.878 160.796 128.07 160.811 128.28H159.83C159.819 128.17 159.797 128.067 159.764 127.973C159.695 127.781 159.581 127.62 159.42 127.49C159.187 127.297 158.87 127.2 158.471 127.2C157.95 127.2 157.497 127.38 157.11 127.74C156.73 128.093 156.483 128.597 156.37 129.25C156.354 129.362 156.341 129.465 156.332 129.558C156.324 129.647 156.32 129.728 156.32 129.8C156.32 130.007 156.344 130.194 156.391 130.361C156.454 130.587 156.561 130.777 156.71 130.93C156.815 131.036 156.936 131.12 157.069 131.182C157.267 131.274 157.493 131.32 157.75 131.32C158.15 131.32 158.497 131.227 158.79 131.04C158.935 130.95 159.063 130.841 159.176 130.713C159.296 130.577 159.397 130.419 159.48 130.24H160.46C160.398 130.385 160.328 130.522 160.249 130.652C160.063 130.956 159.831 131.219 159.551 131.443C159.486 131.494 159.42 131.543 159.351 131.59C158.851 131.923 158.271 132.09 157.61 132.09C157.499 132.09 157.392 132.085 157.288 132.075C157.12 132.058 156.962 132.028 156.813 131.984C156.673 131.943 156.54 131.89 156.416 131.824C156.253 131.737 156.104 131.629 155.971 131.5C155.741 131.274 155.577 131.001 155.479 130.681C155.466 130.637 155.454 130.593 155.443 130.547C155.426 130.476 155.412 130.402 155.401 130.327C155.381 130.188 155.37 130.043 155.37 129.89C155.37 129.683 155.391 129.47 155.431 129.25ZM163.774 132.09C163.314 132.09 162.908 131.997 162.555 131.81C162.208 131.617 161.938 131.35 161.744 131.01C161.551 130.664 161.454 130.263 161.454 129.81C161.454 129.514 161.486 129.229 161.552 128.957C161.624 128.66 161.735 128.378 161.885 128.11C161.931 128.026 161.979 127.944 162.031 127.866L162.074 127.802C162.111 127.749 162.149 127.697 162.189 127.647C162.432 127.34 162.724 127.084 163.064 126.88C163.447 126.653 163.863 126.512 164.311 126.457C164.455 126.439 164.604 126.43 164.755 126.43C165.215 126.43 165.621 126.527 165.975 126.72C166.335 126.907 166.611 127.173 166.805 127.52L166.831 127.566L166.86 127.622C166.886 127.671 166.909 127.722 166.931 127.774C166.955 127.833 166.977 127.895 166.996 127.957L167.028 128.068C167.041 128.121 167.053 128.175 167.062 128.229L167.076 128.312C167.082 128.349 167.086 128.387 167.09 128.426C167.1 128.521 167.104 128.619 167.104 128.72C167.104 129.34 166.958 129.907 166.664 130.42C166.597 130.539 166.522 130.652 166.443 130.76C166.344 130.895 166.235 131.02 166.118 131.136C165.925 131.329 165.707 131.497 165.465 131.64C165.36 131.702 165.253 131.758 165.144 131.807C164.992 131.875 164.837 131.93 164.677 131.974C164.391 132.051 164.09 132.09 163.774 132.09ZM163.885 131.32C163.995 131.32 164.103 131.312 164.208 131.297C164.514 131.252 164.797 131.144 165.055 130.97C165.401 130.73 165.671 130.417 165.864 130.03C165.955 129.852 166.024 129.668 166.074 129.48C166.134 129.251 166.164 129.015 166.164 128.77C166.164 128.544 166.135 128.342 166.076 128.164C166.004 127.942 165.887 127.757 165.725 127.61C165.432 127.336 165.064 127.2 164.624 127.2C164.191 127.2 163.805 127.32 163.465 127.56C163.381 127.617 163.302 127.679 163.228 127.746C163.146 127.819 163.071 127.898 163.001 127.983C162.936 128.062 162.875 128.146 162.82 128.234C162.798 128.27 162.776 128.306 162.756 128.343C162.728 128.394 162.7 128.446 162.675 128.5C162.488 128.894 162.395 129.317 162.395 129.77C162.395 130.263 162.534 130.646 162.814 130.92C163.095 131.187 163.451 131.32 163.885 131.32ZM169.981 124.6L168.671 132H167.761L169.071 124.6H169.981ZM172.442 124.6L171.132 132H170.222L171.532 124.6H172.442ZM172.823 129.24C172.923 128.68 173.123 128.19 173.423 127.77C173.729 127.343 174.1 127.013 174.533 126.78C174.973 126.547 175.439 126.43 175.933 126.43C176.413 126.43 176.81 126.533 177.123 126.74C177.264 126.833 177.386 126.938 177.488 127.052C177.612 127.192 177.707 127.348 177.773 127.52L177.953 126.52H178.873L177.903 132H176.983L177.173 130.98C176.933 131.3 176.616 131.567 176.223 131.78C175.83 131.987 175.396 132.09 174.923 132.09C174.496 132.09 174.12 132 173.793 131.82C173.752 131.796 173.713 131.772 173.674 131.747C173.634 131.719 173.594 131.691 173.556 131.661L173.523 131.635C173.323 131.471 173.16 131.27 173.033 131.03C172.853 130.69 172.763 130.297 172.763 129.85C172.763 129.765 172.766 129.68 172.773 129.593C172.783 129.477 172.8 129.359 172.823 129.24ZM177.473 129.25C177.5 129.11 177.513 128.96 177.513 128.8C177.513 128.313 177.366 127.93 177.073 127.65C176.786 127.363 176.419 127.22 175.973 127.22C175.8 127.22 175.63 127.241 175.464 127.282C175.304 127.322 175.146 127.381 174.993 127.46L174.932 127.493C174.897 127.513 174.862 127.534 174.828 127.556C174.752 127.605 174.679 127.659 174.609 127.718C174.46 127.843 174.325 127.99 174.203 128.16C173.983 128.467 173.836 128.827 173.763 129.24C173.756 129.275 173.75 129.312 173.745 129.349C173.73 129.458 173.723 129.576 173.723 129.7C173.723 130.193 173.866 130.583 174.153 130.87C174.439 131.15 174.806 131.29 175.253 131.29C175.593 131.29 175.916 131.21 176.223 131.05C176.308 131.004 176.39 130.954 176.469 130.898C176.551 130.839 176.629 130.775 176.704 130.705C176.819 130.597 176.926 130.475 177.023 130.34C177.1 130.233 177.168 130.121 177.228 130.003L177.271 129.91L177.313 129.814C177.33 129.771 177.346 129.729 177.361 129.685L177.395 129.581C177.426 129.475 177.453 129.364 177.473 129.25ZM181.141 127.54C181.195 127.467 181.254 127.398 181.316 127.331C181.379 127.263 181.447 127.198 181.518 127.136C181.69 126.986 181.884 126.854 182.101 126.74C182.291 126.64 182.488 126.564 182.694 126.513C182.914 126.458 183.143 126.43 183.381 126.43C184.034 126.43 184.557 126.626 184.951 127.02C185.351 127.414 185.551 127.947 185.551 128.62C185.551 128.813 185.531 129.02 185.491 129.24C185.391 129.793 185.188 130.287 184.881 130.72C184.581 131.153 184.21 131.49 183.771 131.73C183.594 131.828 183.412 131.906 183.226 131.964C182.957 132.048 182.679 132.09 182.391 132.09C181.917 132.09 181.521 131.987 181.201 131.78C180.881 131.573 180.657 131.31 180.531 130.99L180.351 132H179.44L180.75 124.6H181.661L181.141 127.54ZM184.601 128.78C184.601 128.293 184.458 127.914 184.171 127.64C183.884 127.36 183.514 127.22 183.061 127.22C182.728 127.22 182.404 127.303 182.091 127.47C181.919 127.558 181.76 127.668 181.615 127.802C181.495 127.913 181.383 128.039 181.281 128.18C181.223 128.26 181.171 128.343 181.124 128.43C181.086 128.499 181.052 128.57 181.021 128.643C180.94 128.831 180.88 129.033 180.841 129.25C180.833 129.292 180.826 129.335 180.82 129.379C180.807 129.483 180.801 129.593 180.801 129.71C180.801 130.197 180.944 130.583 181.23 130.87C181.524 131.15 181.894 131.29 182.341 131.29C182.681 131.29 183.004 131.21 183.311 131.05C183.624 130.883 183.891 130.646 184.111 130.34C184.14 130.3 184.167 130.26 184.194 130.218C184.232 130.158 184.267 130.096 184.3 130.032L184.354 129.923C184.379 129.867 184.403 129.809 184.425 129.749C184.458 129.659 184.487 129.565 184.512 129.468C184.531 129.394 184.547 129.318 184.561 129.24C184.587 129.1 184.601 128.947 184.601 128.78ZM188.608 132.09C188.148 132.09 187.742 131.997 187.389 131.81C187.042 131.617 186.772 131.35 186.579 131.01C186.385 130.664 186.289 130.263 186.289 129.81C186.289 129.532 186.317 129.266 186.375 129.009C186.391 128.935 186.41 128.861 186.432 128.789C186.461 128.688 186.496 128.59 186.535 128.493C186.588 128.362 186.649 128.234 186.718 128.11C187.005 127.59 187.398 127.18 187.898 126.88C188.405 126.58 188.968 126.43 189.588 126.43C190.048 126.43 190.455 126.527 190.809 126.72C191.021 126.83 191.204 126.967 191.358 127.133C191.465 127.249 191.559 127.377 191.639 127.52C191.838 127.86 191.938 128.26 191.938 128.72C191.938 129.34 191.792 129.907 191.499 130.42C191.205 130.933 190.805 131.34 190.298 131.64C190.21 131.692 190.121 131.74 190.029 131.783C189.894 131.847 189.754 131.9 189.611 131.944C189.295 132.041 188.961 132.09 188.608 132.09ZM188.718 131.32C189.152 131.32 189.542 131.203 189.889 130.97C190.235 130.73 190.505 130.417 190.698 130.03C190.898 129.637 190.999 129.217 190.999 128.77C190.999 128.263 190.852 127.876 190.559 127.61C190.265 127.336 189.898 127.2 189.458 127.2C189.025 127.2 188.639 127.32 188.298 127.56C187.958 127.793 187.695 128.106 187.508 128.5C187.322 128.894 187.229 129.317 187.229 129.77C187.229 130.263 187.369 130.646 187.648 130.92C187.929 131.187 188.285 131.32 188.718 131.32ZM194.295 127.56C194.515 127.2 194.792 126.92 195.125 126.72C195.458 126.52 195.838 126.42 196.265 126.42L196.095 127.36H195.855C195.593 127.36 195.354 127.399 195.139 127.477C194.965 127.54 194.808 127.627 194.665 127.74C194.352 127.993 194.142 128.42 194.035 129.02L193.505 132H192.595L193.565 126.52H194.475L194.295 127.56ZM196.465 129.24C196.565 128.68 196.766 128.19 197.065 127.77C197.249 127.515 197.455 127.294 197.683 127.109C197.837 126.983 198.001 126.874 198.175 126.78C198.441 126.639 198.718 126.54 199.003 126.484C199.19 126.448 199.38 126.43 199.575 126.43C200.056 126.43 200.452 126.533 200.766 126.74C200.813 126.771 200.858 126.804 200.901 126.838C200.951 126.876 200.997 126.917 201.041 126.959C201.078 126.995 201.114 127.033 201.147 127.071C201.181 127.11 201.212 127.15 201.241 127.192C201.273 127.238 201.303 127.285 201.33 127.334C201.362 127.394 201.391 127.456 201.416 127.52L201.595 126.52H202.516L201.545 132H200.625L200.815 130.98C200.575 131.3 200.259 131.567 199.865 131.78C199.472 131.987 199.039 132.09 198.565 132.09C198.139 132.09 197.762 132 197.436 131.82C197.109 131.633 196.855 131.37 196.675 131.03C196.496 130.69 196.405 130.297 196.405 129.85C196.405 129.798 196.407 129.747 196.41 129.694C196.412 129.644 196.416 129.593 196.421 129.542L196.44 129.387L196.455 129.296L196.465 129.24ZM201.115 129.25C201.142 129.11 201.155 128.96 201.155 128.8C201.155 128.313 201.009 127.93 200.715 127.65C200.429 127.363 200.062 127.22 199.615 127.22C199.275 127.22 198.949 127.3 198.635 127.46C198.534 127.513 198.437 127.574 198.344 127.644C198.159 127.783 197.992 127.955 197.845 128.16C197.625 128.467 197.479 128.827 197.405 129.24C197.392 129.312 197.381 129.388 197.375 129.467C197.369 129.542 197.365 129.619 197.365 129.7C197.365 130.193 197.509 130.583 197.795 130.87C198.082 131.15 198.449 131.29 198.896 131.29C199.075 131.29 199.25 131.268 199.419 131.223C199.572 131.183 199.72 131.125 199.865 131.05C200.179 130.883 200.445 130.646 200.666 130.34C200.892 130.027 201.042 129.664 201.115 129.25ZM204.463 130.5C204.443 130.6 204.433 130.687 204.433 130.76C204.433 130.927 204.483 131.047 204.583 131.12C204.69 131.193 204.86 131.23 205.093 131.23H205.763L205.623 132H204.803C204.37 132 204.043 131.917 203.823 131.75C203.61 131.583 203.503 131.31 203.503 130.93C203.503 130.783 203.517 130.64 203.543 130.5L204.113 127.27H203.413L203.543 126.52H204.253L204.493 125.14H205.413L205.173 126.52H206.593L206.463 127.27H205.033L204.463 130.5ZM208.316 125.63C208.169 125.63 208.046 125.583 207.946 125.49C207.853 125.39 207.806 125.267 207.806 125.12C207.806 124.92 207.879 124.75 208.026 124.61C208.118 124.518 208.22 124.454 208.332 124.42L208.381 124.407L208.442 124.396L208.473 124.393L208.536 124.39C208.689 124.39 208.812 124.437 208.906 124.53C208.999 124.624 209.046 124.747 209.046 124.9C209.046 125.1 208.973 125.273 208.826 125.42C208.734 125.508 208.633 125.568 208.523 125.601C208.457 125.62 208.388 125.63 208.316 125.63ZM208.606 126.52L207.636 132H206.726L207.696 126.52H208.606ZM211.597 132.09C211.137 132.09 210.73 131.997 210.377 131.81C210.303 131.769 210.233 131.725 210.166 131.677C210.059 131.6 209.961 131.515 209.872 131.421C209.755 131.299 209.653 131.162 209.567 131.01C209.467 130.832 209.394 130.639 209.345 130.433C209.3 130.238 209.277 130.03 209.277 129.81C209.277 129.19 209.42 128.624 209.707 128.11C209.994 127.59 210.387 127.18 210.887 126.88C211.394 126.58 211.957 126.43 212.577 126.43C212.88 126.43 213.161 126.472 213.418 126.557C213.55 126.6 213.677 126.654 213.797 126.72C214.157 126.907 214.434 127.173 214.627 127.52C214.827 127.86 214.927 128.26 214.927 128.72C214.927 129.34 214.78 129.907 214.487 130.42C214.193 130.933 213.793 131.34 213.287 131.64C213.185 131.7 213.081 131.754 212.975 131.802C212.827 131.869 212.675 131.924 212.519 131.968C212.227 132.049 211.919 132.09 211.597 132.09ZM211.707 131.32C212.14 131.32 212.53 131.203 212.877 130.97C213.224 130.73 213.494 130.417 213.687 130.03C213.887 129.637 213.987 129.217 213.987 128.77C213.987 128.263 213.84 127.876 213.547 127.61C213.253 127.336 212.887 127.2 212.447 127.2C212.013 127.2 211.627 127.32 211.287 127.56C211.182 127.632 211.085 127.711 210.995 127.798C210.88 127.909 210.777 128.032 210.686 128.167C210.616 128.271 210.553 128.382 210.497 128.5C210.397 128.709 210.324 128.928 210.278 129.154C210.237 129.353 210.217 129.558 210.217 129.77C210.217 129.99 210.245 130.188 210.3 130.364C210.369 130.583 210.481 130.768 210.637 130.92C210.917 131.187 211.273 131.32 211.707 131.32ZM219.243 126.42C219.81 126.42 220.263 126.573 220.603 126.88C220.943 127.18 221.113 127.62 221.113 128.2C221.113 128.414 221.097 128.604 221.063 128.77L220.493 132H219.593L220.143 128.9C220.17 128.76 220.183 128.613 220.183 128.46C220.183 128.331 220.172 128.212 220.149 128.103C220.139 128.052 220.125 128.002 220.11 127.956C220.072 127.843 220.021 127.744 219.956 127.655C219.922 127.61 219.884 127.568 219.843 127.53C219.623 127.317 219.313 127.21 218.913 127.21C218.433 127.21 218.023 127.36 217.683 127.66C217.482 127.841 217.324 128.071 217.208 128.352C217.131 128.537 217.073 128.743 217.033 128.97L216.493 132H215.583L216.553 126.52H217.463L217.323 127.31C217.55 127.023 217.833 126.803 218.173 126.65C218.272 126.605 218.372 126.567 218.474 126.536C218.548 126.513 218.623 126.493 218.698 126.477L218.774 126.462C218.928 126.434 219.084 126.42 219.243 126.42ZM226.658 127.53C226.898 127.217 227.215 126.957 227.608 126.75C228.001 126.537 228.432 126.43 228.898 126.43C229.325 126.43 229.702 126.52 230.028 126.7C230.059 126.716 230.089 126.732 230.118 126.75L230.209 126.807C230.267 126.845 230.321 126.887 230.374 126.931C230.431 126.979 230.484 127.031 230.535 127.086C230.636 127.197 230.724 127.321 230.798 127.46C230.978 127.787 231.068 128.173 231.068 128.62C231.068 128.813 231.048 129.02 231.008 129.24C230.969 129.459 230.913 129.669 230.841 129.87C230.778 130.043 230.704 130.21 230.617 130.37C230.551 130.49 230.478 130.607 230.398 130.72C230.098 131.153 229.728 131.49 229.288 131.73C228.855 131.97 228.395 132.09 227.908 132.09C227.441 132.09 227.048 131.987 226.728 131.78C226.415 131.567 226.188 131.303 226.048 130.99L225.418 134.6H224.508L225.928 126.52H226.838L226.658 127.53ZM230.118 128.78C230.118 128.293 229.975 127.914 229.688 127.64C229.401 127.36 229.032 127.22 228.578 127.22C228.245 127.22 227.921 127.303 227.608 127.47C227.295 127.63 227.025 127.867 226.798 128.18C226.758 128.236 226.721 128.294 226.685 128.353C226.632 128.442 226.584 128.536 226.542 128.632C226.459 128.824 226.398 129.029 226.358 129.25C226.332 129.39 226.318 129.543 226.318 129.71C226.318 130.197 226.461 130.583 226.748 130.87C227.042 131.15 227.412 131.29 227.858 131.29C228.198 131.29 228.521 131.21 228.828 131.05C229.142 130.883 229.408 130.646 229.628 130.34C229.855 130.027 230.005 129.66 230.078 129.24C230.105 129.1 230.118 128.947 230.118 128.78ZM233.416 127.56C233.636 127.2 233.913 126.92 234.246 126.72C234.58 126.52 234.959 126.42 235.386 126.42L235.216 127.36H234.976C234.503 127.36 234.106 127.487 233.786 127.74C233.632 127.864 233.503 128.03 233.399 128.238C233.292 128.454 233.21 128.714 233.156 129.02L232.626 132H231.716L232.686 126.52H233.596L233.416 127.56ZM237.856 132.09C237.583 132.09 237.329 132.057 237.094 131.991C236.933 131.946 236.78 131.886 236.637 131.81C236.29 131.617 236.02 131.35 235.827 131.01C235.633 130.664 235.537 130.263 235.537 129.81C235.537 129.473 235.579 129.151 235.664 128.846C235.734 128.589 235.835 128.344 235.966 128.11C236.253 127.59 236.646 127.18 237.146 126.88C237.502 126.669 237.886 126.533 238.297 126.47L238.399 126.456C238.451 126.45 238.503 126.444 238.556 126.44C238.648 126.434 238.741 126.43 238.836 126.43C238.941 126.43 239.044 126.435 239.144 126.445C239.346 126.466 239.537 126.507 239.716 126.57C239.835 126.611 239.948 126.661 240.057 126.72C240.417 126.907 240.693 127.173 240.887 127.52C241.086 127.86 241.187 128.26 241.187 128.72C241.187 128.912 241.173 129.098 241.145 129.279C241.125 129.403 241.1 129.525 241.067 129.645C241.041 129.745 241.009 129.843 240.973 129.939C240.952 129.995 240.929 130.05 240.905 130.104C240.877 130.169 240.846 130.234 240.813 130.297L240.747 130.42C240.453 130.933 240.053 131.34 239.546 131.64C239.04 131.94 238.477 132.09 237.856 132.09ZM237.966 131.32C238.4 131.32 238.79 131.203 239.137 130.97C239.483 130.73 239.753 130.417 239.946 130.03C240.146 129.637 240.247 129.217 240.247 128.77C240.247 128.263 240.1 127.876 239.807 127.61C239.777 127.582 239.747 127.556 239.715 127.531C239.672 127.496 239.627 127.464 239.581 127.435C239.513 127.393 239.442 127.356 239.368 127.325C239.28 127.288 239.187 127.259 239.09 127.239C238.969 127.213 238.841 127.2 238.707 127.2C238.475 127.2 238.257 127.234 238.053 127.303C237.874 127.362 237.705 127.448 237.546 127.56C237.207 127.793 236.943 128.106 236.756 128.5C236.634 128.757 236.552 129.027 236.51 129.31C236.488 129.459 236.477 129.613 236.477 129.77C236.477 130.263 236.617 130.646 236.896 130.92L236.955 130.972L236.988 131L237.036 131.036L237.098 131.08C237.172 131.129 237.25 131.17 237.333 131.204C237.522 131.281 237.733 131.32 237.966 131.32ZM243.463 125.63C243.31 125.63 243.183 125.583 243.083 125.49C242.99 125.396 242.943 125.273 242.943 125.12C242.943 125.089 242.944 125.059 242.948 125.029C242.952 124.998 242.958 124.967 242.965 124.938C242.975 124.9 242.988 124.864 243.004 124.829C243.041 124.749 243.094 124.676 243.163 124.61C243.31 124.463 243.479 124.39 243.673 124.39C243.826 124.39 243.95 124.437 244.043 124.53C244.136 124.624 244.183 124.747 244.183 124.9C244.183 125.1 244.11 125.273 243.963 125.42C243.816 125.56 243.65 125.63 243.463 125.63ZM242.573 133.19C242.493 133.677 242.31 134.033 242.023 134.26C241.736 134.487 241.356 134.6 240.883 134.6H240.343L240.483 133.83H240.863C241.116 133.83 241.303 133.78 241.423 133.68C241.543 133.58 241.623 133.41 241.663 133.17L242.843 126.52H243.753L242.573 133.19ZM247.673 126.43C248.133 126.43 248.53 126.52 248.863 126.7C249.204 126.874 249.46 127.12 249.633 127.44C249.72 127.591 249.786 127.753 249.831 127.927C249.848 127.993 249.863 128.062 249.874 128.131C249.882 128.184 249.889 128.237 249.894 128.291L249.9 128.397C249.902 128.438 249.903 128.479 249.903 128.52C249.903 128.66 249.887 128.83 249.854 129.03C249.827 129.203 249.784 129.383 249.724 129.57H245.343C245.33 129.703 245.323 129.8 245.323 129.86C245.323 130.32 245.46 130.68 245.733 130.94C246.014 131.193 246.377 131.32 246.823 131.32C247.217 131.32 247.56 131.23 247.854 131.05C248.153 130.863 248.38 130.617 248.534 130.31H249.514C249.273 130.836 248.903 131.267 248.403 131.6C248.181 131.748 247.941 131.862 247.686 131.943C247.555 131.984 247.42 132.017 247.281 132.041C247.09 132.073 246.891 132.09 246.684 132.09C245.997 132.09 245.443 131.894 245.023 131.5C244.838 131.32 244.694 131.112 244.592 130.875C244.536 130.745 244.492 130.606 244.461 130.458C244.422 130.275 244.403 130.08 244.403 129.87C244.403 129.677 244.423 129.47 244.463 129.25C244.563 128.683 244.767 128.187 245.073 127.76C245.38 127.333 245.757 127.007 246.204 126.78C246.313 126.724 246.425 126.674 246.539 126.632C246.646 126.592 246.754 126.558 246.864 126.529C247.124 126.463 247.394 126.43 247.673 126.43ZM248.934 128.91C248.954 128.777 248.963 128.653 248.963 128.54C248.963 128.113 248.827 127.783 248.554 127.55C248.392 127.409 248.2 127.31 247.977 127.254C247.883 127.231 247.783 127.215 247.678 127.207L247.623 127.203C247.584 127.201 247.544 127.2 247.503 127.2C247.037 127.2 246.613 127.354 246.233 127.66C245.854 127.96 245.597 128.376 245.463 128.91H248.934ZM250.665 129.25C250.765 128.683 250.965 128.19 251.265 127.77C251.571 127.343 251.948 127.013 252.395 126.78C252.664 126.64 252.946 126.542 253.242 126.485C253.438 126.449 253.638 126.43 253.845 126.43C254.518 126.43 255.042 126.593 255.415 126.92C255.794 127.247 256.005 127.7 256.044 128.28H255.064C255.031 127.947 254.895 127.683 254.655 127.49C254.421 127.297 254.104 127.2 253.705 127.2C253.185 127.2 252.731 127.38 252.345 127.74C251.965 128.093 251.718 128.597 251.604 129.25C251.571 129.47 251.555 129.653 251.555 129.8C251.555 130.287 251.685 130.664 251.945 130.93C252.205 131.19 252.551 131.32 252.985 131.32C253.124 131.32 253.257 131.309 253.383 131.286C253.483 131.268 253.579 131.243 253.67 131.211C253.796 131.167 253.914 131.11 254.024 131.04C254.325 130.854 254.555 130.586 254.715 130.24H255.695C255.455 130.8 255.084 131.25 254.584 131.59C254.338 131.754 254.072 131.878 253.787 131.961C253.715 131.982 253.642 132 253.568 132.016C253.494 132.032 253.418 132.046 253.341 132.057C253.181 132.079 253.016 132.09 252.845 132.09C252.158 132.09 251.611 131.894 251.205 131.5C251.078 131.375 250.972 131.237 250.885 131.084C250.698 130.753 250.604 130.355 250.604 129.89C250.604 129.786 250.61 129.681 250.62 129.573C250.63 129.467 250.645 129.359 250.665 129.25ZM257.979 130.5C257.959 130.6 257.949 130.687 257.949 130.76C257.949 130.927 257.999 131.047 258.099 131.12C258.206 131.193 258.375 131.23 258.609 131.23H259.279L259.139 132H258.319C257.886 132 257.559 131.917 257.339 131.75C257.125 131.583 257.019 131.31 257.019 130.93C257.019 130.783 257.032 130.64 257.059 130.5L257.629 127.27H256.929L257.059 126.52H257.769L258.009 125.14H258.929L258.689 126.52H260.109L259.979 127.27H258.549L257.979 130.5ZM152.638 90.7998V113H147.508V90.7998H152.638ZM128.71 91.9399V96.0498H120.13V100.49H126.55V104.48H120.13V113H115V91.9399H128.71ZM154.796 100.07C154.155 101.37 153.836 102.88 153.836 104.6C153.836 106.32 154.155 107.84 154.796 109.16C155.455 110.46 156.346 111.47 157.466 112.19C158.586 112.89 159.836 113.24 161.216 113.24C162.396 113.24 163.426 113 164.306 112.52C164.731 112.293 165.109 112.03 165.441 111.731C165.811 111.399 166.122 111.021 166.375 110.6V113H171.505V90.7998H166.375V98.5698C165.855 97.79 165.136 97.1699 164.216 96.71C163.61 96.4004 162.959 96.1953 162.264 96.0938C162.058 96.064 161.849 96.043 161.635 96.0312C161.552 96.0269 161.469 96.0234 161.385 96.0215L161.216 96.02C159.836 96.02 158.586 96.3701 157.466 97.0698C156.346 97.77 155.455 98.77 154.796 100.07ZM165.296 101.6C166.016 102.34 166.375 103.35 166.375 104.63C166.375 105.91 166.016 106.92 165.296 107.66C164.596 108.4 163.735 108.77 162.716 108.77C161.695 108.77 160.825 108.4 160.105 107.66C159.69 107.21 159.398 106.668 159.23 106.036C159.182 105.855 159.144 105.666 159.115 105.47C159.09 105.295 159.072 105.115 159.063 104.929L159.059 104.777C159.057 104.719 159.056 104.66 159.056 104.6C159.056 103.32 159.405 102.32 160.105 101.6C160.825 100.86 161.695 100.49 162.716 100.49C163.342 100.49 163.907 100.629 164.413 100.908C164.731 101.083 165.025 101.314 165.296 101.6ZM174.49 100.01V98.1201H177.79V95.6602C177.79 92.8101 179.17 90.9502 182.59 90.9502H185.17V92.8398H182.56C180.58 92.8398 180.01 93.7402 180.01 95.6899V98.1201H184.33V100.01H180.01V111.11H184.33V113H174.49V111.11H177.79V100.01H174.49ZM183.296 105.56C183.296 101.3 186.326 97.8198 191.096 97.8198C195.836 97.8198 198.866 101.3 198.866 105.56C198.866 109.82 195.836 113.3 191.096 113.3C186.326 113.3 183.296 109.82 183.296 105.56ZM185.516 105.56C185.516 108.71 187.436 111.41 191.096 111.41C194.726 111.41 196.646 108.71 196.646 105.56C196.646 102.41 194.726 99.71 191.096 99.71C187.436 99.71 185.516 102.41 185.516 105.56ZM197.187 113V111.11H201.357V92.8398H198.327V90.9502H202.167C203.067 90.9502 203.577 91.3999 203.577 92.27V111.11H207.107H207.747H211.217V100.01H208.247V98.1201H211.727C212.141 98.1201 212.471 98.1992 212.717 98.3696C213.077 98.6187 213.257 99.063 213.257 99.7402V111.11H217.427V113H207.747H207.107H197.187ZM209.987 93.4399C209.987 92.3901 210.857 91.52 211.937 91.52C213.017 91.52 213.917 92.3901 213.917 93.4399C213.917 94.52 213.017 95.3901 211.937 95.3901C210.857 95.3901 209.987 94.52 209.987 93.4399ZM215.642 105.56C215.642 101.3 218.672 97.8198 223.442 97.8198C228.182 97.8198 231.212 101.3 231.212 105.56C231.212 109.82 228.182 113.3 223.442 113.3C218.672 113.3 215.642 109.82 215.642 105.56ZM217.862 105.56C217.862 108.71 219.782 111.41 223.442 111.41C227.072 111.41 228.992 108.71 228.992 105.56C228.992 102.41 227.072 99.71 223.442 99.71C219.782 99.71 217.862 102.41 217.862 105.56ZM140.016 95.7378L140.002 95.7163C139.902 95.5708 139.739 95.4951 139.574 95.5C139.443 95.4976 139.317 95.5469 139.217 95.647L139.207 95.6567C135.832 97.981 132.639 100.046 130.324 101.514C129.542 102.01 129.033 102.768 128.796 103.547C128.674 103.948 128.621 104.368 128.646 104.772C128.669 105.147 128.76 105.51 128.926 105.832C128.995 105.966 129.117 106.055 129.253 106.088C129.29 106.097 129.328 106.102 129.367 106.102C129.445 106.103 129.524 106.084 129.599 106.046C129.845 105.919 129.94 105.618 129.813 105.373C129.615 104.987 129.575 104.423 129.753 103.838C129.852 103.513 130.014 103.197 130.235 102.92C130.368 102.754 130.522 102.603 130.696 102.471C130.749 102.432 130.804 102.394 130.86 102.358C131.487 101.96 132.179 101.519 132.921 101.04C133.706 100.534 134.548 99.9858 135.43 99.4048C136.724 98.5522 138.104 97.6274 139.521 96.6548L145.36 102.476C142.132 104.689 139.097 106.65 136.874 108.061C135.566 108.89 134.929 110.423 135.188 111.674C135.32 112.317 135.696 112.896 136.344 113.224C136.981 113.546 137.812 113.592 138.8 113.331C140.927 112.768 142.312 112.24 143.468 111.8L143.865 111.649L144.239 111.51C144.391 111.454 144.54 111.4 144.688 111.348C144.804 111.334 144.914 111.277 144.996 111.179C145.038 111.133 145.072 111.08 145.095 111.022C145.111 110.978 145.122 110.932 145.127 110.884C145.133 110.817 145.125 110.747 145.102 110.678C145.07 110.586 145.02 110.514 144.95 110.457L141.301 107.083C141.183 106.975 141.029 106.936 140.887 106.963C140.784 106.983 140.687 107.039 140.612 107.127C140.526 107.229 140.486 107.358 140.491 107.484C140.497 107.619 140.553 107.752 140.657 107.849L143.686 110.648C143.481 110.724 143.275 110.802 143.063 110.883C142.713 111.017 142.347 111.156 141.947 111.301C141.606 111.425 141.242 111.553 140.843 111.685C140.187 111.901 139.437 112.127 138.544 112.364C137.706 112.585 137.146 112.509 136.796 112.332C136.456 112.159 136.247 111.859 136.167 111.472C136 110.664 136.422 109.532 137.41 108.905C139.752 107.419 142.997 105.32 146.424 102.958L146.919 102.617L146.492 102.193L140.016 95.7378Z" fill="#D9D9D9"/>
<path fill-rule="evenodd" clip-rule="evenodd" d="M16 0C7.16309 0 0 7.16357 0 16V660C0 693.137 26.8633 720 60 720H289C322.137 720 349 693.137 349 660V16C349 7.16357 341.836 0 333 0H16ZM108.12 65.54V64.0601H98.6797V65.54H102.5V78H104.32V65.54H108.12ZM118.04 67.3799C117.374 67.02 116.627 66.8398 115.801 66.8398C115.375 66.8398 114.971 66.8848 114.588 66.9746C114.264 67.0508 113.954 67.1592 113.66 67.2998C113.033 67.6064 112.54 68.04 112.181 68.6001V63.2002H110.36V78H112.181V71.9399C112.181 70.7935 112.46 69.9199 113.021 69.3198C113.594 68.7202 114.36 68.4199 115.32 68.4199C116.267 68.4199 117.014 68.7134 117.561 69.2998C118.107 69.8735 118.38 70.7065 118.38 71.7998V78H120.181V71.54C120.181 70.5269 119.987 69.6665 119.601 68.96C119.227 68.2534 118.707 67.7266 118.04 67.3799ZM133.094 73.2002C133.133 72.8135 133.153 72.4468 133.153 72.1001C133.153 71.6777 133.114 71.2744 133.036 70.8901C132.984 70.6372 132.916 70.3921 132.83 70.1558C132.769 69.9868 132.698 69.8223 132.62 69.6616C132.58 69.5801 132.538 69.4995 132.493 69.4199C132.066 68.6201 131.453 67.9932 130.653 67.54C129.854 67.0864 128.934 66.8599 127.894 66.8599C126.826 66.8599 125.88 67.0933 125.054 67.5601C124.24 68.0132 123.606 68.6665 123.153 69.52C123.088 69.6436 123.027 69.77 122.971 69.8994C122.639 70.6636 122.474 71.5308 122.474 72.5C122.474 73.6333 122.707 74.6333 123.173 75.5C123.64 76.3535 124.28 77.0132 125.094 77.48C125.636 77.7866 126.225 77.9927 126.859 78.0977C127.191 78.1528 127.536 78.1802 127.894 78.1802C129.2 78.1802 130.293 77.8535 131.173 77.2002C132.054 76.5332 132.64 75.6733 132.934 74.6201H130.974C130.76 75.2334 130.387 75.7266 129.854 76.1001C129.333 76.46 128.68 76.6401 127.894 76.6401C126.934 76.6401 126.113 76.3398 125.434 75.7402C124.767 75.1265 124.4 74.2798 124.333 73.2002H133.094ZM130.813 69.9399C131.12 70.4331 131.273 71.0269 131.273 71.7202H124.354C124.446 70.6802 124.813 69.8667 125.453 69.2798C126.106 68.6934 126.894 68.3999 127.813 68.3999C128.453 68.3999 129.033 68.5332 129.554 68.7998C130.087 69.0532 130.507 69.4331 130.813 69.9399ZM141.128 67.3599C140.515 68.4399 140.208 69.6602 140.208 71.02C140.208 72.3799 140.515 73.6001 141.128 74.6802C141.741 75.7598 142.574 76.6064 143.628 77.2202C144.098 77.4844 144.59 77.6904 145.104 77.8384C145.757 78.0264 146.444 78.1201 147.168 78.1201C148.015 78.1201 148.801 78.0083 149.527 77.7852C150.105 77.6074 150.646 77.3589 151.147 77.04C152.281 76.3066 153.107 75.2734 153.628 73.9399H151.447C151.277 74.3086 151.074 74.6401 150.838 74.9346C150.669 75.1445 150.483 75.335 150.28 75.5068C150.12 75.6431 149.949 75.7676 149.768 75.8799C149.048 76.3198 148.181 76.54 147.168 76.54C146.194 76.54 145.321 76.3135 144.548 75.8599C144.317 75.7251 144.103 75.5737 143.901 75.4058C143.428 75.0093 143.037 74.5205 142.728 73.9399C142.288 73.1001 142.067 72.1265 142.067 71.02C142.067 69.8999 142.288 68.9268 142.728 68.1001C143.168 67.2598 143.774 66.6133 144.548 66.1602C145.321 65.7065 146.194 65.48 147.168 65.48C147.559 65.48 147.928 65.5137 148.275 65.5811C148.828 65.6885 149.325 65.8813 149.768 66.1602C150.501 66.6133 151.061 67.2598 151.447 68.1001H153.628C153.401 67.5127 153.116 66.9839 152.772 66.5132C152.328 65.9043 151.787 65.3936 151.147 64.98C150.015 64.2466 148.688 63.8799 147.168 63.8799C145.874 63.8799 144.694 64.1865 143.628 64.7998C142.574 65.4136 141.741 66.2666 141.128 67.3599ZM159.517 67.3599C158.931 67.7065 158.477 68.1934 158.157 68.8198V67.04H156.337V78H158.157V72.04C158.157 69.8267 159.177 68.7202 161.217 68.7202H161.697V66.8398C160.844 66.8398 160.117 67.0132 159.517 67.3599ZM173.797 72.2061L173.798 72.1001C173.798 71.1001 173.578 70.2065 173.138 69.4199C172.711 68.6201 172.098 67.9932 171.298 67.54C170.903 67.3164 170.479 67.1479 170.026 67.0347C169.561 66.918 169.065 66.8599 168.538 66.8599C167.471 66.8599 166.524 67.0933 165.698 67.5601C164.885 68.0132 164.251 68.6665 163.798 69.52C163.345 70.3735 163.118 71.3667 163.118 72.5C163.118 73.6333 163.352 74.6333 163.817 75.5C164.284 76.3535 164.925 77.0132 165.738 77.48C166.564 77.9468 167.498 78.1802 168.538 78.1802C169.844 78.1802 170.938 77.8535 171.818 77.2002C172.698 76.5332 173.285 75.6733 173.578 74.6201H171.618C171.567 74.7646 171.508 74.9028 171.44 75.0342C171.352 75.2041 171.249 75.3628 171.13 75.5107C170.953 75.7324 170.743 75.9287 170.498 76.1001C169.978 76.46 169.325 76.6401 168.538 76.6401C167.963 76.6401 167.439 76.5327 166.965 76.3179C166.646 76.1733 166.352 75.981 166.078 75.7402C165.411 75.1265 165.045 74.2798 164.978 73.2002H173.738C173.748 73.1069 173.756 73.0151 173.763 72.9243L173.772 72.8086L173.785 72.6064L173.793 72.3818L173.797 72.2061ZM171.903 71.356C171.913 71.4741 171.918 71.5957 171.918 71.7202H164.998C165.091 70.6802 165.458 69.8667 166.098 69.2798C166.751 68.6934 167.538 68.3999 168.458 68.3999L168.518 68.4004L168.617 68.4028L168.728 68.4082C168.788 68.4121 168.848 68.417 168.907 68.4229C168.958 68.4282 169.008 68.4346 169.059 68.4419C169.284 68.4741 169.501 68.5249 169.71 68.5947C169.878 68.6509 170.041 68.7192 170.198 68.7998C170.489 68.9385 170.747 69.1152 170.972 69.3296C171.157 69.5068 171.319 69.7104 171.458 69.9399C171.607 70.1802 171.72 70.4443 171.797 70.7319C171.814 70.7979 171.83 70.8647 171.843 70.9326L171.865 71.0513C171.882 71.1504 171.895 71.252 171.903 71.356ZM176.2 69.54C175.973 69.9614 175.802 70.418 175.689 70.9102C175.576 71.3989 175.52 71.9219 175.52 72.48C175.52 73.5864 175.747 74.5732 176.2 75.4399C176.653 76.3066 177.273 76.98 178.06 77.46C178.847 77.9399 179.727 78.1802 180.7 78.1802C181.647 78.1802 182.474 77.9731 183.18 77.5601C183.63 77.2935 184.009 76.9854 184.318 76.6357C184.504 76.4258 184.665 76.2002 184.8 75.96V78H186.64V67.04H184.8V69.04C184.454 68.4136 183.927 67.8936 183.22 67.48C182.899 67.292 182.551 67.147 182.178 67.0444C181.729 66.9214 181.244 66.8599 180.72 66.8599C179.747 66.8599 178.86 67.0933 178.06 67.5601C177.273 68.0269 176.653 68.6865 176.2 69.54ZM184.3 70.3398C184.633 70.9531 184.8 71.6733 184.8 72.5C184.8 72.8193 184.775 73.124 184.726 73.4136C184.646 73.8735 184.504 74.2954 184.3 74.6802C184.134 74.9854 183.939 75.2559 183.713 75.4917C183.606 75.604 183.491 75.709 183.37 75.8057C183.235 75.9136 183.092 76.0117 182.94 76.1001C182.709 76.2319 182.468 76.3364 182.216 76.4141C181.858 76.5249 181.479 76.5801 181.08 76.5801C180.4 76.5801 179.78 76.4199 179.22 76.1001C178.66 75.7666 178.213 75.2935 177.88 74.6802C177.547 74.0532 177.38 73.3198 177.38 72.48C177.38 71.6533 177.547 70.9331 177.88 70.3198C178.213 69.7065 178.66 69.2402 179.22 68.9199C179.78 68.6001 180.4 68.4399 181.08 68.4399C181.76 68.4399 182.38 68.6064 182.94 68.9399C183.242 69.1079 183.51 69.3169 183.745 69.5664C183.844 69.6709 183.937 69.7822 184.023 69.9009C184.123 70.0376 184.216 70.1841 184.3 70.3398ZM191.936 75V68.54H194.796V67.04H191.936V64.2798H190.116V67.04H188.696V68.54H190.116V75C190.116 76.0669 190.369 76.8335 190.876 77.2998C191.382 77.7666 192.143 78 193.156 78H194.796V76.46H193.456C192.896 76.46 192.502 76.3535 192.276 76.1401C192.049 75.9136 191.936 75.5332 191.936 75ZM197.061 64.8999C197.301 65.1401 197.594 65.2598 197.941 65.2598C198.274 65.2598 198.554 65.1401 198.781 64.8999C198.884 64.7969 198.965 64.6841 199.024 64.5615C199.102 64.3984 199.141 64.2178 199.141 64.02C199.141 63.6733 199.021 63.3799 198.781 63.1401C198.554 62.8999 198.274 62.7798 197.941 62.7798C197.594 62.7798 197.301 62.8999 197.061 63.1401C196.821 63.3799 196.701 63.6733 196.701 64.02C196.701 64.3667 196.821 64.6602 197.061 64.8999ZM198.821 78V67.04H197.001V78H198.821ZM203.903 77.48C204.743 77.9468 205.676 78.1802 206.703 78.1802C207.423 78.1802 208.099 78.0684 208.73 77.8442L208.904 77.7793C208.972 77.7524 209.04 77.7241 209.107 77.6943C209.255 77.6294 209.4 77.5581 209.543 77.48C210.396 77.0132 211.069 76.3535 211.563 75.5C212.069 74.6333 212.323 73.6333 212.323 72.5C212.323 71.938 212.262 71.4102 212.141 70.917C212.018 70.416 211.832 69.9502 211.583 69.52C211.103 68.6665 210.443 68.0132 209.603 67.5601C208.763 67.0933 207.823 66.8599 206.783 66.8599C205.743 66.8599 204.803 67.0933 203.963 67.5601C203.808 67.6436 203.66 67.7339 203.517 67.8311C203.313 67.9702 203.121 68.1235 202.94 68.2915C202.562 68.6445 202.236 69.0605 201.963 69.54C201.483 70.3936 201.243 71.3799 201.243 72.5C201.243 73.6333 201.476 74.6333 201.943 75.5C202.423 76.3535 203.076 77.0132 203.903 77.48ZM208.543 76.1201C207.969 76.4268 207.356 76.5801 206.703 76.5801C206.049 76.5801 205.45 76.4331 204.903 76.1401C204.356 75.8335 203.916 75.3735 203.583 74.7598C203.263 74.1465 203.103 73.3936 203.103 72.5C203.103 71.6201 203.27 70.8735 203.603 70.2598C203.936 69.6465 204.376 69.1934 204.923 68.8999C205.483 68.5933 206.096 68.4399 206.763 68.4399C207.416 68.4399 208.023 68.5933 208.583 68.8999C209.143 69.1934 209.596 69.6465 209.943 70.2598C210.29 70.8735 210.463 71.6201 210.463 72.5C210.463 72.9648 210.413 73.3926 210.312 73.7832C210.223 74.1318 210.093 74.4507 209.923 74.7402C209.756 75.0356 209.563 75.2949 209.344 75.519C209.107 75.7607 208.84 75.9609 208.543 76.1201ZM223.296 68.0601C222.469 67.2466 221.389 66.8398 220.056 66.8398C219.309 66.8398 218.623 66.9932 217.996 67.2998C217.903 67.3462 217.812 67.3955 217.725 67.4478L217.618 67.5146C217.517 67.5806 217.419 67.6504 217.326 67.7246C217.268 67.7705 217.212 67.8179 217.157 67.8672L217.069 67.9497C217.028 67.9893 216.988 68.0298 216.949 68.0713C216.845 68.1812 216.748 68.2983 216.658 68.4214L216.595 68.5107L216.536 68.6001V67.04H214.716V78H216.536V71.9399C216.536 70.7935 216.816 69.9199 217.376 69.3198C217.949 68.7202 218.716 68.4199 219.676 68.4199C220.623 68.4199 221.369 68.7134 221.916 69.2998C222.462 69.8735 222.736 70.7065 222.736 71.7998V78H224.536V71.54C224.536 70.02 224.123 68.8599 223.296 68.0601ZM234.821 77.48C235.661 77.9468 236.594 78.1802 237.621 78.1802C238.661 78.1802 239.607 77.9468 240.461 77.48C241.314 77.0132 241.987 76.3535 242.481 75.5C242.987 74.6333 243.241 73.6333 243.241 72.5C243.241 71.3667 242.994 70.3735 242.501 69.52C242.322 69.2017 242.118 68.9111 241.889 68.6484C241.503 68.207 241.047 67.8442 240.521 67.5601C239.681 67.0933 238.741 66.8599 237.701 66.8599C236.661 66.8599 235.721 67.0933 234.881 67.5601C234.78 67.6147 234.682 67.6724 234.586 67.7329C234.509 67.7812 234.434 67.8315 234.36 67.8838C234.103 68.0659 233.866 68.271 233.648 68.4995C233.357 68.8047 233.102 69.1519 232.881 69.54C232.577 70.0801 232.37 70.6733 232.258 71.3198C232.22 71.5386 232.193 71.7632 232.178 71.9937C232.167 72.1592 232.161 72.3281 232.161 72.5C232.161 73.6333 232.394 74.6333 232.861 75.5C233.341 76.3535 233.994 77.0132 234.821 77.48ZM239.461 76.1201C238.887 76.4268 238.274 76.5801 237.621 76.5801C237.272 76.5801 236.939 76.5386 236.621 76.4551C236.343 76.3818 236.076 76.2769 235.821 76.1401C235.274 75.8335 234.834 75.3735 234.501 74.7598C234.181 74.1465 234.021 73.3936 234.021 72.5C234.021 71.6201 234.188 70.8735 234.521 70.2598C234.854 69.6465 235.294 69.1934 235.841 68.8999C236.401 68.5933 237.014 68.4399 237.681 68.4399C238.334 68.4399 238.941 68.5933 239.501 68.8999C239.871 69.0938 240.194 69.3579 240.471 69.6914C240.559 69.7974 240.643 69.9102 240.721 70.0303C240.77 70.104 240.816 70.1807 240.861 70.2598C241.013 70.5298 241.132 70.8257 241.218 71.1475C241.327 71.5566 241.381 72.0073 241.381 72.5C241.381 72.9927 241.324 73.4434 241.211 73.8525C241.178 73.9736 241.14 74.0908 241.097 74.2046C241.08 74.2495 241.062 74.2939 241.043 74.3374C241.019 74.3945 240.993 74.4502 240.966 74.5054C240.927 74.5859 240.885 74.6641 240.841 74.7402C240.494 75.3535 240.034 75.8135 239.461 76.1201ZM247.794 68.54H250.094V67.04H247.794V66.2598C247.794 65.54 247.954 65.0269 248.274 64.7202C248.607 64.3999 249.174 64.2402 249.974 64.2402V62.7202C249.305 62.7202 248.722 62.7856 248.227 62.9165C247.685 63.0596 247.248 63.2808 246.914 63.5801C246.831 63.6543 246.753 63.7344 246.681 63.8203C246.547 63.98 246.433 64.1602 246.336 64.3604C246.229 64.5854 246.145 64.8359 246.085 65.1118C246.011 65.4546 245.974 65.8374 245.974 66.2598V67.04H244.554V68.54H245.974V78H247.794V68.54ZM91.459 132.07C90.8789 132.07 90.3682 131.95 89.9287 131.71C89.4883 131.463 89.1455 131.12 88.8984 130.68C88.6582 130.24 88.5381 129.737 88.5381 129.17C88.5381 128.662 88.6123 128.185 88.7588 127.738C88.8398 127.493 88.9434 127.257 89.0684 127.03C89.4287 126.383 89.9219 125.876 90.5488 125.51C90.8379 125.337 91.1426 125.205 91.4629 125.112C91.8369 125.004 92.2314 124.95 92.6484 124.95C93.2354 124.95 93.749 125.073 94.1885 125.32C94.4248 125.447 94.6328 125.603 94.8115 125.786C94.9697 125.949 95.1055 126.133 95.2188 126.34C95.459 126.773 95.5781 127.273 95.5781 127.84C95.5781 128.633 95.3984 129.354 95.0381 130C94.6855 130.64 94.1953 131.146 93.5684 131.52C93.2754 131.691 92.9658 131.823 92.6396 131.914C92.2676 132.018 91.874 132.07 91.459 132.07ZM92.4277 131.136C92.6865 131.061 92.9307 130.949 93.1582 130.8C93.4395 130.615 93.6826 130.394 93.8887 130.134C94.0254 129.962 94.1455 129.774 94.249 129.57C94.3809 129.311 94.4785 129.04 94.543 128.758C94.5771 128.608 94.6025 128.455 94.6182 128.299C94.6318 128.168 94.6387 128.035 94.6387 127.9C94.6387 127.24 94.4482 126.72 94.0684 126.34C93.6885 125.96 93.1719 125.77 92.5186 125.77C92.459 125.77 92.4004 125.771 92.3428 125.774L92.2842 125.778C92.0234 125.797 91.7744 125.848 91.5381 125.932C91.3281 126.005 91.1289 126.105 90.9385 126.23C90.4785 126.53 90.1182 126.937 89.8584 127.45C89.6055 127.957 89.4785 128.51 89.4785 129.11C89.4785 129.344 89.502 129.561 89.5488 129.76C89.5908 129.938 89.6514 130.103 89.7305 130.254C89.8125 130.411 89.915 130.553 90.0381 130.68C90.4189 131.06 90.9355 131.25 91.5889 131.25C91.8848 131.25 92.1641 131.212 92.4277 131.136ZM101.97 126.52L101 132H100.09L100.229 131.2C100.01 131.48 99.7295 131.697 99.3896 131.85C99.1875 131.941 98.9805 132.005 98.7686 132.042C98.625 132.067 98.4785 132.08 98.3301 132.08C97.7568 132.08 97.2969 131.927 96.9502 131.62C96.6104 131.307 96.4395 130.86 96.4395 130.28C96.4395 130.233 96.4414 130.182 96.4453 130.128C96.4521 130.012 96.4678 129.88 96.4902 129.73L97.0596 126.52H97.96L97.4199 129.61L97.4072 129.688L97.3955 129.774L97.3887 129.848C97.3828 129.914 97.3799 129.981 97.3799 130.05C97.3799 130.457 97.4902 130.767 97.71 130.98C97.9365 131.187 98.25 131.29 98.6494 131.29C99.1299 131.29 99.5361 131.14 99.8701 130.84C100.21 130.54 100.427 130.104 100.52 129.53L101.06 126.52H101.97ZM104.236 127.56C104.299 127.458 104.366 127.362 104.438 127.272C104.618 127.047 104.828 126.863 105.066 126.72C105.399 126.52 105.779 126.42 106.206 126.42L106.036 127.36H105.796C105.323 127.36 104.927 127.487 104.606 127.74C104.293 127.993 104.083 128.42 103.977 129.02L103.446 132H102.536L103.507 126.52H104.416L104.236 127.56ZM112.636 125.12C112.229 125.12 111.929 125.2 111.735 125.36C111.698 125.39 111.664 125.425 111.632 125.463C111.568 125.54 111.514 125.633 111.47 125.742C111.425 125.854 111.39 125.983 111.365 126.13L111.295 126.52H112.445L112.315 127.27H111.165L110.325 132H109.415L110.245 127.27H109.545L109.676 126.52H110.375L110.445 126.13C110.559 125.517 110.799 125.07 111.165 124.79C111.258 124.718 111.361 124.655 111.475 124.601C111.569 124.555 111.671 124.517 111.78 124.484C112.061 124.401 112.389 124.36 112.766 124.36L112.636 125.12ZM114.126 125.63C113.979 125.63 113.856 125.583 113.757 125.49C113.663 125.39 113.616 125.267 113.616 125.12C113.616 124.92 113.689 124.75 113.836 124.61C113.983 124.463 114.153 124.39 114.347 124.39C114.5 124.39 114.623 124.437 114.717 124.53C114.763 124.576 114.798 124.63 114.821 124.691C114.845 124.753 114.856 124.823 114.856 124.9C114.856 125.1 114.783 125.273 114.637 125.42C114.593 125.461 114.547 125.497 114.499 125.527C114.47 125.545 114.439 125.561 114.408 125.574C114.37 125.59 114.331 125.603 114.291 125.612C114.238 125.624 114.184 125.63 114.126 125.63ZM114.416 126.52L113.446 132H112.536L113.507 126.52H114.416ZM116.697 127.56C116.917 127.2 117.194 126.92 117.527 126.72C117.86 126.52 118.24 126.42 118.667 126.42L118.497 127.36H118.257C117.784 127.36 117.388 127.487 117.067 127.74C116.903 127.873 116.768 128.053 116.66 128.28C116.562 128.487 116.488 128.734 116.438 129.02L115.907 132H114.997L115.968 126.52H116.877L116.697 127.56ZM120.658 132.09C120.084 132.09 119.614 131.953 119.248 131.68C118.881 131.407 118.698 131.04 118.698 130.58C118.698 130.493 118.701 130.43 118.708 130.39H119.598C119.593 130.44 119.592 130.489 119.594 130.536C119.596 130.584 119.602 130.631 119.611 130.676C119.645 130.836 119.724 130.974 119.848 131.09C119.959 131.19 120.096 131.262 120.26 131.306C120.301 131.317 120.344 131.327 120.389 131.334L120.462 131.346C120.498 131.35 120.536 131.354 120.575 131.356C120.618 131.358 120.662 131.36 120.708 131.36C121.081 131.36 121.381 131.29 121.607 131.15C121.704 131.089 121.781 131.019 121.838 130.938C121.886 130.871 121.919 130.796 121.938 130.715C121.951 130.66 121.958 130.602 121.958 130.54C121.958 130.32 121.864 130.146 121.678 130.02C121.58 129.954 121.455 129.885 121.303 129.813C121.164 129.748 121.002 129.68 120.817 129.61C120.63 129.54 120.462 129.473 120.312 129.407L120.151 129.334C120.09 129.306 120.032 129.278 119.978 129.25C119.758 129.137 119.571 128.98 119.418 128.78C119.354 128.692 119.303 128.596 119.266 128.49C119.241 128.421 119.223 128.348 119.209 128.271C119.194 128.186 119.188 128.095 119.188 128C119.188 127.693 119.274 127.42 119.448 127.18C119.483 127.134 119.521 127.089 119.561 127.047C119.726 126.872 119.935 126.732 120.188 126.63C120.34 126.566 120.503 126.518 120.676 126.485C120.864 126.448 121.064 126.43 121.277 126.43C121.838 126.43 122.298 126.57 122.658 126.85C123.018 127.13 123.198 127.497 123.198 127.95L123.196 128.027L123.193 128.091L123.19 128.128L123.188 128.15H122.317L122.328 128.03C122.328 127.763 122.225 127.553 122.018 127.4C121.817 127.24 121.551 127.16 121.218 127.16C120.891 127.16 120.621 127.233 120.408 127.38C120.321 127.442 120.252 127.512 120.201 127.591C120.132 127.701 120.098 127.827 120.098 127.97C120.098 128.203 120.194 128.387 120.388 128.52C120.581 128.653 120.881 128.8 121.288 128.96C121.628 129.093 121.901 129.217 122.107 129.33C122.178 129.366 122.244 129.407 122.307 129.453C122.431 129.543 122.541 129.652 122.638 129.78C122.784 129.973 122.857 130.217 122.857 130.51C122.857 130.83 122.761 131.11 122.567 131.35C122.381 131.59 122.121 131.773 121.788 131.9C121.697 131.935 121.604 131.964 121.506 131.989L121.418 132.011L121.342 132.027C121.233 132.048 121.121 132.064 121.006 132.075C120.941 132.081 120.876 132.085 120.81 132.087L120.658 132.09ZM125.332 130.5C125.32 130.561 125.312 130.616 125.308 130.667L125.305 130.707L125.303 130.76C125.303 130.927 125.353 131.047 125.452 131.12C125.511 131.16 125.589 131.189 125.686 131.208C125.765 131.223 125.857 131.23 125.962 131.23H126.633L126.492 132H125.673C125.239 132 124.912 131.917 124.692 131.75C124.479 131.583 124.372 131.31 124.372 130.93C124.372 130.783 124.386 130.64 124.412 130.5L124.982 127.27H124.282L124.412 126.52H125.122L125.362 125.14H126.282L126.042 126.52H127.462L127.332 127.27H125.902L125.332 130.5ZM134.543 126.493C134.75 126.538 134.94 126.607 135.113 126.7C135.453 126.874 135.71 127.12 135.884 127.44C136.063 127.753 136.153 128.113 136.153 128.52C136.153 128.66 136.137 128.83 136.104 129.03C136.077 129.203 136.033 129.383 135.974 129.57H131.594C131.58 129.703 131.573 129.8 131.573 129.86C131.573 130.32 131.71 130.68 131.983 130.94C132.264 131.193 132.627 131.32 133.073 131.32C133.467 131.32 133.811 131.23 134.104 131.05C134.403 130.863 134.63 130.617 134.783 130.31H135.764C135.523 130.836 135.153 131.267 134.653 131.6C134.16 131.927 133.587 132.09 132.934 132.09C132.247 132.09 131.693 131.894 131.273 131.5C130.86 131.1 130.653 130.557 130.653 129.87C130.653 129.677 130.674 129.47 130.714 129.25C130.813 128.683 131.017 128.187 131.323 127.76C131.418 127.628 131.52 127.506 131.627 127.394C131.869 127.142 132.145 126.937 132.453 126.78C132.907 126.547 133.396 126.43 133.924 126.43C134.013 126.43 134.1 126.434 134.184 126.44C134.241 126.445 134.298 126.451 134.354 126.459C134.418 126.468 134.481 126.479 134.543 126.493ZM135.184 128.91C135.203 128.777 135.214 128.653 135.214 128.54C135.214 128.113 135.077 127.783 134.804 127.55C134.675 127.437 134.525 127.351 134.356 127.293C134.178 127.231 133.977 127.2 133.754 127.2C133.287 127.2 132.863 127.354 132.483 127.66C132.38 127.743 132.285 127.833 132.199 127.933C132.144 127.998 132.091 128.067 132.043 128.14C132.011 128.189 131.98 128.24 131.951 128.292C131.85 128.477 131.771 128.683 131.714 128.91H135.184ZM138.965 131.14L141.484 126.52H142.465L139.345 132H138.274L137.095 126.52H138.074L138.965 131.14ZM145.73 126.43C146.19 126.43 146.587 126.52 146.92 126.7C147.088 126.786 147.235 126.889 147.362 127.01C147.493 127.134 147.603 127.278 147.69 127.44C147.762 127.563 147.818 127.694 147.861 127.833C147.927 128.045 147.96 128.274 147.96 128.52L147.958 128.609L147.949 128.726C147.941 128.818 147.929 128.919 147.91 129.03C147.893 129.144 147.867 129.261 147.836 129.381C147.819 129.443 147.801 129.506 147.78 129.57H143.4C143.387 129.703 143.38 129.8 143.38 129.86C143.38 130.32 143.517 130.68 143.79 130.94C144.07 131.193 144.434 131.32 144.88 131.32C145.06 131.32 145.229 131.301 145.389 131.264C145.449 131.249 145.508 131.232 145.565 131.212L145.658 131.178C145.697 131.162 145.735 131.145 145.772 131.126C145.819 131.103 145.865 131.077 145.91 131.05C146.061 130.957 146.192 130.848 146.306 130.724C146.326 130.702 146.346 130.68 146.364 130.657L146.415 130.592C146.454 130.541 146.49 130.487 146.523 130.431C146.547 130.392 146.569 130.352 146.59 130.31H147.57C147.33 130.836 146.96 131.267 146.46 131.6C145.967 131.927 145.394 132.09 144.74 132.09C144.054 132.09 143.5 131.894 143.08 131.5C142.932 131.356 142.81 131.193 142.715 131.013C142.69 130.966 142.668 130.918 142.646 130.869C142.522 130.579 142.46 130.246 142.46 129.87C142.46 129.677 142.48 129.47 142.521 129.25C142.62 128.683 142.823 128.187 143.13 127.76C143.437 127.333 143.813 127.007 144.26 126.78C144.714 126.547 145.203 126.43 145.73 126.43ZM146.99 128.91C147.01 128.777 147.021 128.653 147.021 128.54C147.021 128.113 146.884 127.783 146.61 127.55C146.344 127.317 145.993 127.2 145.561 127.2C145.094 127.2 144.67 127.354 144.29 127.66C144.212 127.721 144.14 127.787 144.072 127.858C143.811 128.135 143.626 128.485 143.521 128.91H146.99ZM150.281 127.56C150.392 127.379 150.517 127.218 150.656 127.077C150.795 126.938 150.946 126.819 151.111 126.72C151.287 126.615 151.476 126.537 151.677 126.487C151.857 126.442 152.049 126.42 152.251 126.42L152.081 127.36H151.841C151.368 127.36 150.972 127.487 150.651 127.74C150.338 127.993 150.128 128.42 150.021 129.02L149.491 132H148.581L149.552 126.52H150.461L150.281 127.56ZM155.431 129.25C155.53 128.683 155.73 128.19 156.03 127.77C156.203 127.529 156.398 127.319 156.616 127.14C156.784 127.001 156.966 126.881 157.16 126.78C157.607 126.547 158.09 126.43 158.61 126.43C158.962 126.43 159.272 126.475 159.542 126.564C159.682 126.61 159.811 126.668 159.929 126.738C160.02 126.792 160.104 126.853 160.181 126.92C160.359 127.074 160.5 127.255 160.604 127.465C160.622 127.503 160.64 127.542 160.656 127.581C160.672 127.62 160.687 127.66 160.7 127.701C160.759 127.878 160.796 128.07 160.811 128.28H159.83C159.819 128.17 159.797 128.067 159.764 127.973C159.695 127.781 159.581 127.62 159.42 127.49C159.187 127.297 158.87 127.2 158.471 127.2C157.95 127.2 157.497 127.38 157.11 127.74C156.73 128.093 156.483 128.597 156.37 129.25C156.354 129.362 156.341 129.465 156.332 129.558C156.324 129.647 156.32 129.728 156.32 129.8C156.32 130.007 156.344 130.194 156.391 130.361C156.454 130.587 156.561 130.777 156.71 130.93C156.815 131.036 156.936 131.12 157.069 131.182C157.267 131.274 157.493 131.32 157.75 131.32C158.15 131.32 158.497 131.227 158.79 131.04C158.935 130.95 159.063 130.841 159.176 130.713C159.296 130.577 159.397 130.419 159.48 130.24H160.46C160.398 130.385 160.328 130.522 160.249 130.652C160.063 130.956 159.831 131.219 159.551 131.443C159.486 131.494 159.42 131.543 159.351 131.59C158.851 131.923 158.271 132.09 157.61 132.09C157.499 132.09 157.392 132.085 157.288 132.075C157.12 132.058 156.962 132.028 156.813 131.984C156.673 131.943 156.54 131.89 156.416 131.824C156.253 131.737 156.104 131.629 155.971 131.5C155.741 131.274 155.577 131.001 155.479 130.681C155.466 130.637 155.454 130.593 155.443 130.547C155.426 130.476 155.412 130.402 155.401 130.327C155.381 130.188 155.37 130.043 155.37 129.89C155.37 129.683 155.391 129.47 155.431 129.25ZM163.774 132.09C163.314 132.09 162.908 131.997 162.555 131.81C162.208 131.617 161.938 131.35 161.744 131.01C161.551 130.664 161.454 130.263 161.454 129.81C161.454 129.514 161.486 129.229 161.552 128.957C161.624 128.66 161.735 128.378 161.885 128.11C161.931 128.026 161.979 127.944 162.031 127.866L162.074 127.802C162.111 127.749 162.149 127.697 162.189 127.647C162.432 127.34 162.724 127.084 163.064 126.88C163.447 126.653 163.863 126.512 164.311 126.457C164.455 126.439 164.604 126.43 164.755 126.43C165.215 126.43 165.621 126.527 165.975 126.72C166.335 126.907 166.611 127.173 166.805 127.52L166.831 127.566L166.86 127.622C166.886 127.671 166.909 127.722 166.931 127.774C166.955 127.833 166.977 127.895 166.996 127.957L167.028 128.068C167.041 128.121 167.053 128.175 167.062 128.229L167.076 128.312C167.082 128.349 167.086 128.387 167.09 128.426C167.1 128.521 167.104 128.619 167.104 128.72C167.104 129.34 166.958 129.907 166.664 130.42C166.597 130.539 166.522 130.652 166.443 130.76C166.344 130.895 166.235 131.02 166.118 131.136C165.925 131.329 165.707 131.497 165.465 131.64C165.36 131.702 165.253 131.758 165.144 131.807C164.992 131.875 164.837 131.93 164.677 131.974C164.391 132.051 164.09 132.09 163.774 132.09ZM163.885 131.32C163.995 131.32 164.103 131.312 164.208 131.297C164.514 131.252 164.797 131.144 165.055 130.97C165.401 130.73 165.671 130.417 165.864 130.03C165.955 129.852 166.024 129.668 166.074 129.48C166.134 129.251 166.164 129.015 166.164 128.77C166.164 128.544 166.135 128.342 166.076 128.164C166.004 127.942 165.887 127.757 165.725 127.61C165.432 127.336 165.064 127.2 164.624 127.2C164.191 127.2 163.805 127.32 163.465 127.56C163.381 127.617 163.302 127.679 163.228 127.746C163.146 127.819 163.071 127.898 163.001 127.983C162.936 128.062 162.875 128.146 162.82 128.234C162.798 128.27 162.776 128.306 162.756 128.343C162.728 128.394 162.7 128.446 162.675 128.5C162.488 128.894 162.395 129.317 162.395 129.77C162.395 130.263 162.534 130.646 162.814 130.92C163.095 131.187 163.451 131.32 163.885 131.32ZM169.981 124.6L168.671 132H167.761L169.071 124.6H169.981ZM172.442 124.6L171.132 132H170.222L171.532 124.6H172.442ZM172.823 129.24C172.923 128.68 173.123 128.19 173.423 127.77C173.729 127.343 174.1 127.013 174.533 126.78C174.973 126.547 175.439 126.43 175.933 126.43C176.413 126.43 176.81 126.533 177.123 126.74C177.264 126.833 177.386 126.938 177.488 127.052C177.612 127.192 177.707 127.348 177.773 127.52L177.953 126.52H178.873L177.903 132H176.983L177.173 130.98C176.933 131.3 176.616 131.567 176.223 131.78C175.83 131.987 175.396 132.09 174.923 132.09C174.496 132.09 174.12 132 173.793 131.82C173.752 131.796 173.713 131.772 173.674 131.747C173.634 131.719 173.594 131.691 173.556 131.661L173.523 131.635C173.323 131.471 173.16 131.27 173.033 131.03C172.853 130.69 172.763 130.297 172.763 129.85C172.763 129.765 172.766 129.68 172.773 129.593C172.783 129.477 172.8 129.359 172.823 129.24ZM177.473 129.25C177.5 129.11 177.513 128.96 177.513 128.8C177.513 128.313 177.366 127.93 177.073 127.65C176.786 127.363 176.419 127.22 175.973 127.22C175.8 127.22 175.63 127.241 175.464 127.282C175.304 127.322 175.146 127.381 174.993 127.46L174.932 127.493C174.897 127.513 174.862 127.534 174.828 127.556C174.752 127.605 174.679 127.659 174.609 127.718C174.46 127.843 174.325 127.99 174.203 128.16C173.983 128.467 173.836 128.827 173.763 129.24C173.756 129.275 173.75 129.312 173.745 129.349C173.73 129.458 173.723 129.576 173.723 129.7C173.723 130.193 173.866 130.583 174.153 130.87C174.439 131.15 174.806 131.29 175.253 131.29C175.593 131.29 175.916 131.21 176.223 131.05C176.308 131.004 176.39 130.954 176.469 130.898C176.551 130.839 176.629 130.775 176.704 130.705C176.819 130.597 176.926 130.475 177.023 130.34C177.1 130.233 177.168 130.121 177.228 130.003L177.271 129.91L177.313 129.814C177.33 129.771 177.346 129.729 177.361 129.685L177.395 129.581C177.426 129.475 177.453 129.364 177.473 129.25ZM181.141 127.54C181.195 127.467 181.254 127.398 181.316 127.331C181.379 127.263 181.447 127.198 181.518 127.136C181.69 126.986 181.884 126.854 182.101 126.74C182.291 126.64 182.488 126.564 182.694 126.513C182.914 126.458 183.143 126.43 183.381 126.43C184.034 126.43 184.557 126.626 184.951 127.02C185.351 127.414 185.551 127.947 185.551 128.62C185.551 128.813 185.531 129.02 185.491 129.24C185.391 129.793 185.188 130.287 184.881 130.72C184.581 131.153 184.21 131.49 183.771 131.73C183.594 131.828 183.412 131.906 183.226 131.964C182.957 132.048 182.679 132.09 182.391 132.09C181.917 132.09 181.521 131.987 181.201 131.78C180.881 131.573 180.657 131.31 180.531 130.99L180.351 132H179.44L180.75 124.6H181.661L181.141 127.54ZM184.601 128.78C184.601 128.293 184.458 127.914 184.171 127.64C183.884 127.36 183.514 127.22 183.061 127.22C182.728 127.22 182.404 127.303 182.091 127.47C181.919 127.558 181.76 127.668 181.615 127.802C181.495 127.913 181.383 128.039 181.281 128.18C181.223 128.26 181.171 128.343 181.124 128.43C181.086 128.499 181.052 128.57 181.021 128.643C180.94 128.831 180.88 129.033 180.841 129.25C180.833 129.292 180.826 129.335 180.82 129.379C180.807 129.483 180.801 129.593 180.801 129.71C180.801 130.197 180.944 130.583 181.23 130.87C181.524 131.15 181.894 131.29 182.341 131.29C182.681 131.29 183.004 131.21 183.311 131.05C183.624 130.883 183.891 130.646 184.111 130.34C184.14 130.3 184.167 130.26 184.194 130.218C184.232 130.158 184.267 130.096 184.3 130.032L184.354 129.923C184.379 129.867 184.403 129.809 184.425 129.749C184.458 129.659 184.487 129.565 184.512 129.468C184.531 129.394 184.547 129.318 184.561 129.24C184.587 129.1 184.601 128.947 184.601 128.78ZM188.608 132.09C188.148 132.09 187.742 131.997 187.389 131.81C187.042 131.617 186.772 131.35 186.579 131.01C186.385 130.664 186.289 130.263 186.289 129.81C186.289 129.532 186.317 129.266 186.375 129.009C186.391 128.935 186.41 128.861 186.432 128.789C186.461 128.688 186.496 128.59 186.535 128.493C186.588 128.362 186.649 128.234 186.718 128.11C187.005 127.59 187.398 127.18 187.898 126.88C188.405 126.58 188.968 126.43 189.588 126.43C190.048 126.43 190.455 126.527 190.809 126.72C191.021 126.83 191.204 126.967 191.358 127.133C191.465 127.249 191.559 127.377 191.639 127.52C191.838 127.86 191.938 128.26 191.938 128.72C191.938 129.34 191.792 129.907 191.499 130.42C191.205 130.933 190.805 131.34 190.298 131.64C190.21 131.692 190.121 131.74 190.029 131.783C189.894 131.847 189.754 131.9 189.611 131.944C189.295 132.041 188.961 132.09 188.608 132.09ZM188.718 131.32C189.152 131.32 189.542 131.203 189.889 130.97C190.235 130.73 190.505 130.417 190.698 130.03C190.898 129.637 190.999 129.217 190.999 128.77C190.999 128.263 190.852 127.876 190.559 127.61C190.265 127.336 189.898 127.2 189.458 127.2C189.025 127.2 188.639 127.32 188.298 127.56C187.958 127.793 187.695 128.106 187.508 128.5C187.322 128.894 187.229 129.317 187.229 129.77C187.229 130.263 187.369 130.646 187.648 130.92C187.929 131.187 188.285 131.32 188.718 131.32ZM194.295 127.56C194.515 127.2 194.792 126.92 195.125 126.72C195.458 126.52 195.838 126.42 196.265 126.42L196.095 127.36H195.855C195.593 127.36 195.354 127.399 195.139 127.477C194.965 127.54 194.808 127.627 194.665 127.74C194.352 127.993 194.142 128.42 194.035 129.02L193.505 132H192.595L193.565 126.52H194.475L194.295 127.56ZM196.465 129.24C196.565 128.68 196.766 128.19 197.065 127.77C197.249 127.515 197.455 127.294 197.683 127.109C197.837 126.983 198.001 126.874 198.175 126.78C198.441 126.639 198.718 126.54 199.003 126.484C199.19 126.448 199.38 126.43 199.575 126.43C200.056 126.43 200.452 126.533 200.766 126.74C200.813 126.771 200.858 126.804 200.901 126.838C200.951 126.876 200.997 126.917 201.041 126.959C201.078 126.995 201.114 127.033 201.147 127.071C201.181 127.11 201.212 127.15 201.241 127.192C201.273 127.238 201.303 127.285 201.33 127.334C201.362 127.394 201.391 127.456 201.416 127.52L201.595 126.52H202.516L201.545 132H200.625L200.815 130.98C200.575 131.3 200.259 131.567 199.865 131.78C199.472 131.987 199.039 132.09 198.565 132.09C198.139 132.09 197.762 132 197.436 131.82C197.109 131.633 196.855 131.37 196.675 131.03C196.496 130.69 196.405 130.297 196.405 129.85C196.405 129.798 196.407 129.747 196.41 129.694C196.412 129.644 196.416 129.593 196.421 129.542L196.44 129.387L196.455 129.296L196.465 129.24ZM201.115 129.25C201.142 129.11 201.155 128.96 201.155 128.8C201.155 128.313 201.009 127.93 200.715 127.65C200.429 127.363 200.062 127.22 199.615 127.22C199.275 127.22 198.949 127.3 198.635 127.46C198.534 127.513 198.437 127.574 198.344 127.644C198.159 127.783 197.992 127.955 197.845 128.16C197.625 128.467 197.479 128.827 197.405 129.24C197.392 129.312 197.381 129.388 197.375 129.467C197.369 129.542 197.365 129.619 197.365 129.7C197.365 130.193 197.509 130.583 197.795 130.87C198.082 131.15 198.449 131.29 198.896 131.29C199.075 131.29 199.25 131.268 199.419 131.223C199.572 131.183 199.72 131.125 199.865 131.05C200.179 130.883 200.445 130.646 200.666 130.34C200.892 130.027 201.042 129.664 201.115 129.25ZM204.463 130.5C204.443 130.6 204.433 130.687 204.433 130.76C204.433 130.927 204.483 131.047 204.583 131.12C204.69 131.193 204.86 131.23 205.093 131.23H205.763L205.623 132H204.803C204.37 132 204.043 131.917 203.823 131.75C203.61 131.583 203.503 131.31 203.503 130.93C203.503 130.783 203.517 130.64 203.543 130.5L204.113 127.27H203.413L203.543 126.52H204.253L204.493 125.14H205.413L205.173 126.52H206.593L206.463 127.27H205.033L204.463 130.5ZM208.316 125.63C208.169 125.63 208.046 125.583 207.946 125.49C207.853 125.39 207.806 125.267 207.806 125.12C207.806 124.92 207.879 124.75 208.026 124.61C208.118 124.518 208.22 124.454 208.332 124.42L208.381 124.407L208.442 124.396L208.473 124.393L208.536 124.39C208.689 124.39 208.812 124.437 208.906 124.53C208.999 124.624 209.046 124.747 209.046 124.9C209.046 125.1 208.973 125.273 208.826 125.42C208.734 125.508 208.633 125.568 208.523 125.601C208.457 125.62 208.388 125.63 208.316 125.63ZM208.606 126.52L207.636 132H206.726L207.696 126.52H208.606ZM211.597 132.09C211.137 132.09 210.73 131.997 210.377 131.81C210.303 131.769 210.233 131.725 210.166 131.677C210.059 131.6 209.961 131.515 209.872 131.421C209.755 131.299 209.653 131.162 209.567 131.01C209.467 130.832 209.394 130.639 209.345 130.433C209.3 130.238 209.277 130.03 209.277 129.81C209.277 129.19 209.42 128.624 209.707 128.11C209.994 127.59 210.387 127.18 210.887 126.88C211.394 126.58 211.957 126.43 212.577 126.43C212.88 126.43 213.161 126.472 213.418 126.557C213.55 126.6 213.677 126.654 213.797 126.72C214.157 126.907 214.434 127.173 214.627 127.52C214.827 127.86 214.927 128.26 214.927 128.72C214.927 129.34 214.78 129.907 214.487 130.42C214.193 130.933 213.793 131.34 213.287 131.64C213.185 131.7 213.081 131.754 212.975 131.802C212.827 131.869 212.675 131.924 212.519 131.968C212.227 132.049 211.919 132.09 211.597 132.09ZM211.707 131.32C212.14 131.32 212.53 131.203 212.877 130.97C213.224 130.73 213.494 130.417 213.687 130.03C213.887 129.637 213.987 129.217 213.987 128.77C213.987 128.263 213.84 127.876 213.547 127.61C213.253 127.336 212.887 127.2 212.447 127.2C212.013 127.2 211.627 127.32 211.287 127.56C211.182 127.632 211.085 127.711 210.995 127.798C210.88 127.909 210.777 128.032 210.686 128.167C210.616 128.271 210.553 128.382 210.497 128.5C210.397 128.709 210.324 128.928 210.278 129.154C210.237 129.353 210.217 129.558 210.217 129.77C210.217 129.99 210.245 130.188 210.3 130.364C210.369 130.583 210.481 130.768 210.637 130.92C210.917 131.187 211.273 131.32 211.707 131.32ZM219.243 126.42C219.81 126.42 220.263 126.573 220.603 126.88C220.943 127.18 221.113 127.62 221.113 128.2C221.113 128.414 221.097 128.604 221.063 128.77L220.493 132H219.593L220.143 128.9C220.17 128.76 220.183 128.613 220.183 128.46C220.183 128.331 220.172 128.212 220.149 128.103C220.139 128.052 220.125 128.002 220.11 127.956C220.072 127.843 220.021 127.744 219.956 127.655C219.922 127.61 219.884 127.568 219.843 127.53C219.623 127.317 219.313 127.21 218.913 127.21C218.433 127.21 218.023 127.36 217.683 127.66C217.482 127.841 217.324 128.071 217.208 128.352C217.131 128.537 217.073 128.743 217.033 128.97L216.493 132H215.583L216.553 126.52H217.463L217.323 127.31C217.55 127.023 217.833 126.803 218.173 126.65C218.272 126.605 218.372 126.567 218.474 126.536C218.548 126.513 218.623 126.493 218.698 126.477L218.774 126.462C218.928 126.434 219.084 126.42 219.243 126.42ZM226.658 127.53C226.898 127.217 227.215 126.957 227.608 126.75C228.001 126.537 228.432 126.43 228.898 126.43C229.325 126.43 229.702 126.52 230.028 126.7C230.059 126.716 230.089 126.732 230.118 126.75L230.209 126.807C230.267 126.845 230.321 126.887 230.374 126.931C230.431 126.979 230.484 127.031 230.535 127.086C230.636 127.197 230.724 127.321 230.798 127.46C230.978 127.787 231.068 128.173 231.068 128.62C231.068 128.813 231.048 129.02 231.008 129.24C230.969 129.459 230.913 129.669 230.841 129.87C230.778 130.043 230.704 130.21 230.617 130.37C230.551 130.49 230.478 130.607 230.398 130.72C230.098 131.153 229.728 131.49 229.288 131.73C228.855 131.97 228.395 132.09 227.908 132.09C227.441 132.09 227.048 131.987 226.728 131.78C226.415 131.567 226.188 131.303 226.048 130.99L225.418 134.6H224.508L225.928 126.52H226.838L226.658 127.53ZM230.118 128.78C230.118 128.293 229.975 127.914 229.688 127.64C229.401 127.36 229.032 127.22 228.578 127.22C228.245 127.22 227.921 127.303 227.608 127.47C227.295 127.63 227.025 127.867 226.798 128.18C226.758 128.236 226.721 128.294 226.685 128.353C226.632 128.442 226.584 128.536 226.542 128.632C226.459 128.824 226.398 129.029 226.358 129.25C226.332 129.39 226.318 129.543 226.318 129.71C226.318 130.197 226.461 130.583 226.748 130.87C227.042 131.15 227.412 131.29 227.858 131.29C228.198 131.29 228.521 131.21 228.828 131.05C229.142 130.883 229.408 130.646 229.628 130.34C229.855 130.027 230.005 129.66 230.078 129.24C230.105 129.1 230.118 128.947 230.118 128.78ZM233.416 127.56C233.636 127.2 233.913 126.92 234.246 126.72C234.58 126.52 234.959 126.42 235.386 126.42L235.216 127.36H234.976C234.503 127.36 234.106 127.487 233.786 127.74C233.632 127.864 233.503 128.03 233.399 128.238C233.292 128.454 233.21 128.714 233.156 129.02L232.626 132H231.716L232.686 126.52H233.596L233.416 127.56ZM237.856 132.09C237.583 132.09 237.329 132.057 237.094 131.991C236.933 131.946 236.78 131.886 236.637 131.81C236.29 131.617 236.02 131.35 235.827 131.01C235.633 130.664 235.537 130.263 235.537 129.81C235.537 129.473 235.579 129.151 235.664 128.846C235.734 128.589 235.835 128.344 235.966 128.11C236.253 127.59 236.646 127.18 237.146 126.88C237.502 126.669 237.886 126.533 238.297 126.47L238.399 126.456C238.451 126.45 238.503 126.444 238.556 126.44C238.648 126.434 238.741 126.43 238.836 126.43C238.941 126.43 239.044 126.435 239.144 126.445C239.346 126.466 239.537 126.507 239.716 126.57C239.835 126.611 239.948 126.661 240.057 126.72C240.417 126.907 240.693 127.173 240.887 127.52C241.086 127.86 241.187 128.26 241.187 128.72C241.187 128.912 241.173 129.098 241.145 129.279C241.125 129.403 241.1 129.525 241.067 129.645C241.041 129.745 241.009 129.843 240.973 129.939C240.952 129.995 240.929 130.05 240.905 130.104C240.877 130.169 240.846 130.234 240.813 130.297L240.747 130.42C240.453 130.933 240.053 131.34 239.546 131.64C239.04 131.94 238.477 132.09 237.856 132.09ZM237.966 131.32C238.4 131.32 238.79 131.203 239.137 130.97C239.483 130.73 239.753 130.417 239.946 130.03C240.146 129.637 240.247 129.217 240.247 128.77C240.247 128.263 240.1 127.876 239.807 127.61C239.777 127.582 239.747 127.556 239.715 127.531C239.672 127.496 239.627 127.464 239.581 127.435C239.513 127.393 239.442 127.356 239.368 127.325C239.28 127.288 239.187 127.259 239.09 127.239C238.969 127.213 238.841 127.2 238.707 127.2C238.475 127.2 238.257 127.234 238.053 127.303C237.874 127.362 237.705 127.448 237.546 127.56C237.207 127.793 236.943 128.106 236.756 128.5C236.634 128.757 236.552 129.027 236.51 129.31C236.488 129.459 236.477 129.613 236.477 129.77C236.477 130.263 236.617 130.646 236.896 130.92L236.955 130.972L236.988 131L237.036 131.036L237.098 131.08C237.172 131.129 237.25 131.17 237.333 131.204C237.522 131.281 237.733 131.32 237.966 131.32ZM243.463 125.63C243.31 125.63 243.183 125.583 243.083 125.49C242.99 125.396 242.943 125.273 242.943 125.12C242.943 125.089 242.944 125.059 242.948 125.029C242.952 124.998 242.958 124.967 242.965 124.938C242.975 124.9 242.988 124.864 243.004 124.829C243.041 124.749 243.094 124.676 243.163 124.61C243.31 124.463 243.479 124.39 243.673 124.39C243.826 124.39 243.95 124.437 244.043 124.53C244.136 124.624 244.183 124.747 244.183 124.9C244.183 125.1 244.11 125.273 243.963 125.42C243.816 125.56 243.65 125.63 243.463 125.63ZM242.573 133.19C242.493 133.677 242.31 134.033 242.023 134.26C241.736 134.487 241.356 134.6 240.883 134.6H240.343L240.483 133.83H240.863C241.116 133.83 241.303 133.78 241.423 133.68C241.543 133.58 241.623 133.41 241.663 133.17L242.843 126.52H243.753L242.573 133.19ZM247.673 126.43C248.133 126.43 248.53 126.52 248.863 126.7C249.204 126.874 249.46 127.12 249.633 127.44C249.72 127.591 249.786 127.753 249.831 127.927C249.848 127.993 249.863 128.062 249.874 128.131C249.882 128.184 249.889 128.237 249.894 128.291L249.9 128.397C249.902 128.438 249.903 128.479 249.903 128.52C249.903 128.66 249.887 128.83 249.854 129.03C249.827 129.203 249.784 129.383 249.724 129.57H245.343C245.33 129.703 245.323 129.8 245.323 129.86C245.323 130.32 245.46 130.68 245.733 130.94C246.014 131.193 246.377 131.32 246.823 131.32C247.217 131.32 247.56 131.23 247.854 131.05C248.153 130.863 248.38 130.617 248.534 130.31H249.514C249.273 130.836 248.903 131.267 248.403 131.6C248.181 131.748 247.941 131.862 247.686 131.943C247.555 131.984 247.42 132.017 247.281 132.041C247.09 132.073 246.891 132.09 246.684 132.09C245.997 132.09 245.443 131.894 245.023 131.5C244.838 131.32 244.694 131.112 244.592 130.875C244.536 130.745 244.492 130.606 244.461 130.458C244.422 130.275 244.403 130.08 244.403 129.87C244.403 129.677 244.423 129.47 244.463 129.25C244.563 128.683 244.767 128.187 245.073 127.76C245.38 127.333 245.757 127.007 246.204 126.78C246.313 126.724 246.425 126.674 246.539 126.632C246.646 126.592 246.754 126.558 246.864 126.529C247.124 126.463 247.394 126.43 247.673 126.43ZM248.934 128.91C248.954 128.777 248.963 128.653 248.963 128.54C248.963 128.113 248.827 127.783 248.554 127.55C248.392 127.409 248.2 127.31 247.977 127.254C247.883 127.231 247.783 127.215 247.678 127.207L247.623 127.203C247.584 127.201 247.544 127.2 247.503 127.2C247.037 127.2 246.613 127.354 246.233 127.66C245.854 127.96 245.597 128.376 245.463 128.91H248.934ZM250.665 129.25C250.765 128.683 250.965 128.19 251.265 127.77C251.571 127.343 251.948 127.013 252.395 126.78C252.664 126.64 252.946 126.542 253.242 126.485C253.438 126.449 253.638 126.43 253.845 126.43C254.518 126.43 255.042 126.593 255.415 126.92C255.794 127.247 256.005 127.7 256.044 128.28H255.064C255.031 127.947 254.895 127.683 254.655 127.49C254.421 127.297 254.104 127.2 253.705 127.2C253.185 127.2 252.731 127.38 252.345 127.74C251.965 128.093 251.718 128.597 251.604 129.25C251.571 129.47 251.555 129.653 251.555 129.8C251.555 130.287 251.685 130.664 251.945 130.93C252.205 131.19 252.551 131.32 252.985 131.32C253.124 131.32 253.257 131.309 253.383 131.286C253.483 131.268 253.579 131.243 253.67 131.211C253.796 131.167 253.914 131.11 254.024 131.04C254.325 130.854 254.555 130.586 254.715 130.24H255.695C255.455 130.8 255.084 131.25 254.584 131.59C254.338 131.754 254.072 131.878 253.787 131.961C253.715 131.982 253.642 132 253.568 132.016C253.494 132.032 253.418 132.046 253.341 132.057C253.181 132.079 253.016 132.09 252.845 132.09C252.158 132.09 251.611 131.894 251.205 131.5C251.078 131.375 250.972 131.237 250.885 131.084C250.698 130.753 250.604 130.355 250.604 129.89C250.604 129.786 250.61 129.681 250.62 129.573C250.63 129.467 250.645 129.359 250.665 129.25ZM257.979 130.5C257.959 130.6 257.949 130.687 257.949 130.76C257.949 130.927 257.999 131.047 258.099 131.12C258.206 131.193 258.375 131.23 258.609 131.23H259.279L259.139 132H258.319C257.886 132 257.559 131.917 257.339 131.75C257.125 131.583 257.019 131.31 257.019 130.93C257.019 130.783 257.032 130.64 257.059 130.5L257.629 127.27H256.929L257.059 126.52H257.769L258.009 125.14H258.929L258.689 126.52H260.109L259.979 127.27H258.549L257.979 130.5ZM152.638 90.7998V113H147.508V90.7998H152.638ZM128.71 91.9399V96.0498H120.13V100.49H126.55V104.48H120.13V113H115V91.9399H128.71ZM154.796 100.07C154.155 101.37 153.836 102.88 153.836 104.6C153.836 106.32 154.155 107.84 154.796 109.16C155.455 110.46 156.346 111.47 157.466 112.19C158.586 112.89 159.836 113.24 161.216 113.24C162.396 113.24 163.426 113 164.306 112.52C164.731 112.293 165.109 112.03 165.441 111.731C165.811 111.399 166.122 111.021 166.375 110.6V113H171.505V90.7998H166.375V98.5698C165.855 97.79 165.136 97.1699 164.216 96.71C163.61 96.4004 162.959 96.1953 162.264 96.0938C162.058 96.064 161.849 96.043 161.635 96.0312C161.552 96.0269 161.469 96.0234 161.385 96.0215L161.216 96.02C159.836 96.02 158.586 96.3701 157.466 97.0698C156.346 97.77 155.455 98.77 154.796 100.07ZM165.296 101.6C166.016 102.34 166.375 103.35 166.375 104.63C166.375 105.91 166.016 106.92 165.296 107.66C164.596 108.4 163.735 108.77 162.716 108.77C161.695 108.77 160.825 108.4 160.105 107.66C159.69 107.21 159.398 106.668 159.23 106.036C159.182 105.855 159.144 105.666 159.115 105.47C159.09 105.295 159.072 105.115 159.063 104.929L159.059 104.777C159.057 104.719 159.056 104.66 159.056 104.6C159.056 103.32 159.405 102.32 160.105 101.6C160.825 100.86 161.695 100.49 162.716 100.49C163.342 100.49 163.907 100.629 164.413 100.908C164.731 101.083 165.025 101.314 165.296 101.6ZM174.49 100.01V98.1201H177.79V95.6602C177.79 92.8101 179.17 90.9502 182.59 90.9502H185.17V92.8398H182.56C180.58 92.8398 180.01 93.7402 180.01 95.6899V98.1201H184.33V100.01H180.01V111.11H184.33V113H174.49V111.11H177.79V100.01H174.49ZM183.296 105.56C183.296 101.3 186.326 97.8198 191.096 97.8198C195.836 97.8198 198.866 101.3 198.866 105.56C198.866 109.82 195.836 113.3 191.096 113.3C186.326 113.3 183.296 109.82 183.296 105.56ZM185.516 105.56C185.516 108.71 187.436 111.41 191.096 111.41C194.726 111.41 196.646 108.71 196.646 105.56C196.646 102.41 194.726 99.71 191.096 99.71C187.436 99.71 185.516 102.41 185.516 105.56ZM197.187 113V111.11H201.357V92.8398H198.327V90.9502H202.167C203.067 90.9502 203.577 91.3999 203.577 92.27V111.11H207.107H207.747H211.217V100.01H208.247V98.1201H211.727C212.141 98.1201 212.471 98.1992 212.717 98.3696C213.077 98.6187 213.257 99.063 213.257 99.7402V111.11H217.427V113H207.747H207.107H197.187ZM209.987 93.4399C209.987 92.3901 210.857 91.52 211.937 91.52C213.017 91.52 213.917 92.3901 213.917 93.4399C213.917 94.52 213.017 95.3901 211.937 95.3901C210.857 95.3901 209.987 94.52 209.987 93.4399ZM215.642 105.56C215.642 101.3 218.672 97.8198 223.442 97.8198C228.182 97.8198 231.212 101.3 231.212 105.56C231.212 109.82 228.182 113.3 223.442 113.3C218.672 113.3 215.642 109.82 215.642 105.56ZM217.862 105.56C217.862 108.71 219.782 111.41 223.442 111.41C227.072 111.41 228.992 108.71 228.992 105.56C228.992 102.41 227.072 99.71 223.442 99.71C219.782 99.71 217.862 102.41 217.862 105.56ZM140.016 95.7378L140.002 95.7163C139.902 95.5708 139.739 95.4951 139.574 95.5C139.443 95.4976 139.317 95.5469 139.217 95.647L139.207 95.6567C135.832 97.981 132.639 100.046 130.324 101.514C129.542 102.01 129.033 102.768 128.796 103.547C128.674 103.948 128.621 104.368 128.646 104.772C128.669 105.147 128.76 105.51 128.926 105.832C128.995 105.966 129.117 106.055 129.253 106.088C129.29 106.097 129.328 106.102 129.367 106.102C129.445 106.103 129.524 106.084 129.599 106.046C129.845 105.919 129.94 105.618 129.813 105.373C129.615 104.987 129.575 104.423 129.753 103.838C129.852 103.513 130.014 103.197 130.235 102.92C130.368 102.754 130.522 102.603 130.696 102.471C130.749 102.432 130.804 102.394 130.86 102.358C131.487 101.96 132.179 101.519 132.921 101.04C133.706 100.534 134.548 99.9858 135.43 99.4048C136.724 98.5522 138.104 97.6274 139.521 96.6548L145.36 102.476C142.132 104.689 139.097 106.65 136.874 108.061C135.566 108.89 134.929 110.423 135.188 111.674C135.32 112.317 135.696 112.896 136.344 113.224C136.981 113.546 137.812 113.592 138.8 113.331C140.927 112.768 142.312 112.24 143.468 111.8L143.865 111.649L144.239 111.51C144.391 111.454 144.54 111.4 144.688 111.348C144.804 111.334 144.914 111.277 144.996 111.179C145.038 111.133 145.072 111.08 145.095 111.022C145.111 110.978 145.122 110.932 145.127 110.884C145.133 110.817 145.125 110.747 145.102 110.678C145.07 110.586 145.02 110.514 144.95 110.457L141.301 107.083C141.183 106.975 141.029 106.936 140.887 106.963C140.784 106.983 140.687 107.039 140.612 107.127C140.526 107.229 140.486 107.358 140.491 107.484C140.497 107.619 140.553 107.752 140.657 107.849L143.686 110.648C143.481 110.724 143.275 110.802 143.063 110.883C142.713 111.017 142.347 111.156 141.947 111.301C141.606 111.425 141.242 111.553 140.843 111.685C140.187 111.901 139.437 112.127 138.544 112.364C137.706 112.585 137.146 112.509 136.796 112.332C136.456 112.159 136.247 111.859 136.167 111.472C136 110.664 136.422 109.532 137.41 108.905C139.752 107.419 142.997 105.32 146.424 102.958L146.919 102.617L146.492 102.193L140.016 95.7378Z" fill="url(#paint0_linear_1194_624)"/>
<defs>
<linearGradient id="paint0_linear_1194_624" x1="214.116" y1="679.62" x2="596.127" y2="366.235" gradientUnits="userSpaceOnUse">
<stop stop-color="#BF82FF"/>
<stop offset="0.288364" stop-color="#8372FC"/>
<stop offset="0.746608" stop-color="#6A75FB"/>
<stop offset="0.897516" stop-color="#B9B3D2"/>
<stop offset="0.974095" stop-color="#8BE2D7"/>
</linearGradient>
</defs>
</svg>
