<svg width="145" height="41" viewBox="0 0 145 41" fill="none" xmlns="http://www.w3.org/2000/svg">
<path fill-rule="evenodd" clip-rule="evenodd" d="M20.5 0C9.17816 0 0 9.17816 0 20.5C0 31.8218 9.17816 41 20.5 41H124.5C135.822 41 145 31.8218 145 20.5C145 9.17816 135.822 0 124.5 0H20.5ZM38.14 24.36H33.66V12.96H30.24V27H38.14V24.36ZM50.2313 22.24C50.2713 21.8933 50.2912 21.56 50.2912 21.24C50.2912 20.12 50.0513 19.14 49.5713 18.3C49.1046 17.46 48.4513 16.8133 47.6113 16.36C46.7713 15.9067 45.8112 15.68 44.7313 15.68C43.6246 15.68 42.6446 15.9133 41.7912 16.38C40.9379 16.8467 40.2713 17.5133 39.7912 18.38C39.3246 19.2467 39.0913 20.26 39.0913 21.42C39.0913 22.58 39.3312 23.5933 39.8112 24.46C40.2912 25.3267 40.9579 25.9933 41.8112 26.46C42.6646 26.9267 43.6379 27.16 44.7313 27.16C45.6379 27.16 46.4579 26.9933 47.1912 26.66C47.9246 26.3267 48.5312 25.8667 49.0112 25.28C49.5046 24.6933 49.8446 24.0333 50.0312 23.3H46.3913C46.0579 24.02 45.4646 24.38 44.6113 24.38C44.0379 24.38 43.5513 24.2 43.1512 23.84C42.7646 23.4667 42.5446 22.9333 42.4912 22.24H50.2313ZM46.1912 18.94C46.5913 19.2867 46.7913 19.7533 46.7913 20.34H42.5112C42.6046 19.7267 42.8446 19.2533 43.2313 18.92C43.6312 18.5867 44.1179 18.42 44.6912 18.42C45.2913 18.42 45.7913 18.5933 46.1912 18.94ZM58.3155 27V24.1H57.0955C56.7221 24.1 56.4555 24.0267 56.2955 23.88C56.1355 23.7333 56.0555 23.4933 56.0555 23.16V18.68H58.2955V15.84H56.0555V13.12H52.6355V15.84H51.2755V18.68H52.6355V23.12C52.6355 24.4933 52.9821 25.4867 53.6755 26.1C54.3688 26.7 55.3355 27 56.5755 27H58.3155ZM64.5005 12.96H61.0005L59.9605 18.32H62.2605L64.5005 12.96ZM68.4495 26.66C69.2095 26.9933 70.0762 27.16 71.0495 27.16C71.9562 27.16 72.7495 27.0133 73.4295 26.72C74.1229 26.4267 74.6495 26.0267 75.0095 25.52C75.3829 25 75.5695 24.4133 75.5695 23.76C75.5562 22.9867 75.3495 22.3733 74.9495 21.92C74.5629 21.4533 74.1095 21.12 73.5895 20.92C73.0695 20.7067 72.3962 20.4933 71.5695 20.28C70.8495 20.12 70.3162 19.96 69.9695 19.8C69.6362 19.64 69.4695 19.4 69.4695 19.08C69.4695 18.8133 69.5762 18.6067 69.7895 18.46C70.0029 18.3 70.3095 18.22 70.7095 18.22C71.1762 18.22 71.5495 18.3333 71.8295 18.56C72.1229 18.7867 72.2962 19.0933 72.3495 19.48H75.5095C75.3895 18.3333 74.9229 17.4133 74.1095 16.72C73.3095 16.0267 72.2095 15.68 70.8095 15.68C69.8629 15.68 69.0429 15.8333 68.3495 16.14C67.6695 16.4467 67.1495 16.8667 66.7895 17.4C66.4429 17.92 66.2695 18.5 66.2695 19.14C66.2695 19.9 66.4629 20.5067 66.8495 20.96C67.2362 21.4 67.6962 21.7267 68.2295 21.94C68.7629 22.14 69.4295 22.3333 70.2295 22.52C70.9762 22.7067 71.5162 22.88 71.8495 23.04C72.1829 23.1867 72.3495 23.42 72.3495 23.74C72.3495 24.0067 72.2295 24.2267 71.9895 24.4C71.7629 24.56 71.4362 24.64 71.0095 24.64C70.5429 24.64 70.1495 24.52 69.8295 24.28C69.5095 24.04 69.3295 23.7267 69.2895 23.34H65.9095C65.9629 24.06 66.2095 24.7133 66.6495 25.3C67.0895 25.8733 67.6895 26.3267 68.4495 26.66ZM88.1202 27V24.1H86.9002C86.5268 24.1 86.2602 24.0267 86.1002 23.88C85.9402 23.7333 85.8602 23.4933 85.8602 23.16V18.68H88.1002V15.84H85.8602V13.12H82.4402V15.84H81.0802V18.68H82.4402V23.12C82.4402 24.4933 82.7868 25.4867 83.4802 26.1C84.1735 26.7 85.1402 27 86.3802 27H88.1202ZM89.9852 18.38C89.5585 19.2467 89.3452 20.2533 89.3452 21.4C89.3452 22.5467 89.5585 23.56 89.9852 24.44C90.4252 25.3067 91.0185 25.98 91.7652 26.46C92.5118 26.9267 93.3385 27.16 94.2452 27.16C95.0318 27.16 95.7185 27 96.3052 26.68C96.9052 26.36 97.3718 25.94 97.7052 25.42V27H101.125V15.84H97.7052V17.42C97.3852 16.9 96.9252 16.48 96.3252 16.16C95.7385 15.84 95.0518 15.68 94.2652 15.68C93.3452 15.68 92.5118 15.9133 91.7652 16.38C91.0185 16.8467 90.4252 17.5133 89.9852 18.38ZM96.9852 19.4C97.4652 19.8933 97.7052 20.5667 97.7052 21.42C97.7052 22.2733 97.4652 22.9467 96.9852 23.44C96.5185 23.9333 95.9452 24.18 95.2652 24.18C94.5852 24.18 94.0052 23.9333 93.5252 23.44C93.0585 22.9333 92.8252 22.2533 92.8252 21.4C92.8252 20.5467 93.0585 19.88 93.5252 19.4C94.0052 18.9067 94.5852 18.66 95.2652 18.66C95.9452 18.66 96.5185 18.9067 96.9852 19.4ZM107.019 27V12.2H103.599V27H107.019ZM112.918 22.32L116.318 27H120.558L115.878 21.44L120.518 15.84H116.298L112.918 20.38V12.2H109.498V27H112.918V22.32Z" fill="url(#paint0_linear_1046_538)"/>
<defs>
<linearGradient id="paint0_linear_1046_538" x1="0" y1="20.5" x2="145" y2="20.5" gradientUnits="userSpaceOnUse">
<stop stop-color="#7B8AFA"/>
<stop offset="1" stop-color="#8ADEDF"/>
</linearGradient>
</defs>
</svg>
