<svg width="36" height="36" viewBox="0 0 36 36" fill="none" xmlns="http://www.w3.org/2000/svg">
<g clip-path="url(#clip0_662_380)">
<path d="M35.9996 18.1103C35.9996 8.1068 27.9401 -0.00219727 17.9996 -0.00219727C8.05462 5.27347e-05 -0.00488281 8.1068 -0.00488281 18.1126C-0.00488281 27.1508 6.57862 34.6433 15.1826 36.0023V23.3461H10.6151V18.1126H15.1871V14.1188C15.1871 9.58055 17.8759 7.07405 21.9866 7.07405C23.9576 7.07405 26.0164 7.4273 26.0164 7.4273V11.8823H23.7461C21.5119 11.8823 20.8144 13.2796 20.8144 14.7128V18.1103H25.8049L25.0084 23.3438H20.8121V36.0001C29.4161 34.6411 35.9996 27.1486 35.9996 18.1103Z" fill="url(#paint0_linear_662_380)"/>
</g>
<defs>
<linearGradient id="paint0_linear_662_380" x1="17.9974" y1="-0.00219727" x2="17.9974" y2="36.0023" gradientUnits="userSpaceOnUse">
<stop stop-color="#7D84FC"/>
<stop offset="1" stop-color="#90DFA8"/>
</linearGradient>
<clipPath id="clip0_662_380">
<rect width="36" height="36" fill="white"/>
</clipPath>
</defs>
</svg>
