<svg width="370" height="174" viewBox="0 0 370 174" fill="none" xmlns="http://www.w3.org/2000/svg">
<path d="M40.8783 21.34C41.2116 21.9533 41.3783 22.6733 41.3783 23.5C41.3783 24.3267 41.2116 25.0533 40.8783 25.68C40.5449 26.2933 40.0916 26.7667 39.5183 27.1C38.9583 27.42 38.3383 27.58 37.6583 27.58C36.9783 27.58 36.3583 27.42 35.7983 27.1C35.2383 26.7667 34.7916 26.2933 34.4583 25.68C34.1249 25.0533 33.9583 24.32 33.9583 23.48C33.9583 22.6533 34.1249 21.9333 34.4583 21.32C34.7916 20.7067 35.2383 20.24 35.7983 19.92C36.3583 19.6 36.9783 19.44 37.6583 19.44C38.3383 19.44 38.9583 19.6067 39.5183 19.94C40.0916 20.26 40.5449 20.7267 40.8783 21.34Z" fill="url(#paint0_linear_778_669)"/>
<path d="M63.6403 156.58C64.2936 156.58 64.907 156.427 65.4803 156.12C66.0536 155.813 66.5136 155.353 66.8603 154.74C67.2203 154.127 67.4003 153.38 67.4003 152.5C67.4003 151.62 67.227 150.873 66.8803 150.26C66.5336 149.647 66.0803 149.193 65.5203 148.9C64.9603 148.593 64.3536 148.44 63.7003 148.44C63.0336 148.44 62.4203 148.593 61.8603 148.9C61.3136 149.193 60.8736 149.647 60.5403 150.26C60.207 150.873 60.0403 151.62 60.0403 152.5C60.0403 153.393 60.2003 154.147 60.5203 154.76C60.8536 155.373 61.2936 155.833 61.8403 156.14C62.387 156.433 62.987 156.58 63.6403 156.58Z" fill="url(#paint1_linear_778_669)"/>
<path d="M108.719 151.72C108.719 151.027 108.565 150.433 108.259 149.94C107.952 149.433 107.532 149.053 106.999 148.8C106.479 148.533 105.899 148.4 105.259 148.4C104.339 148.4 103.552 148.693 102.899 149.28C102.259 149.867 101.892 150.68 101.799 151.72H108.719Z" fill="url(#paint2_linear_778_669)"/>
<path d="M137.273 151.72C137.273 151.027 137.12 150.433 136.813 149.94C136.507 149.433 136.087 149.053 135.553 148.8C135.033 148.533 134.453 148.4 133.813 148.4C132.893 148.4 132.107 148.693 131.453 149.28C130.813 149.867 130.447 150.68 130.353 151.72H137.273Z" fill="url(#paint3_linear_778_669)"/>
<path d="M150.156 152.5C150.156 151.673 149.989 150.953 149.656 150.34C149.322 149.727 148.869 149.26 148.296 148.94C147.736 148.607 147.116 148.44 146.436 148.44C145.756 148.44 145.136 148.6 144.576 148.92C144.016 149.24 143.569 149.707 143.236 150.32C142.902 150.933 142.736 151.653 142.736 152.48C142.736 153.32 142.902 154.053 143.236 154.68C143.569 155.293 144.016 155.767 144.576 156.1C145.136 156.42 145.756 156.58 146.436 156.58C147.116 156.58 147.736 156.42 148.296 156.1C148.869 155.767 149.322 155.293 149.656 154.68C149.989 154.053 150.156 153.327 150.156 152.5Z" fill="url(#paint4_linear_778_669)"/>
<path fill-rule="evenodd" clip-rule="evenodd" d="M0 16C0 7.16345 7.16344 0 16 0H310C337.898 0 361.348 19.0396 368.067 44.8334C352.38 44.1781 327.028 44.3616 315.186 44.4473C312.633 44.4658 310.707 44.4797 309.643 44.4797C301.909 44.4797 294.795 46.2971 288.299 49.9317C281.88 53.4891 276.776 58.4771 272.987 64.8958C269.197 71.3144 267.303 78.5451 267.303 86.5878C267.303 94.6304 269.197 101.861 272.987 108.28C276.776 114.698 281.88 119.725 288.299 123.36C294.795 126.994 301.909 128.812 309.643 128.812C312.639 128.812 320.317 128.687 329.66 128.536L329.662 128.536C342.577 128.327 358.676 128.066 370 128.01V158C370 166.837 362.837 174 354 174H60C31.6834 174 7.94832 154.384 1.64202 128H44.5518V95.9837H69.0278V128H94.7798V45.8717H69.0278V75.4518H44.5518V45.8717H0V16ZM22.98 28.66C23.7133 28.98 24.54 29.14 25.46 29.14C26.42 29.14 27.2533 28.9533 27.96 28.58C28.6667 28.2067 29.2 27.72 29.56 27.12C29.92 26.52 30.1 25.88 30.1 25.2C30.1 24.32 29.9 23.6267 29.5 23.12C29.1 22.6 28.62 22.22 28.06 21.98C27.5 21.7267 26.76 21.4733 25.84 21.22C25.08 21.0067 24.4867 20.82 24.06 20.66C23.6467 20.4867 23.2933 20.24 23 19.92C22.72 19.6 22.58 19.1867 22.58 18.68C22.58 17.9733 22.82 17.4267 23.3 17.04C23.78 16.64 24.4 16.44 25.16 16.44C25.9733 16.44 26.6267 16.6467 27.12 17.06C27.6133 17.46 27.8933 17.9267 27.96 18.46H29.96C29.8533 17.38 29.38 16.5133 28.54 15.86C27.7133 15.2067 26.6467 14.88 25.34 14.88C24.4333 14.88 23.6267 15.04 22.92 15.36C22.2267 15.68 21.6867 16.1333 21.3 16.72C20.9133 17.3067 20.72 17.98 20.72 18.74C20.72 19.6067 20.9133 20.3 21.3 20.82C21.7 21.3267 22.1733 21.7 22.72 21.94C23.28 22.18 24.02 22.42 24.94 22.66C25.6867 22.86 26.28 23.0467 26.72 23.22C27.16 23.3933 27.5267 23.6467 27.82 23.98C28.1133 24.3133 28.26 24.7467 28.26 25.28C28.26 25.96 28.0067 26.52 27.5 26.96C27.0067 27.3867 26.3267 27.6 25.46 27.6C24.5533 27.6 23.86 27.38 23.38 26.94C22.9133 26.4867 22.6467 25.9333 22.58 25.28H20.64C20.6533 26.04 20.8667 26.7133 21.28 27.3C21.6933 27.8733 22.26 28.3267 22.98 28.66ZM32.7783 20.54C32.3249 21.38 32.0983 22.36 32.0983 23.48C32.0983 24.5867 32.3249 25.5733 32.7783 26.44C33.2316 27.3067 33.8516 27.98 34.6383 28.46C35.4249 28.94 36.3049 29.18 37.2783 29.18C38.2249 29.18 39.0516 28.9733 39.7583 28.56C40.4783 28.1333 41.0183 27.6 41.3783 26.96V29H43.2183V18.04H41.3783V20.04C41.0316 19.4133 40.5049 18.8933 39.7983 18.48C39.0916 18.0667 38.2583 17.86 37.2983 17.86C36.3249 17.86 35.4383 18.0933 34.6383 18.56C33.8516 19.0267 33.2316 19.6867 32.7783 20.54ZM49.1339 34.16L55.7339 18.04H53.8539L50.4539 26.92L47.0139 18.04H44.9939L49.4139 28.88L47.2539 34.16H49.1339ZM56.62 144.06V145.54H52.82V158H51V145.54H47.18V144.06H56.62ZM63.6403 158.18C62.6136 158.18 61.6803 157.947 60.8403 157.48C60.0136 157.013 59.3603 156.353 58.8803 155.5C58.4136 154.633 58.1803 153.633 58.1803 152.5C58.1803 151.38 58.4203 150.393 58.9003 149.54C59.3936 148.673 60.0603 148.013 60.9003 147.56C61.7403 147.093 62.6803 146.86 63.7203 146.86C64.7603 146.86 65.7003 147.093 66.5403 147.56C67.3803 148.013 68.0403 148.667 68.5203 149.52C69.0136 150.373 69.2603 151.367 69.2603 152.5C69.2603 153.633 69.007 154.633 68.5003 155.5C68.007 156.353 67.3336 157.013 66.4803 157.48C65.627 157.947 64.6803 158.18 63.6403 158.18ZM85.5653 144.06V145.54H81.7653V158H79.9453V145.54H76.1253V144.06H85.5653ZM93.2456 146.84C94.0723 146.84 94.819 147.02 95.4856 147.38C96.1523 147.727 96.6723 148.253 97.0456 148.96C97.4323 149.667 97.6256 150.527 97.6256 151.54V158H95.8256V151.8C95.8256 150.707 95.5523 149.873 95.0056 149.3C94.459 148.713 93.7123 148.42 92.7656 148.42C91.8056 148.42 91.039 148.72 90.4656 149.32C89.9056 149.92 89.6256 150.793 89.6256 151.94V158H87.8056V143.2H89.6256V148.6C89.9856 148.04 90.479 147.607 91.1056 147.3C91.7456 146.993 92.459 146.84 93.2456 146.84ZM110.599 152.1C110.599 152.447 110.579 152.813 110.539 153.2H101.779C101.845 154.28 102.212 155.127 102.879 155.74C103.559 156.34 104.379 156.64 105.339 156.64C106.125 156.64 106.779 156.46 107.299 156.1C107.832 155.727 108.205 155.233 108.419 154.62H110.379C110.085 155.673 109.499 156.533 108.619 157.2C107.739 157.853 106.645 158.18 105.339 158.18C104.299 158.18 103.365 157.947 102.539 157.48C101.725 157.013 101.085 156.353 100.619 155.5C100.152 154.633 99.9186 153.633 99.9186 152.5C99.9186 151.367 100.145 150.373 100.599 149.52C101.052 148.667 101.685 148.013 102.499 147.56C103.325 147.093 104.272 146.86 105.339 146.86C106.379 146.86 107.299 147.087 108.099 147.54C108.899 147.993 109.512 148.62 109.939 149.42C110.379 150.207 110.599 151.1 110.599 152.1ZM126.913 144.06V145.54H123.113V158H121.293V145.54H117.473V144.06H126.913ZM139.153 152.1C139.153 152.447 139.133 152.813 139.093 153.2H130.333C130.4 154.28 130.767 155.127 131.433 155.74C132.113 156.34 132.933 156.64 133.893 156.64C134.68 156.64 135.333 156.46 135.853 156.1C136.387 155.727 136.76 155.233 136.973 154.62H138.933C138.64 155.673 138.053 156.533 137.173 157.2C136.293 157.853 135.2 158.18 133.893 158.18C132.853 158.18 131.92 157.947 131.093 157.48C130.28 157.013 129.64 156.353 129.173 155.5C128.707 154.633 128.473 153.633 128.473 152.5C128.473 151.367 128.7 150.373 129.153 149.52C129.607 148.667 130.24 148.013 131.053 147.56C131.88 147.093 132.827 146.86 133.893 146.86C134.933 146.86 135.853 147.087 136.653 147.54C137.453 147.993 138.067 148.62 138.493 149.42C138.933 150.207 139.153 151.1 139.153 152.1ZM140.876 152.48C140.876 151.36 141.102 150.38 141.556 149.54C142.009 148.687 142.629 148.027 143.416 147.56C144.216 147.093 145.102 146.86 146.076 146.86C147.036 146.86 147.869 147.067 148.576 147.48C149.282 147.893 149.809 148.413 150.156 149.04V147.04H151.996V158H150.156V155.96C149.796 156.6 149.256 157.133 148.536 157.56C147.829 157.973 147.002 158.18 146.056 158.18C145.082 158.18 144.202 157.94 143.416 157.46C142.629 156.98 142.009 156.307 141.556 155.44C141.102 154.573 140.876 153.587 140.876 152.48ZM168.251 146.84C169.105 146.84 169.865 147.02 170.531 147.38C171.198 147.727 171.725 148.253 172.111 148.96C172.498 149.667 172.691 150.527 172.691 151.54V158H170.891V151.8C170.891 150.707 170.618 149.873 170.071 149.3C169.538 148.713 168.811 148.42 167.891 148.42C166.945 148.42 166.191 148.727 165.631 149.34C165.071 149.94 164.791 150.813 164.791 151.96V158H162.991V151.8C162.991 150.707 162.718 149.873 162.171 149.3C161.638 148.713 160.911 148.42 159.991 148.42C159.045 148.42 158.291 148.727 157.731 149.34C157.171 149.94 156.891 150.813 156.891 151.96V158H155.071V147.04H156.891V148.62C157.251 148.047 157.731 147.607 158.331 147.3C158.945 146.993 159.618 146.84 160.351 146.84C161.271 146.84 162.085 147.047 162.791 147.46C163.498 147.873 164.025 148.48 164.371 149.28C164.678 148.507 165.185 147.907 165.891 147.48C166.598 147.053 167.385 146.84 168.251 146.84ZM127.478 66.4037V76.4958H152.998V95.8678H127.478V107.468H156.478V128H101.726V45.8717H156.478V66.4037H127.478ZM212.119 108.512H187.295V45.8717H161.543V128H212.119V108.512ZM241.335 108.512H266.159V128H215.583V45.8717H241.335V108.512Z" fill="url(#paint5_linear_778_669)"/>
<path d="M321.475 99.9277C318.691 103.176 314.747 104.8 309.643 104.8C304.461 104.8 300.479 103.176 297.695 99.9277C294.911 96.6024 293.519 92.1558 293.519 86.5878C293.519 80.9424 294.911 76.4958 297.695 73.2477C300.479 69.9224 304.461 68.2598 309.643 68.2598C314.747 68.2598 318.691 69.9224 321.475 73.2477C324.259 76.4958 325.651 80.9424 325.651 86.5878C325.651 92.1558 324.259 96.6024 321.475 99.9277Z" fill="url(#paint6_linear_778_669)"/>
<defs>
<linearGradient id="paint0_linear_778_669" x1="37.5" y1="157.172" x2="234.896" y2="-68.1369" gradientUnits="userSpaceOnUse">
<stop stop-color="#BF82FF"/>
<stop offset="0.288364" stop-color="#8372FC"/>
<stop offset="0.746608" stop-color="#6A75FB"/>
<stop offset="0.897516" stop-color="#B9B3D2"/>
<stop offset="0.974095" stop-color="#8BE2D7"/>
</linearGradient>
<linearGradient id="paint1_linear_778_669" x1="37.5" y1="157.172" x2="234.896" y2="-68.1369" gradientUnits="userSpaceOnUse">
<stop stop-color="#BF82FF"/>
<stop offset="0.288364" stop-color="#8372FC"/>
<stop offset="0.746608" stop-color="#6A75FB"/>
<stop offset="0.897516" stop-color="#B9B3D2"/>
<stop offset="0.974095" stop-color="#8BE2D7"/>
</linearGradient>
<linearGradient id="paint2_linear_778_669" x1="37.5" y1="157.172" x2="234.896" y2="-68.1369" gradientUnits="userSpaceOnUse">
<stop stop-color="#BF82FF"/>
<stop offset="0.288364" stop-color="#8372FC"/>
<stop offset="0.746608" stop-color="#6A75FB"/>
<stop offset="0.897516" stop-color="#B9B3D2"/>
<stop offset="0.974095" stop-color="#8BE2D7"/>
</linearGradient>
<linearGradient id="paint3_linear_778_669" x1="37.5" y1="157.172" x2="234.896" y2="-68.1369" gradientUnits="userSpaceOnUse">
<stop stop-color="#BF82FF"/>
<stop offset="0.288364" stop-color="#8372FC"/>
<stop offset="0.746608" stop-color="#6A75FB"/>
<stop offset="0.897516" stop-color="#B9B3D2"/>
<stop offset="0.974095" stop-color="#8BE2D7"/>
</linearGradient>
<linearGradient id="paint4_linear_778_669" x1="37.5" y1="157.172" x2="234.896" y2="-68.1369" gradientUnits="userSpaceOnUse">
<stop stop-color="#BF82FF"/>
<stop offset="0.288364" stop-color="#8372FC"/>
<stop offset="0.746608" stop-color="#6A75FB"/>
<stop offset="0.897516" stop-color="#B9B3D2"/>
<stop offset="0.974095" stop-color="#8BE2D7"/>
</linearGradient>
<linearGradient id="paint5_linear_778_669" x1="37.5" y1="157.172" x2="234.896" y2="-68.1369" gradientUnits="userSpaceOnUse">
<stop stop-color="#BF82FF"/>
<stop offset="0.288364" stop-color="#8372FC"/>
<stop offset="0.746608" stop-color="#6A75FB"/>
<stop offset="0.897516" stop-color="#B9B3D2"/>
<stop offset="0.974095" stop-color="#8BE2D7"/>
</linearGradient>
<linearGradient id="paint6_linear_778_669" x1="37.5" y1="157.172" x2="234.896" y2="-68.1369" gradientUnits="userSpaceOnUse">
<stop stop-color="#BF82FF"/>
<stop offset="0.288364" stop-color="#8372FC"/>
<stop offset="0.746608" stop-color="#6A75FB"/>
<stop offset="0.897516" stop-color="#B9B3D2"/>
<stop offset="0.974095" stop-color="#8BE2D7"/>
</linearGradient>
</defs>
</svg>
