<svg width="36" height="36" viewBox="0 0 36 36" fill="none" xmlns="http://www.w3.org/2000/svg">
<path d="M0 2.5785C0 1.15425 1.1835 0 2.64375 0H33.3562C34.8165 0 36 1.15425 36 2.5785V33.4215C36 34.8458 34.8165 36 33.3562 36H2.64375C1.1835 36 0 34.8458 0 33.4215V2.5785ZM11.1217 30.1365V13.8803H5.7195V30.1365H11.1217ZM8.42175 11.6595C10.305 11.6595 11.4772 10.413 11.4772 8.8515C11.4435 7.25625 10.3073 6.0435 8.45775 6.0435C6.60825 6.0435 5.4 7.2585 5.4 8.8515C5.4 10.413 6.57225 11.6595 8.38575 11.6595H8.42175ZM19.4648 30.1365V21.0578C19.4648 20.5718 19.5007 20.0857 19.6447 19.7392C20.034 18.7695 20.9228 17.7637 22.4168 17.7637C24.372 17.7637 25.1527 19.2533 25.1527 21.4403V30.1365H30.555V20.8125C30.555 15.8175 27.891 13.4955 24.336 13.4955C21.4695 13.4955 20.1848 15.0705 19.4648 16.1797V16.236H19.4288L19.4648 16.1797V13.8803H14.0647C14.1322 15.4058 14.0647 30.1365 14.0647 30.1365H19.4648Z" fill="url(#paint0_linear_936_598)"/>
<defs>
<linearGradient id="paint0_linear_936_598" x1="18" y1="0" x2="18" y2="36" gradientUnits="userSpaceOnUse">
<stop stop-color="#7182F9"/>
<stop offset="1" stop-color="#90DFA8"/>
</linearGradient>
</defs>
</svg>
